<svg xmlns="http://www.w3.org/2000/svg" viewBox="0 0 71.36 71.36"><defs><style>.cls-1{fill:#303;}.cls-2{fill:#fff;}</style></defs><g id="Layer_2" data-name="Layer 2"><g id="Layer_1-2" data-name="Layer 1"><circle class="cls-1" cx="35.68" cy="35.68" r="35.68"/><rect class="cls-2" x="20.88" y="16.32" width="1.5" height="1.5"/><rect class="cls-2" x="23.88" y="16.32" width="1.5" height="1.5"/><rect class="cls-2" x="26.88" y="16.32" width="1.5" height="1.5"/><path class="cls-2" d="M50.88,43.75V13.32h-33v10.5h-6v13.5h6v19.5h19.5v1.5h19.5V43.75ZM19.38,14.82h30v4.5h-30Zm-6,10.5h16.5v10.5H13.38Zm6,30v-18h12V23.82h-12v-3h30V43.75h-12V55.32Zm36,1.5H38.88V45.25h16.5Z"/><polygon class="cls-2" points="18.03 26.36 14.65 30.57 18.03 34.77 19.23 33.87 16.6 30.57 19.23 27.27 18.03 26.36"/><polygon class="cls-2" points="24.03 27.27 26.65 30.57 24.03 33.87 25.23 34.77 28.6 30.57 25.23 26.36 24.03 27.27"/><rect class="cls-2" x="17.8" y="29.81" width="7.65" height="1.5" transform="translate(-12.59 45.77) rotate(-78.68)"/><path class="cls-2" d="M42.63,53.38a1.5,1.5,0,0,0,1.5,1.5h1.5v-1.5h-1.5v-1.2a1.47,1.47,0,0,0-.45-1,1.49,1.49,0,0,0,.45-1.05v-1.2h1.5v-1.5h-1.5a1.5,1.5,0,0,0-1.5,1.5v1.2l-1.05,1.05,1.05,1Z"/><path class="cls-2" d="M51.63,53.38v-1.2l1-1-1-1.05v-1.2a1.5,1.5,0,0,0-1.5-1.5h-1.5v1.5h1.5v1.2a1.49,1.49,0,0,0,.45,1.05,1.47,1.47,0,0,0-.45,1v1.2h-1.5v1.5h1.5A1.51,1.51,0,0,0,51.63,53.38Z"/><rect class="cls-2" x="32.88" y="23.82" width="15" height="1.5"/><rect class="cls-2" x="32.88" y="27.8" width="15" height="1.5"/><rect class="cls-2" x="32.88" y="31.79" width="15" height="1.5"/><rect class="cls-2" x="32.88" y="35.78" width="15" height="1.5"/><rect class="cls-2" x="20.88" y="39.76" width="27" height="1.5"/><rect class="cls-2" x="20.88" y="43.75" width="15" height="1.5"/><rect class="cls-2" x="20.88" y="47.74" width="15" height="1.5"/><rect class="cls-2" x="20.88" y="51.72" width="15" height="1.5"/></g></g></svg>