<svg xmlns="http://www.w3.org/2000/svg" viewBox="0 0 73.36 73.36"><defs><style>.cls-1{fill:#60e8de;}.cls-2{fill:none;stroke:#303;stroke-miterlimit:10;stroke-width:2px;}.cls-3{fill:#303;}</style></defs><g id="Layer_2" data-name="Layer 2"><g id="Layer_1-2" data-name="Layer 1"><rect class="cls-1" x="33.88" y="29.01" width="15" height="5.27"/><circle class="cls-2" cx="36.68" cy="36.68" r="35.68"/><rect class="cls-3" x="21.88" y="17.32" width="1.5" height="1.5"/><rect class="cls-3" x="24.88" y="17.32" width="1.5" height="1.5"/><rect class="cls-3" x="27.88" y="17.32" width="1.5" height="1.5"/><path class="cls-3" d="M51.88,44.75V14.32h-33v10.5h-6v13.5h6v19.5h19.5v1.5h19.5V44.75ZM20.38,15.82h30v4.5h-30Zm-6,10.5h16.5v10.5H14.38Zm6,30v-18h12V24.82h-12v-3h30V44.75h-12V56.32Zm36,1.5H39.88V46.25h16.5Z"/><polygon class="cls-3" points="19.03 27.36 15.65 31.57 19.03 35.77 20.23 34.87 17.6 31.57 20.23 28.27 19.03 27.36"/><polygon class="cls-3" points="25.03 28.27 27.65 31.57 25.03 34.87 26.23 35.77 29.6 31.57 26.23 27.36 25.03 28.27"/><rect class="cls-3" x="18.8" y="30.81" width="7.65" height="1.5" transform="translate(-12.76 47.56) rotate(-78.68)"/><path class="cls-3" d="M43.63,54.38a1.5,1.5,0,0,0,1.5,1.5h1.5v-1.5h-1.5v-1.2a1.47,1.47,0,0,0-.45-1,1.49,1.49,0,0,0,.45-1.05v-1.2h1.5v-1.5h-1.5a1.5,1.5,0,0,0-1.5,1.5v1.2l-1.05,1.05,1.05,1Z"/><path class="cls-3" d="M52.63,54.38v-1.2l1-1-1-1.05v-1.2a1.5,1.5,0,0,0-1.5-1.5h-1.5v1.5h1.5v1.2a1.49,1.49,0,0,0,.45,1.05,1.47,1.47,0,0,0-.45,1v1.2h-1.5v1.5h1.5A1.51,1.51,0,0,0,52.63,54.38Z"/><rect class="cls-3" x="33.88" y="24.82" width="15" height="1.5"/><rect class="cls-3" x="33.88" y="28.8" width="15" height="1.5"/><rect class="cls-3" x="33.88" y="32.79" width="15" height="1.5"/><rect class="cls-3" x="33.88" y="36.78" width="15" height="1.5"/><rect class="cls-3" x="21.88" y="40.76" width="27" height="1.5"/><rect class="cls-3" x="21.88" y="44.75" width="15" height="1.5"/><rect class="cls-3" x="21.88" y="48.74" width="15" height="1.5"/><rect class="cls-3" x="21.88" y="52.72" width="15" height="1.5"/></g></g></svg>