<svg xmlns="http://www.w3.org/2000/svg" viewBox="0 0 71.36 71.36"><defs><style>.cls-1{fill:#60efde;}.cls-2{fill:#303;}</style></defs><g id="Layer_2" data-name="Layer 2"><g id="Layer_1-2" data-name="Layer 1"><circle class="cls-1" cx="35.68" cy="35.68" r="35.68"/><path class="cls-2" d="M57.31,46.49V16.22a2.17,2.17,0,0,0-2.16-2.17H16.22a2.18,2.18,0,0,0-2.17,2.17V46.49a2.17,2.17,0,0,0,2.17,2.17H30.5l-1.2,7.21h-3a.72.72,0,0,0,0,1.44H45.05a.72.72,0,0,0,0-1.44h-3l-1.2-7.21H47l6.27,6.27a2.17,2.17,0,0,0,3.06,0h0a2.17,2.17,0,0,0,0-3.06l-3.21-3.21h2A2.17,2.17,0,0,0,57.31,46.49ZM41.59,41.16l1-1,3.06,3.05-1,1Zm-1.24-.79-2-.5a2.16,2.16,0,0,1-1.59-1.61l-.87-3.78,3.78.87a2.17,2.17,0,0,1,1.62,1.59l.49,2Zm2.91-1.61-.55-2.17A3.57,3.57,0,0,0,40,34l-4.91-1.13a.71.71,0,0,0-.86.54.58.58,0,0,0,0,.32l1.13,4.91A3.66,3.66,0,0,0,36.07,40H15.5V21.26H55.87V40H44.51Zm-27-23.26H55.15a.72.72,0,0,1,.72.72v3.6H15.5v-3.6A.72.72,0,0,1,16.22,15.5ZM40.6,55.87H30.76L32,48.66H39.4ZM16.22,47.22a.73.73,0,0,1-.72-.73v-5H38.73l1.47.37,5.4,5.4Zm39.13,6.69a.72.72,0,0,1-1,0h0l-8.66-8.67,1-1,8.67,8.67A.72.72,0,0,1,55.35,53.91ZM46,41.45h9.92v5a.73.73,0,0,1-.72.73H51.72Z"/><path class="cls-2" d="M37.12,42.89H34.24a.72.72,0,1,0,0,1.44h2.88a.72.72,0,0,0,0-1.44Z"/><circle class="cls-2" cx="17.66" cy="17.66" r="0.72"/><circle class="cls-2" cx="20.54" cy="17.66" r="0.72"/><circle class="cls-2" cx="23.43" cy="17.66" r="0.72"/><path class="cls-2" d="M22,24.15h1.45a.73.73,0,0,0,0-1.45H22a.73.73,0,0,0,0,1.45Z"/><path class="cls-2" d="M26.31,24.15h1.44a.73.73,0,0,0,0-1.45H26.31a.73.73,0,0,0,0,1.45Z"/><path class="cls-2" d="M19.1,37.12h-.72V36.4a.72.72,0,0,0-1.44,0v1.44a.72.72,0,0,0,.72.72H19.1a.72.72,0,0,0,0-1.44Z"/><path class="cls-2" d="M23.43,37.12H22a.72.72,0,0,0,0,1.44h1.45a.72.72,0,0,0,0-1.44Z"/><path class="cls-2" d="M27.75,37.12H26.31a.72.72,0,0,0,0,1.44h1.44a.72.72,0,1,0,0-1.44Z"/><path class="cls-2" d="M32.08,22.7H30.63a.73.73,0,0,0,0,1.45h.73v.72a.72.72,0,1,0,1.44,0V23.43A.73.73,0,0,0,32.08,22.7Z"/><path class="cls-2" d="M32.08,27a.72.72,0,0,0-.72.72v1.44a.72.72,0,0,0,1.44,0V27.75A.72.72,0,0,0,32.08,27Z"/><path class="cls-2" d="M32.08,31.36a.72.72,0,0,0-.72.72v1.44a.72.72,0,0,0,1.44,0V32.08A.72.72,0,0,0,32.08,31.36Z"/><path class="cls-2" d="M32.08,35.68a.72.72,0,0,0-.72.72v.72h-.73a.72.72,0,0,0,0,1.44h1.45a.72.72,0,0,0,.72-.72V36.4A.72.72,0,0,0,32.08,35.68Z"/><path class="cls-2" d="M17.66,25.59a.72.72,0,0,0,.72-.72v-.72h.72a.73.73,0,0,0,0-1.45H17.66a.73.73,0,0,0-.72.73v1.44A.72.72,0,0,0,17.66,25.59Z"/><path class="cls-2" d="M17.66,29.91a.72.72,0,0,0,.72-.72V27.75a.72.72,0,0,0-1.44,0v1.44A.72.72,0,0,0,17.66,29.91Z"/><path class="cls-2" d="M17.66,34.24a.72.72,0,0,0,.72-.72V32.08a.72.72,0,0,0-1.44,0v1.44A.72.72,0,0,0,17.66,34.24Z"/><path class="cls-2" d="M39.29,29.91H35a.73.73,0,0,0,0,1.45h4.33a.73.73,0,0,0,0-1.45Z"/><path class="cls-2" d="M53.7,29.91H42.17a.73.73,0,0,0,0,1.45H53.7a.73.73,0,0,0,0-1.45Z"/><path class="cls-2" d="M53.7,32.8H43.61a.72.72,0,0,0,0,1.44H53.7a.72.72,0,1,0,0-1.44Z"/><path class="cls-2" d="M53.7,22.7H35a.73.73,0,0,0-.72.73v4.32a.72.72,0,0,0,.72.72H53.7a.72.72,0,0,0,.72-.72V23.43A.73.73,0,0,0,53.7,22.7ZM53,27H35.68V24.15H53Z"/><path class="cls-2" d="M29.91,26.31a.72.72,0,0,0-.72-.72H20.54a.72.72,0,0,0-.72.72V35a.72.72,0,0,0,.72.72h8.65a.72.72,0,0,0,.72-.72Zm-1.44,7.93H21.26V27h7.21Z"/></g></g></svg>