<svg xmlns="http://www.w3.org/2000/svg" viewBox="0 0 73.36 73.36"><defs><style>.cls-1{fill:#60e8de;}.cls-2{fill:none;stroke:#303;stroke-miterlimit:10;stroke-width:2px;}.cls-3{fill:#303;}</style></defs><g id="Layer_2" data-name="Layer 2"><g id="Layer_1-2" data-name="Layer 1"><path class="cls-1" d="M36.18,34.52c.16-.16,5,1,5.85,1.88s1.46,3.77,1.46,3.77L41.69,42s-3.61.3-4.06-1S36.18,34.52,36.18,34.52Z"/><circle class="cls-2" cx="36.68" cy="36.68" r="35.68"/><path class="cls-3" d="M58.31,47.49V17.22a2.17,2.17,0,0,0-2.16-2.17H17.22a2.18,2.18,0,0,0-2.17,2.17V47.49a2.17,2.17,0,0,0,2.17,2.17H31.5l-1.2,7.21h-3a.72.72,0,0,0,0,1.44H46.05a.72.72,0,0,0,0-1.44h-3l-1.2-7.21H48l6.27,6.27a2.17,2.17,0,0,0,3.06,0h0a2.17,2.17,0,0,0,0-3.06l-3.21-3.21h2A2.17,2.17,0,0,0,58.31,47.49ZM42.59,42.16l1-1,3.06,3.05-1,1Zm-1.24-.79-2-.5a2.16,2.16,0,0,1-1.59-1.61l-.87-3.78,3.78.87a2.17,2.17,0,0,1,1.62,1.59l.49,2Zm2.91-1.61-.55-2.17A3.57,3.57,0,0,0,41,35l-4.91-1.13a.71.71,0,0,0-.86.54.58.58,0,0,0,0,.32l1.13,4.91A3.66,3.66,0,0,0,37.07,41H16.5V22.26H56.87V41H45.51Zm-27-23.26H56.15a.72.72,0,0,1,.72.72v3.6H16.5v-3.6A.72.72,0,0,1,17.22,16.5ZM41.6,56.87H31.76L33,49.66H40.4ZM17.22,48.22a.73.73,0,0,1-.72-.73v-5H39.73l1.47.37,5.4,5.4Zm39.13,6.69a.72.72,0,0,1-1,0h0l-8.66-8.67,1-1,8.67,8.67A.72.72,0,0,1,56.35,54.91ZM47,42.45h9.92v5a.73.73,0,0,1-.72.73H52.72Z"/><path class="cls-3" d="M38.12,43.89H35.24a.72.72,0,1,0,0,1.44h2.88a.72.72,0,0,0,0-1.44Z"/><circle class="cls-3" cx="18.66" cy="18.66" r="0.72"/><circle class="cls-3" cx="21.54" cy="18.66" r="0.72"/><circle class="cls-3" cx="24.43" cy="18.66" r="0.72"/><path class="cls-3" d="M23,25.15h1.45a.73.73,0,0,0,0-1.45H23a.73.73,0,0,0,0,1.45Z"/><path class="cls-3" d="M27.31,25.15h1.44a.73.73,0,0,0,0-1.45H27.31a.73.73,0,0,0,0,1.45Z"/><path class="cls-3" d="M20.1,38.12h-.72V37.4a.72.72,0,0,0-1.44,0v1.44a.72.72,0,0,0,.72.72H20.1a.72.72,0,0,0,0-1.44Z"/><path class="cls-3" d="M24.43,38.12H23a.72.72,0,0,0,0,1.44h1.45a.72.72,0,0,0,0-1.44Z"/><path class="cls-3" d="M28.75,38.12H27.31a.72.72,0,0,0,0,1.44h1.44a.72.72,0,1,0,0-1.44Z"/><path class="cls-3" d="M33.08,23.7H31.63a.73.73,0,0,0,0,1.45h.73v.72a.72.72,0,1,0,1.44,0V24.43A.73.73,0,0,0,33.08,23.7Z"/><path class="cls-3" d="M33.08,28a.72.72,0,0,0-.72.72v1.44a.72.72,0,0,0,1.44,0V28.75A.72.72,0,0,0,33.08,28Z"/><path class="cls-3" d="M33.08,32.36a.72.72,0,0,0-.72.72v1.44a.72.72,0,0,0,1.44,0V33.08A.72.72,0,0,0,33.08,32.36Z"/><path class="cls-3" d="M33.08,36.68a.72.72,0,0,0-.72.72v.72h-.73a.72.72,0,0,0,0,1.44h1.45a.72.72,0,0,0,.72-.72V37.4A.72.72,0,0,0,33.08,36.68Z"/><path class="cls-3" d="M18.66,26.59a.72.72,0,0,0,.72-.72v-.72h.72a.73.73,0,0,0,0-1.45H18.66a.73.73,0,0,0-.72.73v1.44A.72.72,0,0,0,18.66,26.59Z"/><path class="cls-3" d="M18.66,30.91a.72.72,0,0,0,.72-.72V28.75a.72.72,0,0,0-1.44,0v1.44A.72.72,0,0,0,18.66,30.91Z"/><path class="cls-3" d="M18.66,35.24a.72.72,0,0,0,.72-.72V33.08a.72.72,0,0,0-1.44,0v1.44A.72.72,0,0,0,18.66,35.24Z"/><path class="cls-3" d="M40.29,30.91H36a.73.73,0,0,0,0,1.45h4.33a.73.73,0,0,0,0-1.45Z"/><path class="cls-3" d="M54.7,30.91H43.17a.73.73,0,0,0,0,1.45H54.7a.73.73,0,0,0,0-1.45Z"/><path class="cls-3" d="M54.7,33.8H44.61a.72.72,0,0,0,0,1.44H54.7a.72.72,0,1,0,0-1.44Z"/><path class="cls-3" d="M54.7,23.7H36a.73.73,0,0,0-.72.73v4.32a.72.72,0,0,0,.72.72H54.7a.72.72,0,0,0,.72-.72V24.43A.73.73,0,0,0,54.7,23.7ZM54,28H36.68V25.15H54Z"/><path class="cls-3" d="M30.91,27.31a.72.72,0,0,0-.72-.72H21.54a.72.72,0,0,0-.72.72V36a.72.72,0,0,0,.72.72h8.65a.72.72,0,0,0,.72-.72Zm-1.44,7.93H22.26V28h7.21Z"/></g></g></svg>