<?xml version="1.0" encoding="utf-8"?>
<!-- Generator: Adobe Illustrator 25.2.1, SVG Export Plug-In . SVG Version: 6.00 Build 0)  -->
<svg version="1.1" id="Layer_1" xmlns="http://www.w3.org/2000/svg" xmlns:xlink="http://www.w3.org/1999/xlink" x="0px" y="0px"
	 viewBox="0 0 73.4 73.4" style="enable-background:new 0 0 73.4 73.4;" xml:space="preserve">
<style type="text/css">
	.st0{fill:#60E8DE;}
	.st1{fill:none;stroke:#330033;stroke-width:1.5;stroke-miterlimit:10;}
	.st2{fill:#330033;}
</style>
<g id="Layer_2_1_">
	<g id="Layer_1-2">
		<path class="st0" d="M33.6,41.2c-1.6,1.1-3.4,1.6-5.4,1.6c-3.3-0.1-5.2-0.9-5-1.3c0,0,0-3.3,1.2-4.5s2.4-2.2,2.4-2.2
			s-4.7-5.5,1.5-5c6.5,0.5,1.2,5,1.2,5c1.5,0.6,2.6,1.7,3.1,3.2C33.3,40.3,33.6,41.2,33.6,41.2z"/>
		<circle class="st1" cx="36.7" cy="36.7" r="35.7"/>
		<path class="st2" d="M49,49h-1.6v3H33.6v1.5h13.8v2.3c0,1.3-1,2.3-2.3,2.3H28.2c-0.8,0-1.6-0.4-2-1.2l-1.3,0.8
			c0.7,1.2,1.9,1.9,3.3,1.9h16.9c2.1,0,3.9-1.7,3.9-3.8c0,0,0,0,0,0V49z"/>
		<rect x="35.9" y="55.1" class="st2" width="1.5" height="1.5"/>
		<path class="st2" d="M40.5,34.4v-1.5h-2.3c-0.4-4.9-4.3-8.8-9.2-9.2v-2.3h-1.5v2.3c-0.5,0-1,0.1-1.5,0.2v-4.1h12.3v-1.5H26v-0.8
			c0-1.3,1-2.3,2.3-2.3h16.8c0.6,0,1.1,0.2,1.5,0.6l1-1.1c-0.7-0.6-1.6-1-2.5-1H28.2c-2.1,0-3.8,1.7-3.8,3.8v6.9
			c-3.4,1.5-5.8,4.7-6.1,8.4H16v1.5h2.3c0.4,4.9,4.3,8.8,9.2,9.2v2.3H29v-2.3c4.9-0.4,8.8-4.3,9.2-9.2L40.5,34.4z M27.5,40.5V42
			c-1.1-0.1-2.1-0.4-3.1-0.9v-1.4c-0.1-2.1,1.5-3.9,3.6-4s3.9,1.5,4,3.6c0,0.1,0,0.3,0,0.4v1.4c-1,0.5-2,0.8-3.1,0.9v-1.5L27.5,40.5
			z M26,32.1c0-1.3,1-2.3,2.3-2.3s2.3,1,2.3,2.3c0,1.3-1,2.3-2.3,2.3h0C27,34.4,26,33.4,26,32.1z M33.9,39.9
			c-0.1,0.1-0.2,0.1-0.3,0.2v-0.4c0-2-1.1-3.8-2.9-4.8c1.6-1.4,1.8-3.8,0.5-5.4c-1.4-1.6-3.8-1.8-5.4-0.5c-1.6,1.4-1.8,3.8-0.5,5.4
			c0,0,0,0,0,0c0.1,0.2,0.3,0.3,0.5,0.5c-1.8,0.9-2.9,2.8-2.9,4.8v0.4c-0.1-0.1-0.2-0.1-0.2-0.2c-1.6-1.4-2.6-3.4-2.8-5.5h1.5v-1.5
			h-1.5c0.4-4,3.6-7.3,7.6-7.6v1.5H29v-1.5c4.1,0.4,7.3,3.6,7.6,7.6h-1.5v1.5h1.5C36.5,36.5,35.5,38.5,33.9,39.9L33.9,39.9z"/>
		<path class="st2" d="M57.4,27.5c0.4,0,0.8-0.3,0.8-0.8l0,0v-9.2c0-0.4-0.3-0.8-0.8-0.8H40.5c-0.4,0-0.8,0.3-0.8,0.8v9.2
			c0,0.4,0.3,0.8,0.7,0.8c0,0,0,0,0,0H57.4z M41.3,18.3h15.3V26H41.3V18.3z"/>
		<rect x="42.8" y="19.8" class="st2" width="3.1" height="1.5"/>
		<rect x="47.4" y="19.8" class="st2" width="7.7" height="1.5"/>
		<rect x="42.8" y="22.9" class="st2" width="12.3" height="1.5"/>
		<path class="st2" d="M57.2,29c-0.6,0-1.2,0.2-1.6,0.6L49,35.5V29h-1.6v7.7h0.2l-4.4,3.8c-2.8,0.2-5,2.5-5.1,5.3v1.3
			c0,0.8-0.4,1.4-1.1,1.8c-0.4,0.2-0.5,0.7-0.3,1c0.1,0.2,0.4,0.4,0.7,0.4h5.4c2.8,0,5.2-2.2,5.4-5.1L59.1,33c0.9-1,0.8-2.5-0.2-3.4
			C58.4,29.2,57.8,29,57.2,29z M42.8,49h-3.5c0.3-0.5,0.4-1.1,0.4-1.7v-1.4c0-2,1.5-3.7,3.5-3.8l3.4,3.4C46.5,47.4,44.8,49,42.8,49z
			 M57.9,32.1L47.4,44l-2.7-2.7l12-10.5c0.4-0.4,0.9-0.3,1.3,0C58.3,31.1,58.3,31.7,57.9,32.1L57.9,32.1L57.9,32.1z"/>
		<path class="st2" d="M14.4,55.8h16.9c0.4,0,0.8-0.3,0.8-0.8V49c0-0.4-0.3-0.8-0.7-0.8c0,0,0,0,0,0H26v-3.9h-1.6v3.8h-10
			c-0.4,0-0.8,0.3-0.8,0.7c0,0,0,0,0,0v6.1C13.6,55.5,14,55.9,14.4,55.8C14.4,55.9,14.4,55.9,14.4,55.8z M15.2,49.7h15.3v4.6H15.2
			V49.7z"/>
		<rect x="16.8" y="51.2" class="st2" width="3.8" height="1.5"/>
		<rect x="22.1" y="51.2" class="st2" width="6.9" height="1.5"/>
		<path class="st2" d="M14.4,24.4h7.7c0.4,0,0.8-0.3,0.8-0.7c0,0,0,0,0,0v-6.1c0-0.4-0.3-0.8-0.8-0.8c0,0,0,0,0,0h-7.7
			c-0.4,0-0.8,0.3-0.8,0.7c0,0,0,0,0,0v6.1C13.7,24.1,14,24.4,14.4,24.4C14.4,24.4,14.4,24.4,14.4,24.4z M15.2,18.3h6.1v4.6h-6.1
			V18.3z"/>
		<rect x="16.8" y="19.8" class="st2" width="3.1" height="1.5"/>
	</g>
</g>
</svg>
