<svg xmlns="http://www.w3.org/2000/svg" viewBox="0 0 47.29 86.04"><defs><style>.cls-1{fill:#303;}</style></defs><g id="Layer_2" data-name="Layer 2"><g id="Layer_1-2" data-name="Layer 1"><path class="cls-1" d="M7,44.9q3.18-4.45,6.5-8.8l.6-.78c.13-.18.27-.35.4-.52,0,0-.36.47-.11.14l1.4-1.81c.79-1,1.57-2,2.36-3a152.43,152.43,0,0,0,9.54-13.57c2.18-3.57,4.2-7.23,6.16-10.93l-7-1.89a97.52,97.52,0,0,0,4.83,24.9C34.27,36.81,37,45,40.38,52.93c.79,1.86,3.55,2.27,5.13,1.34,1.94-1.13,2.14-3.26,1.35-5.13-3.09-7.29-5.56-15-7.92-22.51S34.71,11.49,34.38,3.72a3.74,3.74,0,0,0-7-1.89,166.35,166.35,0,0,1-10.13,17c-1.45,2.07-3,4.08-4.49,6.09L13,24.7c-.12.14-.23.29-.34.43l-.51.66-1.32,1.69c-1,1.31-2,2.61-3,3.92Q4.06,36.2.54,41.11c-1.18,1.65-.29,4.18,1.34,5.13A3.84,3.84,0,0,0,7,44.9Z"/><path class="cls-1" d="M25.2,11.66q.27,27.5-1,55-.37,7.83-.85,15.65A3.77,3.77,0,0,0,27.12,86a3.84,3.84,0,0,0,3.75-3.75q1.69-27.45,1.86-54.95,0-7.85,0-15.68a3.75,3.75,0,0,0-7.5,0Z"/></g></g></svg>