<svg width="64" height="64" viewBox="0 0 64 64" fill="none" xmlns="http://www.w3.org/2000/svg">
<path d="M47.9112 0.0244141H16.0381C7.20698 0.0244141 0 7.23139 0 16.0625V47.9863C0 56.7667 7.20698 63.9737 16.0381 63.9737H47.9619C56.793 63.9737 64 56.7667 64 47.9356V16.0625C63.9492 7.23139 56.7423 0.0244141 47.9112 0.0244141ZM37.5575 20.3258H48.2157V22.8634H37.5575V20.3258ZM32.5837 37.0236C32.5837 44.9411 24.7676 45.1949 24.7676 45.1949H17.5607H17.3577H12.1808V18.8032H17.3069H17.5099H24.7169C28.6249 18.8032 31.7209 21.0363 31.7209 25.7056C31.7209 30.3749 27.9651 30.6287 27.9651 30.6287C32.9389 30.5779 32.5837 37.0236 32.5837 37.0236ZM51.7177 36.5668H38.8771C38.8771 41.6422 43.2419 41.2361 43.2419 41.2361C47.3529 41.2361 47.2006 38.597 47.2006 38.597H51.5654C51.5654 45.7024 43.0896 45.3979 43.0896 45.3979C32.9389 45.3979 33.5987 35.3995 33.5987 35.3995C33.5987 35.3995 33.5987 25.3503 43.0896 25.3503C53.088 25.2996 51.7177 36.5668 51.7177 36.5668Z" fill="white"/>
</svg>
