<svg id="Layer_1" data-name="Layer 1" xmlns="http://www.w3.org/2000/svg" viewBox="0 0 233.32 87.74"><defs><style>.cls-1{fill:#ed1a60;}.cls-2{fill:#ffb100;}.cls-3{fill:#c30000;}.cls-4{fill:#fff;}</style></defs><path class="cls-1" d="M36.91,41.27a34.92,34.92,0,0,1,6.16-9.37A34.85,34.85,0,0,0,10.59,0s6.1,3.82,3.16,16.33c-1.19,5.05,2.32,13.09,4.89,19.07s-3,5.94-5.51,5.85-3.37,3.44-2.4,6.62-2.92,3-2.92,3,.23,4.6-2.23,5.32-2.13,4.82-2.12,8S0,68.46,0,68.46a34.81,34.81,0,0,0,34-10.2,34.64,34.64,0,0,1,2.92-17"/><path class="cls-2" d="M82.87,23.7a34.84,34.84,0,0,0-39.8,8.2,34.39,34.39,0,0,1-.92,11.18A34.61,34.61,0,0,1,34,58.26a34.77,34.77,0,0,0,20.5,28.95s-2.11-2.93-.13-5.45,4.77-5.55,3.28-7.63,1.52-5.57,1.52-5.57-3.17-2.27-.44-4.18S63,59.17,60.9,57.69s-6.44-4.87-.73-8,13.43-7.3,15.61-12C81.16,26,88.32,26.74,88.32,26.74a35.5,35.5,0,0,0-5.45-3"/><path class="cls-3" d="M42.15,43.08a34.39,34.39,0,0,0,.92-11.18A34.86,34.86,0,0,0,34,58.26a34.61,34.61,0,0,0,8.16-15.18"/><path class="cls-4" d="M126.7,57V86.21a1,1,0,0,1-1,1h-4.32a1,1,0,0,1-1-1V57a1,1,0,0,1,1-1h4.32a1,1,0,0,1,1,1m-8.85,21.64c0,5-4.29,8.62-9.73,8.62H96.9a1,1,0,0,1-1-1V57a1,1,0,0,1,1-1h10.64c5.31,0,9.42,3.57,9.42,8.26,0,3.44-2.82,6.12-4.91,7.1,2.36.76,5.8,3.17,5.8,7.28m-15.63-9.66H107a3.83,3.83,0,0,0,3.84-4A3.64,3.64,0,0,0,107,61.12h-4.78Zm9.42,9c0-2.23-2.23-3.88-4.55-3.88h-4.87v8h5.4a4,4,0,0,0,4-4.07m37.69-11.84h-4c-.84,0-1.16.21-1.16,1V77.52a4.06,4.06,0,1,1-8.06,0V67.14a1,1,0,0,0-1-1H130.8a1,1,0,0,0-1,1V77.36c0,5.37,2.37,10.37,8.9,10.37a9.24,9.24,0,0,0,6.89-2.9l.81,1.8a.93.93,0,0,0,.89.58h2.05a1,1,0,0,0,1-1V67.14a1,1,0,0,0-1-1m36.81-28.35a10.8,10.8,0,1,1-10.79-11,11,11,0,0,1,10.79,11m-5.74,0a5.07,5.07,0,1,0-5.05,5.42,5.24,5.24,0,0,0,5.05-5.42M95.9,47.37V18.11a1,1,0,0,1,1-1h10.64c5.31,0,9.42,3.58,9.42,8.26,0,3.44-2.82,6.12-4.91,7.1,2.36.76,5.8,3.17,5.8,7.28,0,5-4.29,8.62-9.73,8.62H96.9a1,1,0,0,1-1-1m6.32-17.28H107a3.82,3.82,0,0,0,3.84-4A3.64,3.64,0,0,0,107,22.28h-4.78Zm0,13.12h5.4a4,4,0,0,0,4-4.07c0-2.23-2.23-3.88-4.55-3.88h-4.87Zm61.56-15.9h-4.21c-.63,0-1,.05-1.26.58L153,39.79h0l-5.32-11.9a.94.94,0,0,0-.9-.58H142a.93.93,0,0,0-.89,1.37l8.58,18.22-4.83,10.24a.94.94,0,0,0,.9,1.42h4.47a1,1,0,0,0,.9-.63l13.52-29.25a.9.9,0,0,0-.9-1.37m69.54-9.2V47.37a1,1,0,0,1-1,1h-2.06a.93.93,0,0,1-.88-.58L228.56,46a9.32,9.32,0,0,1-6.72,2.95c-5.74,0-10.11-5-10.11-11.06s4.16-11.06,10.43-11.06a12.63,12.63,0,0,1,4.69.95V18.11a1,1,0,0,1,1-1h4.47a1,1,0,0,1,1,1m-6.47,15.42a7.15,7.15,0,0,0-3.9-1.06,5.17,5.17,0,0,0-5.11,5.37c0,2.95,2,5.37,4.79,5.37a4.51,4.51,0,0,0,4.22-2.85Zm-26.54-6.75a9.24,9.24,0,0,0-6.89,2.9l-.81-1.79a.93.93,0,0,0-.89-.58h-2.05a1,1,0,0,0-1,1V47.37a1,1,0,0,0,1,1h4c.84,0,1.16-.21,1.16-1V37a4.06,4.06,0,1,1,8.06,0V47.37a1,1,0,0,0,1,1h4.31a1,1,0,0,0,1-1V37.15c0-5.37-2.37-10.37-8.9-10.37M174.05,75.41a11.17,11.17,0,0,1-.11,1.42,1,1,0,0,1-1,.9H159.16a5.08,5.08,0,0,0,5.16,4.58A7.55,7.55,0,0,0,168.51,81c.54-.31,1-.42,1.4,0l2.2,2.48a.85.85,0,0,1-.05,1.37,11.72,11.72,0,0,1-8,2.9A11.06,11.06,0,0,1,164,65.62a9.76,9.76,0,0,1,10.06,9.79M168.22,74A4.18,4.18,0,0,0,164,70.46a4.65,4.65,0,0,0-4.7,3.58Zm-48.3-36.2a10.9,10.9,0,0,1,11-11.06A9.77,9.77,0,0,1,141,36.57a13.76,13.76,0,0,1-.11,1.43,1,1,0,0,1-1,.89H126.05a5.09,5.09,0,0,0,5.17,4.58,7.63,7.63,0,0,0,4.19-1.31c.54-.32,1-.42,1.4,0l2.2,2.47A.85.85,0,0,1,139,46a11.74,11.74,0,0,1-8,2.9,10.85,10.85,0,0,1-11-11.06m6.26-2.63h8.94a4.2,4.2,0,0,0-4.24-3.59,4.64,4.64,0,0,0-4.7,3.59"/></svg>