<svg width="68" height="52" viewBox="0 0 68 52" fill="none" xmlns="http://www.w3.org/2000/svg">
<path d="M61.625 0.5H6.37504C2.85963 0.5 0 3.35963 0 6.87504V45.125C0 48.6404 2.85963 51.5001 6.37504 51.5001H61.625C65.1404 51.5001 68 48.6404 68 45.125V6.87504C68 3.35963 65.1404 0.5 61.625 0.5ZM61.625 4.74998C61.9137 4.74998 62.1883 4.80988 62.4394 4.9145L34 29.5631L5.56042 4.9145C5.81152 4.81003 6.08619 4.74998 6.3749 4.74998H61.625ZM61.625 47.2499H6.37504C5.20258 47.2499 4.24998 46.2975 4.24998 45.1249V9.40465L32.6075 33.9812C33.0081 34.3277 33.504 34.5 34 34.5C34.496 34.5 34.9919 34.3278 35.3925 33.9812L63.75 9.40465V45.125C63.7499 46.2975 62.7974 47.2499 61.625 47.2499Z" fill="white"/>
</svg>
