<svg xmlns="http://www.w3.org/2000/svg" viewBox="0 0 71.36 71.03"><defs><style>.cls-1,.cls-2{fill:#60e8de;}.cls-2{opacity:0.14;}.cls-3{fill:#303;}</style></defs><g id="Layer_2" data-name="Layer 2"><g id="Layer_1-2" data-name="Layer 1"><path class="cls-1" d="M32.6,40.17a9.57,9.57,0,0,1-5.35,1.61c-3.26-.07-5.2-.88-5-1.35,0,0,0-3.28,1.16-4.47s2.38-2.17,2.38-2.17-4.66-5.45,1.46-5c6.5.47,1.22,5,1.22,5A5.25,5.25,0,0,1,31.55,37C32.33,39.3,32.6,40.17,32.6,40.17Z"/><path class="cls-2" d="M71.36,34.91C71.36,54.62,50.52,71,30.82,71S0,55.39,0,35.68A35.67,35.67,0,0,1,35.68,0C55.39,0,71.36,15.21,71.36,34.91Z"/><path class="cls-3" d="M48,48H46.41V51H32.61v1.54h13.8v2.3a2.3,2.3,0,0,1-2.3,2.3H27.25a2.33,2.33,0,0,1-2-1.15l-1.32.76a3.82,3.82,0,0,0,3.32,1.92H44.11A3.84,3.84,0,0,0,48,54.85Z"/><rect class="cls-3" x="34.91" y="54.08" width="1.53" height="1.53"/><path class="cls-3" d="M39.51,33.38V31.85H37.18A10,10,0,0,0,28,22.69V20.35H26.48v2.34a9.75,9.75,0,0,0-1.53.24V18.81H37.21V17.28H25v-.77a2.3,2.3,0,0,1,2.3-2.3H44.11a2.33,2.33,0,0,1,1.53.58l1-1.15a3.82,3.82,0,0,0-2.54-1H27.25a3.85,3.85,0,0,0-3.84,3.83v6.9a10,10,0,0,0-6.09,8.44H15v1.53h2.34a9.93,9.93,0,0,0,9.16,9.17v2.33H28V42.55a9.93,9.93,0,0,0,9.16-9.17Zm-13,6.13V41a8.27,8.27,0,0,1-3.07-.88V38.75a3.84,3.84,0,1,1,7.67,0v1.38A8.27,8.27,0,0,1,28,41v-1.5ZM25,31.08a2.3,2.3,0,1,1,2.3,2.3A2.3,2.3,0,0,1,25,31.08Zm7.92,7.82a2.65,2.65,0,0,1-.26.21v-.36A5.34,5.34,0,0,0,29.72,34a3.84,3.84,0,1,0-5.4-.46,4,4,0,0,0,.46.46,5.35,5.35,0,0,0-2.9,4.76v.36c-.08-.07-.17-.13-.25-.21a8.45,8.45,0,0,1-2.78-5.52h1.5V31.85h-1.5a8.44,8.44,0,0,1,7.63-7.63v1.49H28V24.22a8.43,8.43,0,0,1,7.63,7.63H34.15v1.53h1.49a8.39,8.39,0,0,1-2.77,5.52Z"/><path class="cls-3" d="M56.38,26.48a.77.77,0,0,0,.77-.77v-9.2a.77.77,0,0,0-.77-.76H39.51a.76.76,0,0,0-.76.76v9.2a.76.76,0,0,0,.76.77Zm-16.1-9.2H55.61V25H40.28Z"/><rect class="cls-3" x="41.81" y="18.81" width="3.07" height="1.53"/><rect class="cls-3" x="46.41" y="18.81" width="7.67" height="1.53"/><rect class="cls-3" x="41.81" y="21.88" width="12.27" height="1.53"/><path class="cls-3" d="M56.25,28a2.43,2.43,0,0,0-1.61.62L48,34.52V28H46.41v7.67h.23l-4.37,3.85a5.38,5.38,0,0,0-5.06,5.35v1.35A2,2,0,0,1,36.1,48a.77.77,0,0,0,.35,1.45h5.36a5.37,5.37,0,0,0,5.36-5.06l10.9-12.36a2.44,2.44,0,0,0-.21-3.44A2.46,2.46,0,0,0,56.25,28ZM41.81,48h-3.5a3.58,3.58,0,0,0,.44-1.72V44.88a3.83,3.83,0,0,1,3.52-3.82l3.37,3.36A3.85,3.85,0,0,1,41.81,48Zm15.11-16.9L46.38,43,43.7,40.32,55.65,29.77a.9.9,0,0,1,1.27,1.28Z"/><path class="cls-3" d="M13.45,54.85H30.31a.77.77,0,0,0,.77-.77V48a.76.76,0,0,0-.77-.77H25V43.35H23.41v3.83h-10a.76.76,0,0,0-.77.77v6.13A.77.77,0,0,0,13.45,54.85Zm.76-6.14H29.55v4.6H14.21Z"/><rect class="cls-3" x="15.75" y="50.25" width="3.83" height="1.53"/><rect class="cls-3" x="21.11" y="50.25" width="6.9" height="1.53"/><path class="cls-3" d="M13.45,23.41h7.66a.76.76,0,0,0,.77-.76V16.51a.76.76,0,0,0-.77-.76H13.45a.76.76,0,0,0-.77.76v6.14A.76.76,0,0,0,13.45,23.41Zm.76-6.13h6.14v4.6H14.21Z"/><rect class="cls-3" x="15.75" y="18.81" width="3.07" height="1.53"/></g></g></svg>