<svg xmlns="http://www.w3.org/2000/svg" viewBox="0 0 70.64 69.71"><defs><style>.cls-1,.cls-2{fill:#60e8de;}.cls-1{opacity:0.14;}.cls-3{fill:#303;}</style></defs><g id="Layer_2" data-name="Layer 2"><g id="Layer_1-2" data-name="Layer 1"><path class="cls-1" d="M68.76,21.77C75.6,40.25,63,69.71,43.27,69.71c-15.26,0-34.33-4-41.17-22.45S5.76,9.31,24.24,2.47,61.92,3.29,68.76,21.77Z"/><rect class="cls-2" x="34.01" y="27.22" width="15" height="5.27"/><rect class="cls-3" x="22.01" y="15.52" width="1.5" height="1.5"/><rect class="cls-3" x="25.01" y="15.52" width="1.5" height="1.5"/><rect class="cls-3" x="28.01" y="15.52" width="1.5" height="1.5"/><path class="cls-3" d="M52,43V12.52H19V23H13v13.5h6V56h19.5v1.5H58V43ZM20.51,14h30v4.5h-30Zm-6,10.5H31V35H14.51Zm6,30v-18h12V23h-12V20h30V43h-12V54.52Zm36,1.5H40V44.45h16.5Z"/><polygon class="cls-3" points="19.16 25.57 15.78 29.77 19.16 33.97 20.36 33.07 17.73 29.77 20.36 26.47 19.16 25.57"/><polygon class="cls-3" points="25.16 26.47 27.78 29.77 25.16 33.07 26.36 33.97 29.73 29.77 26.36 25.57 25.16 26.47"/><rect class="cls-3" x="18.93" y="29.02" width="7.65" height="1.5" transform="translate(-10.9 46.24) rotate(-78.68)"/><path class="cls-3" d="M43.76,52.58a1.5,1.5,0,0,0,1.5,1.5h1.5v-1.5h-1.5v-1.2a1.47,1.47,0,0,0-.45-1.05,1.49,1.49,0,0,0,.45-1v-1.2h1.5v-1.5h-1.5a1.5,1.5,0,0,0-1.5,1.5v1.2l-1,1,1,1.05Z"/><path class="cls-3" d="M52.76,52.58v-1.2l1.05-1.05-1.05-1v-1.2a1.5,1.5,0,0,0-1.5-1.5h-1.5v1.5h1.5v1.2a1.49,1.49,0,0,0,.45,1,1.47,1.47,0,0,0-.45,1.05v1.2h-1.5v1.5h1.5A1.51,1.51,0,0,0,52.76,52.58Z"/><rect class="cls-3" x="34.01" y="23.02" width="15" height="1.5"/><rect class="cls-3" x="34.01" y="27" width="15" height="1.5"/><rect class="cls-3" x="34.01" y="30.99" width="15" height="1.5"/><rect class="cls-3" x="34.01" y="34.98" width="15" height="1.5"/><rect class="cls-3" x="22.01" y="38.96" width="27" height="1.5"/><rect class="cls-3" x="22.01" y="42.95" width="15" height="1.5"/><rect class="cls-3" x="22.01" y="46.94" width="15" height="1.5"/><rect class="cls-3" x="22.01" y="50.92" width="15" height="1.5"/></g></g></svg>