<svg xmlns="http://www.w3.org/2000/svg" viewBox="0 0 73.86 68.78"><defs><style>.cls-1,.cls-2{fill:#60e8de;}.cls-1{opacity:0.14;}.cls-3{fill:#303;}</style></defs><g id="Layer_2" data-name="Layer 2"><g id="Layer_1-2" data-name="Layer 1"><path class="cls-1" d="M67.12,55c-11.64,15.9-38.15,18.06-54,6.42s-16.87-31.06-5.22-47S43.06-4.66,59,7,78.76,39.1,67.12,55Z"/><path class="cls-2" d="M35.31,33.91c.17-.16,5,1,5.86,1.89s1.45,3.76,1.45,3.76l-1.79,1.79s-3.61.3-4.06-1S35.31,33.91,35.31,33.91Z"/><path class="cls-3" d="M57.44,46.89V16.61a2.16,2.16,0,0,0-2.16-2.16H16.35a2.16,2.16,0,0,0-2.16,2.16V46.89a2.16,2.16,0,0,0,2.16,2.16H30.64l-1.2,7.21h-3a.72.72,0,1,0,0,1.44H45.19a.72.72,0,1,0,0-1.44h-3L41,49.05h6.19l6.27,6.27a2.15,2.15,0,0,0,3.06,0h0a2.17,2.17,0,0,0,0-3.06l-3.22-3.21h2A2.16,2.16,0,0,0,57.44,46.89ZM41.72,41.56l1-1L45.8,43.6l-1,1Zm-1.24-.8-2-.49a2.16,2.16,0,0,1-1.58-1.61l-.87-3.79,3.78.88a2.14,2.14,0,0,1,1.61,1.58l.49,2Zm2.91-1.61L42.85,37a3.57,3.57,0,0,0-2.69-2.64l-4.9-1.13a.72.72,0,0,0-.87.54.92.92,0,0,0,0,.33L35.53,39a3.6,3.6,0,0,0,.68,1.42H15.63V21.66H56V40.4H44.64Zm-27-23.26H55.28a.72.72,0,0,1,.72.72v3.61H15.63V16.61A.72.72,0,0,1,16.35,15.89ZM40.73,56.26H30.9l1.2-7.21h7.43ZM16.35,47.61a.72.72,0,0,1-.72-.72v-5H38.87l1.47.37,5.4,5.4ZM55.49,54.3a.71.71,0,0,1-1,0h0L45.8,45.64l1-1,8.67,8.66A.72.72,0,0,1,55.49,54.3Zm-9.4-12.46H56v5a.72.72,0,0,1-.72.72H51.85Z"/><path class="cls-3" d="M37.26,43.28H34.38a.73.73,0,1,0,0,1.45h2.88a.73.73,0,0,0,0-1.45Z"/><circle class="cls-3" cx="17.8" cy="18.05" r="0.72"/><circle class="cls-3" cx="20.68" cy="18.05" r="0.72"/><circle class="cls-3" cx="23.56" cy="18.05" r="0.72"/><path class="cls-3" d="M22.12,24.54h1.44a.72.72,0,0,0,0-1.44H22.12a.72.72,0,1,0,0,1.44Z"/><path class="cls-3" d="M26.45,24.54h1.44a.72.72,0,0,0,0-1.44H26.45a.72.72,0,1,0,0,1.44Z"/><path class="cls-3" d="M19.24,37.52h-.72V36.8a.73.73,0,0,0-1.45,0v1.44a.73.73,0,0,0,.73.72h1.44a.72.72,0,0,0,0-1.44Z"/><path class="cls-3" d="M23.56,37.52H22.12a.72.72,0,1,0,0,1.44h1.44a.72.72,0,0,0,0-1.44Z"/><path class="cls-3" d="M27.89,37.52H26.45a.72.72,0,1,0,0,1.44h1.44a.72.72,0,0,0,0-1.44Z"/><path class="cls-3" d="M32.21,23.1H30.77a.72.72,0,0,0,0,1.44h.72v.72a.72.72,0,0,0,1.44,0V23.82A.72.72,0,0,0,32.21,23.1Z"/><path class="cls-3" d="M32.21,27.43a.72.72,0,0,0-.72.72v1.44a.72.72,0,0,0,1.44,0V28.15A.72.72,0,0,0,32.21,27.43Z"/><path class="cls-3" d="M32.21,31.75a.72.72,0,0,0-.72.72v1.44a.72.72,0,0,0,1.44,0V32.47A.72.72,0,0,0,32.21,31.75Z"/><path class="cls-3" d="M32.21,36.08a.72.72,0,0,0-.72.72v.72h-.72a.72.72,0,0,0,0,1.44h1.44a.72.72,0,0,0,.72-.72V36.8A.72.72,0,0,0,32.21,36.08Z"/><path class="cls-3" d="M17.8,26a.72.72,0,0,0,.72-.72v-.72h.72a.72.72,0,0,0,0-1.44H17.8a.73.73,0,0,0-.73.72v1.44A.73.73,0,0,0,17.8,26Z"/><path class="cls-3" d="M17.8,30.31a.72.72,0,0,0,.72-.72V28.15a.73.73,0,0,0-1.45,0v1.44A.73.73,0,0,0,17.8,30.31Z"/><path class="cls-3" d="M17.8,34.63a.72.72,0,0,0,.72-.72V32.47a.73.73,0,0,0-1.45,0v1.44A.73.73,0,0,0,17.8,34.63Z"/><path class="cls-3" d="M39.42,30.31H35.1a.72.72,0,1,0,0,1.44h4.32a.72.72,0,0,0,0-1.44Z"/><path class="cls-3" d="M53.84,30.31H42.31a.72.72,0,1,0,0,1.44H53.84a.72.72,0,0,0,0-1.44Z"/><path class="cls-3" d="M53.84,33.19H43.75a.72.72,0,0,0,0,1.44H53.84a.72.72,0,1,0,0-1.44Z"/><path class="cls-3" d="M53.84,23.1H35.1a.72.72,0,0,0-.72.72v4.33a.72.72,0,0,0,.72.72H53.84a.72.72,0,0,0,.72-.72V23.82A.72.72,0,0,0,53.84,23.1Zm-.72,4.33H35.82V24.54h17.3Z"/><path class="cls-3" d="M30.05,26.7a.72.72,0,0,0-.72-.72H20.68a.72.72,0,0,0-.72.72v8.65a.73.73,0,0,0,.72.73h8.65a.73.73,0,0,0,.72-.73Zm-1.44,7.93H21.4v-7.2h7.21Z"/></g></g></svg>