<svg width="65" height="65" viewBox="0 0 65 65" fill="none" xmlns="http://www.w3.org/2000/svg">
<path d="M58.5 0H6.5C2.925 0 0 2.925 0 6.5V58.5C0 62.075 2.925 65 6.5 65H58.5C62.075 65 65 62.075 65 58.5V6.5C65 2.925 62.075 0 58.5 0ZM19.5 55.25H9.75V26H19.5V55.25ZM14.625 20.475C11.375 20.475 8.775 17.875 8.775 14.625C8.775 11.375 11.375 8.775 14.625 8.775C17.875 8.775 20.475 11.375 20.475 14.625C20.475 17.875 17.875 20.475 14.625 20.475ZM55.25 55.25H45.5V38.025C45.5 35.4251 43.225 33.15 40.625 33.15C38.025 33.15 35.75 35.4251 35.75 38.025V55.25H26V26H35.75V29.9C37.375 27.3 40.95 25.35 43.875 25.35C50.05 25.35 55.25 30.55 55.25 36.725V55.25Z" fill="white"/>
</svg>
