<?xml version="1.0" encoding="utf-8"?>
<!-- Generator: Adobe Illustrator 25.2.1, SVG Export Plug-In . SVG Version: 6.00 Build 0)  -->
<svg version="1.1" id="Layer_1" xmlns="http://www.w3.org/2000/svg" xmlns:xlink="http://www.w3.org/1999/xlink" x="0px" y="0px"
	 viewBox="0 0 743 1127.5" style="enable-background:new 0 0 743 1127.5;" xml:space="preserve">
<style type="text/css">
	.st0{clip-path:url(#SVGID_2_);}
	.st1{fill:#FFFFFF;}
	.st2{fill:#60EFDE;}
	.st3{fill:#330033;}
	.st4{fill:#FFE9C2;}
</style>
<g>
	<g>
		<defs>
			<rect id="SVGID_1_" width="742.7" height="1127.5"/>
		</defs>
		<clipPath id="SVGID_2_">
			<use xlink:href="#SVGID_1_"  style="overflow:visible;"/>
		</clipPath>
		<g class="st0">
			<path class="st1" d="M38.2,863.9l132.5-302.5c7.1-22,25.1-66,40.7-66s67.7-29.2,91.8-43.8c-5.8-73.9-16.9-231.8-15.2-271.8
				c2.2-50.1,36.9-141.6,56.5-158.1c19.6-16.6,63.6-25.1,83.2-16s56.5,50.6,109.2,87c42.1,29.1,87.4,280.6,104.8,402.6
				c10.1,9.1,35.6,30.9,56.5,45.5s22.1,65.6,20.1,89.2l-33.2,233.8c-10.9,39.5-37.3,127.8-55.9,166c-17.4,0-10.9,45.5-17.4,63.7
				c-5.2,14.6-38.4,6.1-54.3,0l21.7,20.5c0,0-119.9,16.8-191.8,12.8c-51.7-2.9-132.5-15.8-195.2-33.8
				c-48.2-13.8-21.3-63.2-21.3-63.2c-28.2,1.5-89.9,3.6-110.8,0c-26.1-4.5-41.3-66-45.6-95.6C10.9,910.8,28.8,877.6,38.2,863.9z"/>
			<path class="st2" d="M235.7,690.2c-1.1-13.3-16.8-4.6-24.5,1.4c-0.6-7.9-5.8-23-22-20.2s2,20.6,13.1,29.1
				c-10.5-3-30.5-4.7-25.9,11.7c4.5,16.4,19.2,2.1,25.9-7.1c-0.1,7.6,2,22.5,11.4,22c9.4-0.6,2.2-14.9-2.5-22
				C219.8,705.7,236.8,703.6,235.7,690.2z"/>
			<path class="st3" d="M171.4,751.6c-1.3,0-2.6-0.6-3.4-1.8c-1.3-1.8-0.8-4.3,1-5.6c4-2.7,8.6-6.1,9.8-7c1-1.4,3.7-7.8,5.6-13.1
				c0.8-2.1,3-3,5.1-2.4c2.1,0.8,3,3,2.4,5.1c-3.4,9-5.9,14.4-7.4,15.9c-1.8,1.8-8.8,6.7-10.9,8.2
				C173,751.5,172.2,751.6,171.4,751.6z"/>
			<path class="st3" d="M206.3,706.4c2.8,1.4,5.3,4.2,6.8,7c1.6,3.2,2.3,6.6,2,10c-0.2,1.9-0.4,3.1-1.1,4.9
				c-0.3,0.6-0.5,1.7-1.2,2.1c0,0,0.1,0,0.2,0c-0.4,0.1-0.9-0.3-1.2-0.5c-3.7-2-6.5-5.3-7.9-9.3c-1.5-4.3-1-9.6,1.4-13.7
				c0.7-1.1,0.7-2.6-0.2-3.6c-0.8-1-2.4-1.4-3.6-0.8c-5.3,2.9-10.7,5.4-16.3,7.7c-1.2,0.5-2.6,1-3.8,1.4c-0.8,0.2-1.5,0.6-2.3,0.8
				c0,0-0.9,0.2-0.8,0.2c-0.5-0.1-1.3-1.4-1.6-1.9c-0.7-1.2-1.4-2.5-1.8-3.9c-0.4-1.1-0.6-2.4-0.8-3.6c-0.1-0.8-0.2-1.8,0.2-2.5
				c0.5-0.8,1.4-1.2,2.1-1.6c0.5-0.3,0.8-0.5,1.3-0.6c0.3-0.2,0.5-0.2,0.8-0.3c0.1,0,0.9-0.4,0.5-0.2c3.7-1.2,7.5-1.1,11.1,0
				c2.3,0.7,3.8,1.5,5.8,2.9c1.5,1.1,3.2,2.9,4.1,4.3c1.8-0.8,3.6-1.8,5.4-2.6c-3.8-6-9.5-10.1-13.6-15.9c-1.8-2.5-3.3-5.5-3.5-8.6
				c-0.2-2.6,0.6-4.6,2.1-6.5c-0.3,0.4,0.3-0.4,0.3-0.4c0.2-0.1,0.3-0.4,0.5-0.5c0.4-0.4,0.9-0.8,1.3-1.1c-0.5,0.3,0.4-0.2,0.4-0.2
				c0.3-0.2,0.6-0.3,0.8-0.5c0.3-0.2,0.6-0.2,0.8-0.4c0.2,0,0.4-0.2,0.6-0.2c-0.3,0.1-0.2,0,0.1,0c2.2-0.6,4.1-0.7,6.1,0
				c4.5,1.5,7.3,6,7.8,10.9c0.1,1,0.1,2.5-0.3,3.8c0,0.3-0.5,1.5-0.7,2.2c-0.3,0.8-0.6,1.4-1,2.2c-1.8,3.1-4.2,5.7-6.6,8.2
				c-1.1,1.2-1.5,2.9-0.3,4.2c1,1.2,3,1.4,4.2,0.3c5.4-4.4,10.9-8.9,16.9-12.4c2.9-1.7,6-3.1,9.3-4.1c2.3-0.6,5.8-1.9,7.5-0.1
				c1.8,1.8,2,4.5,1.6,6.8c-0.3,2.3-1.5,4.7-3.1,6.7c-3.9,4.9-10.8,6.5-16.8,7c-3.2,0.3-6.7,0.3-9.8-0.3c-0.7-0.2-2.7-0.7-3.3-1.1
				c-0.2-0.2-0.6-0.3-0.8-0.5c-0.1-0.1-0.9-0.7-0.7-0.5c-0.5-0.5-0.9-1.1-1.2-1.4c-0.8-1.4-2.5-2.1-4-1.4c-1.4,0.7-2.2,2.6-1.4,4
				c3.6,6.4,11.2,7.5,17.9,7.3c8.1-0.1,17-1.4,23-7.2c5.3-5,8.1-12.9,5.3-19.8c-1.5-3.9-5-6.5-9.1-6.4c-4,0.1-8.3,1.5-11.9,3.1
				c-8.6,3.7-16,9.8-23.2,15.6c1.3,1.5,2.6,3.1,3.9,4.6c5-5.3,10.5-11.4,10.7-19.2c0.2-6.5-2.9-13.5-8.7-16.9
				c-5.7-3.4-12.7-2.6-18.1,1.1c-2.5,1.8-4.6,4.4-5.5,7.3c-1.2,3.9-0.7,8.1,0.8,11.7c1.7,4.3,4.6,7.8,7.6,11c3,3.1,6.3,6.1,8.5,9.8
				c0.9,1.4,2.4,2.2,4,1.4c1.3-0.6,2.3-2.7,1.4-4c-5.4-9.1-17.1-13.6-27.4-10.5c-2.7,0.8-5.5,2-7.5,4c-2.6,2.7-2.6,6.3-1.9,9.7
				c0.7,3.5,2.2,6.8,4.3,9.7c0.9,1.3,2.2,2.4,3.7,2.9c1.9,0.6,3.8,0,5.7-0.6c7.6-2.6,14.9-5.8,21.9-9.7c-1.3-1.5-2.5-2.9-3.8-4.4
				c-3,5.2-4.2,11.5-2.6,17.5c1.5,5.6,5.1,10.6,10.1,13.6c2.9,1.7,6.3,2.9,9.1,0.2c1.9-1.9,2.9-4.6,3.6-7.1c1.2-5,0.7-10.1-1.2-14.8
				c-2.1-5.2-6-9.5-11-12c-1.5-0.7-3.4,0.4-3.8,1.8C203.9,704.2,204.9,705.7,206.3,706.4z"/>
			<path class="st4" d="M574.7,421.8c1.6-2.5,2.7-4.6,3.1-6.1c1-3.5,3.7-7.2,7.4-10.9c-4.5-2.7-9-5.1-13.4-7.3
				c0.1,2.5,0.2,5,0.3,7.6C572.4,411.2,573.3,416.7,574.7,421.8z"/>
			<path class="st4" d="M573.4,389c0.3,0,0.8,0,1.1,0.2c-1-0.7-1.9-1.4-2.8-2c0,0.3,0,0.7,0,1C572.3,388.5,572.9,388.8,573.4,389z"
				/>
			<path class="st4" d="M339.3,385.5c-0.2-1.3,0.5-2.7,1.4-3.5c1.1-0.8,2.4-1.1,3.7-0.6c6.4,2.1,13.1,4.1,19.6,6c2-4,4-8.1,5.9-12.3
				c-20.6-18.5-44.2-40.3-46.4-46.1c-1.4-3.4,0.6-5.3,1.1-5.8c3.2-2.6,6.2-0.2,16.5,7.2c5.8,4.2,19.8,14.6,25.8,15.9
				c-0.8-0.8-1.9-1.6-2.9-2.4c-7.4-6.2-21-17.9-35.4-41.5c-13.3-21.6-27-67.3-36-112.9c-1.6,3.4-3.4,6.7-5.1,10.3
				c-17.4,33.6-12.6,52.7-6.4,76.6c2.6,10.1,5.4,21.5,6.9,34.9c4.5,41.6,33,52.2,34.1,52.7c1.1,0.3,1.9,1.1,2.4,2.2s0.5,2.2,0,3.2
				c-0.2,0.2-5.4,12.3-12.6,28.5c0.2,0,0.5-0.2,0.6-0.2c13-4.2,20-4.2,22.7,0c2.1,3.1,0.8,6.9-6.9,18.9l13.4,2.4
				C340.6,399.8,339.3,385.8,339.3,385.5z"/>
			<path class="st4" d="M378.5,333c-5.8-25.9-43.8-59.5-70.1-110.3c8,31.7,17.7,60,27,75.1c13.8,22.4,26.7,33.6,33.8,39.6
				c5.1,4.3,7.8,6.7,7.4,10.4c-0.5,3.2-3.5,4.8-4.5,5.3c-4.6,2.4-11.5-0.2-20-5.6c6.5,6.1,13.8,12.8,21.1,19.3
				C377.9,354.5,380.6,342.3,378.5,333z"/>
			<path class="st4" d="M681.3,475.9c-3.6-3-7.7-6.4-12.3-10.1c-5-3.4-22.2-15.5-39.3-27.9c-16.5-12-26.4-19.9-32.3-25.3
				c-1.8-1.1-3.5-2.2-5.1-3.2c-3.5,3.2-6.1,6.4-6.9,8.8c-1,3.2-3.6,7.7-7.2,13C598,472.6,659.6,476,681.3,475.9z"/>
			<path class="st4" d="M641.5,250.9c0,4.5-0.2,8.3-0.2,11.1c0,5.8-0.6,12-1.4,18.7c-2.1,18.7-4.8,42.1,4.5,74.6
				c0.5,1.9,1.3,3.8,2.1,5.9c3.5,9.5,8.5,22.6,4.6,55.3l24.8,45c4,3.3,7.9,6.5,11.8,9.8c-7-26.9-43.6-170.4-43.6-232.7
				c0-7.8-0.9-16.9-2.5-26.9C641.9,226.6,641.7,240.6,641.5,250.9z"/>
			<path class="st4" d="M316,369.8c-9.3-4.6-31.5-19.9-35.5-57.7c-1.4-12.8-4-23.5-6.7-33.8c-6.2-24.5-11.7-45.8,7-82.2
				c3.5-6.7,6.7-13.5,9.8-20c-5.9-34.8-8.6-68.4-5.6-89.9c-7,27.3-13.2,57.7-23.2,88.3c-26.3,80.3,20.7,210,29.1,232.2
				c3.8-1.8,7.4-3.4,10.9-4.9C308,387.9,313.5,375.7,316,369.8z"/>
			<path class="st4" d="M581.5,384.9c2.1,1.4,4.2,2.9,5.9,4.2c0.3-2.4,0-8.2-0.2-10.3c-0.6-8.9-6.6-22.6-14.2-36
				c-0.7,10.8-1.3,22.3-1.4,35C575.1,380.4,578.9,383.1,581.5,384.9z"/>
			<path class="st4" d="M401.1,119.8c-4.4,0.8-9.8,1.8-17.3,3.3c-1.2,0.3-2.4,0.5-3.5,0.7c-1.6,7.4-3.4,12.2-3.4,12.2
				S380,127.7,401.1,119.8z"/>
			<path class="st4" d="M442.1,69.3c-0.6,0.8-1.4,1.9-2.6,3.5l-10.6,39.7c4.2-0.8,8.7-1.5,13.6-2.2c0.7-0.1,1.4-0.2,2-0.3
				c-0.4-4-1.4-14.8-1.4-27.6C443.1,75,442.6,71.2,442.1,69.3z"/>
			<path class="st4" d="M440.8,0c-3,7.5-7.6,18.4-13.4,29.2c33.4,12.5,61,32.3,85,52.6c1.2-0.6,2.4-1.3,3.8-1.9
				c25-12.5,38.5,13.2,46.9,52.1c26.2,31.3,49.7,68.7,39,81c-6.2,7.2-5.4,10.1,0.3,26.4c2.4,6.6,5.3,14.7,8.5,25.8
				c10.6,36,17,104.6,10.9,116.6c-2.6,5.1-9.6,10.7-17.6,17.1c-1.8,1.3-3.5,2.7-5.3,4.2c1.1,0.9,2.1,1.8,3.2,2.8
				c18.2,11.7,37.9,26.4,57.6,42l-16-29c-0.5-0.8-0.6-1.6-0.5-2.4c3.8-31.7-0.5-43.4-4-52.9c-0.8-2.2-1.6-4.3-2.2-6.4
				c-9.8-34.1-6.9-59.3-4.8-77.7c0.8-6.7,1.4-12.7,1.4-17.9c0-2.7,0-6.6,0.2-11.2c0.4-21.2,0.9-58.9-2.8-86.3
				c-2.9-10.4-6.2-21.2-9.9-32.1c-2.1-3.8-4.4-7.6-6.4-11.2c-10.3-17.5-21.1-35.6-23.9-67.2c-8.9-19.7-18-38.1-26.8-53.6
				C564,0,440.8,0,440.8,0z"/>
			<path class="st4" d="M307.4,407.5c-0.7,1.6-1.5,3.2-2.2,4.8l14.4,2.6c3.5-5.2,6.6-10.2,8.1-13.1
				C324.1,402,317.3,403.5,307.4,407.5z"/>
			<path class="st4" d="M375.9,67.9c7.1-4.6,13.7-8.2,18.6-10.2c6.9-2.9,14.6-12.5,21.3-24c-4.2-1.3-8.5-2.6-12.8-3.7
				c-16.2-4-17.4-12.8-17-17.8c0.2-2,1.3-6.2,5.8-12.2h-61.3c-0.6,0.4-1.1,0.8-1.6,1.2c-14.4,21.3-27,50.6-34.6,77.3
				c-4.5,15.3-3.7,42.5,0.4,73c6.9-42.7,35.4-80.8,42.2-95.6C345.2,38,365.4,47.5,375.9,67.9z"/>
			<path class="st4" d="M349.2,413c2.9-4.5,6.9-11.1,11.1-18.8c-3.9-1.2-8.1-2.5-12.6-3.9C348.1,395.4,348.7,403.4,349.2,413z"/>
			<path class="st4" d="M397.7,65.1c-4.9,2-11.5,5.5-18.6,10.2c0.4,1,0.7,2,1,3.1c3.7,12.7,3.3,26,1.8,36.7c0.2,0,0.4-0.1,0.5-0.1
				c21-4.2,26.2-4.8,36.6-5.9c0.8-0.2,1.6-0.2,2.6-0.3l10.6-39.1c0.2-0.3,0.3-0.8,0.5-1.1c3.2-5.1,7.2-10.3,12.2-8.8
				c4.8,1.3,6.6,7.4,6.6,22.3c0,10.6,0.8,19.9,1.1,24.7c8.4-0.5,19.2-2.4,30-4.9c6.8-3.4,8.6-7.8,22.5-16
				c-26.1-21.8-51.9-38.8-81.3-49.5C416.1,49.5,407.2,61.2,397.7,65.1z"/>
			<path class="st4" d="M570.7,177.9c1,0.5,1.8,1.4,1.9,2.6c0.2,1.1,0,2.2-0.5,3.2c-0.2,0.3-0.4,0.6-0.7,0.9
				c1.4,11.5,2.7,23.3,3.9,34.8c1.5,14.4,2.2,27.1,2.4,39c7,12.6,7,23.4,4.7,31.5c-1.8,6.5-4.6,17.2-7.5,28.8
				c-0.3,3.4-0.6,6.7-0.8,10.1c11,17.6,20.4,37.1,21.4,49.4c0.4,7.5,0.5,12.8-1.7,16.1c0.5,0.6,1.1,1.1,1.4,1.8
				c1.3-1.1,2.7-2.2,4.2-3.4c6.4-5.1,13.6-10.9,15.4-14.4c3.8-7.7,0-71.4-11.5-110.8c-3.2-10.9-6.1-18.9-8.3-25.5
				c-5.9-16.7-8.3-23.5,1.1-34.4c2.1-2.4,1.3-13.9-16.6-41c-4-6-8.4-12.1-13.2-18.2c1.6,9.4,3,19.3,4.3,29.3
				C570.6,177.8,570.7,177.8,570.7,177.9z"/>
			<path class="st4" d="M394.1,13.2c-0.2,1.4-0.8,6.1,10.9,9c5.1,1.3,10.1,2.7,14.9,4.3c4.9-9.1,9.3-18.7,12.6-26.6h-29.9
				C397.6,5.1,394.6,9.6,394.1,13.2z"/>
			<path class="st3" d="M425.1,116.8c1.6-0.2,2.9-1.3,3.4-2.9l0.4-1.3c-11.6,2.2-20.7,4.7-27.8,7.3c7.7-1.3,12.2-1.8,18.7-2.5
				C421.4,117.2,423.2,117,425.1,116.8z"/>
			<path class="st3" d="M590.4,50.3c0.1,1.1,0.2,2.2,0.3,3.3c11.1,25,21.6,52.1,30.4,78.4c1.2,2.1,2.3,4.2,3.4,6.4
				c3,6,5,15.1,6.5,25.7c4.8,17.1,8.5,33.2,10.8,47.5c-0.5-28.9-2.7-61.2-10.2-76.4c-3.2-6.4-6.7-12.3-10.1-18.1
				c-10.5-18.1-20.6-35.3-23-67c-1.4-16.1-8.4-33.9-19-50.1h-9.1C581.9,16.3,589.3,34.7,590.4,50.3z"/>
			<path class="st3" d="M537.7,104.7c-1.8-4.7-3.5-9-5.6-13c-0.8-1.8-2.9-2.7-4.8-2.1c0,0-1.8,0.6-4.5,1.4c-3.4-3-6.9-6.1-10.5-9.1
				c-2.7,1.4-5.1,2.8-7.2,4c3,2.5,6.1,5.1,9.1,7.8c-8.5,2.5-20,5.6-31.6,8.2c-5.7,2.9-15.1,5-38.1,8.2c0.1,1,0.2,1.6,0.2,1.7
				c0.3,2.1,1.9,3.5,4,3.5c19.8,0,55.7-10.1,72.3-15.1c2.1,1.9,4.4,3.8,6.6,5.9c1.2,0.9,2.3,1.9,3.4,3c2.5,7.1,4.8,14.4,7,21.8
				c6.6,21.4,12.8,41.8,24.8,51.4c-1.6,1.5-3.5,3.2-5.4,5c-9.5,8.3-22.3,19.7-21.8,32.2c0.3,6.1,3.7,11.7,10.1,16.5
				c16.4,12.1,34.6,31,29,51.7c-1.9,6.9-4.8,18.1-7.8,30c-7.7-11.2-15.5-20.7-20.8-25.5c-10.4-9.3-28,6.7-50.1,26.9
				c-15.2,14-32.6,29.8-44.8,33.2c-23.9,6.6-37-7.3-62.9-34.9c-2.7-2.9-5.6-6-8.5-9C350,277.2,338,167.5,336.1,131.5
				c-0.8-14.4,10.7-29.7,24.5-42c2.6,6-0.5,21.5-3.8,31.7c-0.3,1.1-0.2,2.2,0.3,3.2c1.5,2.7,4.7,2.4,7.7,2.1
				c3.3-0.4,8.5-1.3,15.5-2.7c0.6-2.6,1.1-5.6,1.6-8.8c-7.9,1.5-12.7,2.3-15.7,2.8c2.4-8.9,5.6-25.3,0.5-33.6
				c4.2-3.3,8.4-6.3,12.4-9c-0.9-2.6-2-5.1-3.2-7.4c-5.1,3.4-10.5,7.3-15.8,11.7c-3.4-0.8-7.4,0-12.2,2.2
				c-20.5,9.6-32.9,38.1-47.5,71.1c-1.5,3.3-2.8,6.3-4.2,9.5c-0.6-3.6-1.1-7.2-1.5-10.8c-2.8,17.5-2,35.7,5.4,53.4
				c2.6,6.2,5.4,12.1,8.3,17.8c-3.8-15-7.1-30.7-9.8-46.2c3.2-6.9,6.2-13.8,9.1-20.5c12.9-29.5,24.3-55,40.3-65.1
				c-11.8,12.5-20.6,26.9-19.8,41.2c0.2,1.4,8.5,142.6,46.4,181.8c2.9,3,5.6,5.9,8.3,8.8c26.2,28,42.2,44.8,70.7,37
				c14.1-3.8,31.4-19.7,48-34.9c14.3-13.2,34.2-31.3,39.3-26.8c5.7,5.3,14.9,16.9,23.5,30c-4.2,16.7-8,32.7-8.8,38.6
				c-1,7.3,7,14.1,16.1,20.7c0-3.2,0-6.4,0-9.5c-4.7-3.7-8.8-7.7-8.5-9.9c0.8-4.7,3.5-16.7,6.9-30.3c1,1.7,2,3.4,3,5.2
				c0.3-4.7,0.7-9.4,1-13.9c-0.4-0.7-0.8-1.3-1.2-2c0.7-2.7,1.4-5.5,2.1-8.2c1.6-19.5,3.2-38.3,2.8-60.4c-5-8.9-13.4-18.6-27.1-28.9
				c-4.5-3.4-6.7-6.7-6.9-10.4c-0.4-8.8,10.8-18.7,19-25.9c3.8-3.3,6.8-6.1,8.7-8.6c-0.3-2.3-0.6-4.6-0.9-6.8
				c-11.8-6.5-18.5-28.4-24.9-49.4c-0.8-2.1-1.5-4.4-2.1-6.6c7.7,8.4,15.5,17.5,22.6,26.7c-1-5.7-2-11.2-3.2-16.4
				C554.6,121.9,545.8,112.4,537.7,104.7z"/>
			<path class="st3" d="M681.3,475.9c1.1,0.9,2.1,1.8,3.1,2.6l5,4.2c31.5,26.1,60.3,62.9,36.9,199.7c-4.6,26.9-8.8,53.5-12.8,79.1
				c-15.6,99.1-29.1,184.8-55.3,223.6c-11.6,17-14.9,31.2-17.8,42.6c-5.3,21.5-7.4,30.3-61.9,29.3c-2.7-0.2-5.4-0.2-8-0.2
				c-18.1-9.5-41.4-20.8-60.2-26.9c-21.6-7.2-85.1-19.1-104.1-22.6c-15.6-2.9-62.2-11.3-78.5-12.7c1.4-6.9,6.6-23.2,11.2-38.3
				c22-5.6,50.9-16.9,66.1-23.1c41.8-17,103.1-10.9,103.7-10.9c1.8,0.1,3.7-1.1,4.2-2.9c1.3-4.4,20-66.2,35.3-119.8
				c1.4-0.9,2.9-1.7,4.3-2.7c8.5-5.1,16-9,22.6-12.5c24.2-12.6,36.4-18.9,32.2-50.6c-1.7-13.4-6.2-24.8-10.2-34.9
				c-2-4.5-3.6-8.8-5-13c3.7-4.4,7.6-9.3,11.4-13.9c20-24.5,38.8-47.6,40.6-62c3.2-26,0.2-45.2,0-46c-0.3-1.6-1.6-2.9-3.2-3.2
				c-1.6-0.3-3.4,0.4-4.2,1.8c-0.2,0.4-29,46.9-48,80.2c-9.1,15.9-8.8,29-5.4,41.5c-12,15.2-20.9,28.2-22.2,36.8
				c-1.3,8.3-9.8,39-19.7,73.8c-22.9,16.2-34.9,36.7-43.2,50.8c-4.1,6.9-7.7,13-10.7,15.2c-5.9,4.4-19.6,1-42.2-4.6
				c-12.1-3-27.1-6.7-45.7-10.4c-16.5-3.2-39.4-4.2-67.7-3.2c-18.7,0.4-39.2,1.9-60.3,3.8c2.9-6.9,4.5-11.2,4.5-11.4
				c0.5-1.1,0.3-2.6-0.5-3.7c-0.8-1.1-2-1.6-3.4-1.6l-63.2,3c-0.8-15-5.4-66.4-30.2-83.9l-5.4-3.8c-27.6-19.7-56.4-40.2-76.1-35.2
				c-7.4,1.8-11.8,5.1-13.6,10.1c-0.6,1.9-0.8,3.8-0.6,5.6c-1.4-0.5-2.9-1.1-4.3-1.6c16.2-34.1,28.8-58.2,32.2-62
				c4.3-4.8,11.8-24.2,25.9-60.9c20-52,50.2-130.7,67.8-143.5c17.2-12.4,31-17.7,45.4-23.5c9.1-3.5,18.6-7.4,29.3-13
				c6.3-3.2,11.9-6.1,17-8.3c-3.2,6.9-6.4,14-9.6,20.7c-14.9,31.5-0.9,73.4-0.2,75.1c0.7,1.7,2.4,2.9,4.2,2.7
				c1.7-0.3,3.2-1.7,3.5-3.5c0.2-0.9,3.2-24.3,3.2-38.9c0-6.8,13.6-26.9,22.7-40.4c3.2-4.7,5.8-8.6,8-11.9l-8.6-1.6
				c-1.9,2.8-3.8,5.7-5.7,8.4c-14.1,20.9-24.2,36.4-24.2,44.9c0,3.8-0.3,8.7-0.6,13.3c-1.7-13.7-1.7-30.9,5-45.3
				c3.7-7.7,7.5-16,11.1-23.9l-13-2.4c0,0-0.5-1.2-1.3-3.3c-4.8,2.2-9.7,4.6-14.7,7.3c-10.3,5.5-19.5,9.2-28.5,12.7
				c-14.9,5.9-29.1,11.4-47.2,24.5c-19.7,14.1-48,87.9-70.7,147.2c-10.9,28.1-21,54.5-24.5,58.5c-4.2,4.7-17.6,30.9-33.8,64.9
				c-7.7-2.1-15.3-3-19.5-0.3c-2.4,1.5-3.7,3.9-3.7,6.9c0,7.1,3.1,13.3,6.1,17.8c-8.5-0.1-17.6,0.8-20.3,5.3
				c-0.8,1.4-1.8,4.1,0.6,7.8c1.9,2.8,7.1,8,13.3,13.9c-1.2,2.5-2.3,4.9-3.4,7.5c-3.5-0.6-4.6,0.3-5.4,0.8c-1.6,1.1-2.4,3-1.9,5.1
				c0.3,1.5,1.1,3.4,2.2,5.8C19.7,838.2,2.6,882,0.5,899.1c-4.8,40.5,23.8,80.7,43,96.4c17,13.9,97,4.1,117.6,1.4
				c1.2,7,3.9,22.2,7.4,36.5c3.7,14.4-4.6,39.9-7.5,46h8.3c0,0,12.1-27.4,7-47.9c-4.8-18.9-8-39.5-8-39.7c-0.3-2.3-2.3-3.7-4.5-3.4
				c-38.4,5.4-103.5,10.4-115.3,0.8c-17.9-14.8-44.6-51.9-40.1-89.4C10,885.9,23.1,850,44.2,801c8.5,14.4,22.7,34.3,32.3,45
				c2.6,2.9,1.8,5.2-1.1,9.8c-1.8,2.9-4,6.6-1.8,10.1c3,4.6,9.9,6.4,60.6,2.2c22.7-1.9,47-4.5,70.5-6.9c18.4-1.9,36.8-3.8,55-5.6
				c-5.5,12.3-13.1,28.1-22.1,43.2c-2.5,4-4.8,7.5-6.7,10.7c-14.4,22.9-16.5,27.8-6.6,67.4c7.2,28.8,48.4,36.2,92.1,44
				c30.7,5.5,62.5,11.2,85.9,24.2c20,11.2,37.7,17.4,57.1,20c17.9,2.4,35.8,1.8,58.5,0.8c14.7-0.6,31.1-1.3,50.5-1.1
				c14.7,7.7,26.4,14.6,26.4,14.6l14.6-0.1c0,0-18.1-10.8-23.7-13.8c51.4,0,56.5-11.2,62.4-35.4c2.5-10.7,5.9-24.1,16.6-40
				c27.2-40.4,40.8-126.9,56.6-227c4-25.7,8.2-52.1,12.8-79c10.4-61.7,11.4-107.8,2.9-141.3c-8.6-34.3-26.4-52.5-42.7-66l-5-4.2
				c-0.5-0.4-1-0.9-1.6-1.3c0.7,2.8,1.2,4.4,1.2,4.4S686.1,475.8,681.3,475.9z M596.1,646.4c13.5-23.7,32.1-54.3,41.7-69.8
				c0.5,7.8,0.7,19.2-1,32.2c-1.6,12.1-21.5,36.3-38.9,57.8c-2.7,3.2-5.3,6.3-7.7,9.3C588.7,666.7,589.9,657.5,596.1,646.4z
				 M569.6,721.8c0.9-6.1,8.1-16.8,17.4-28.8c0.9,2.9,2,5.6,3.2,8.6c4,10.1,8.2,20.3,9.8,33c3.6,26.1-4.4,30.3-27.8,42.6
				c-5.9,3.1-12.5,6.6-20,10.9C561.1,756.7,568.5,729.8,569.6,721.8z M398.4,853.2c18.4,3.7,33.4,7.4,45.4,10.4
				c26.4,6.6,39.8,9.8,48.8,3.4c4.4-3.2,8.2-9.6,13-17.8c7.2-12.3,16.5-28,32.5-41.8c-13.1,45.5-27.7,93.9-31.5,106.4
				c-13.6-0.9-65.7-3.8-104.1,11.9c-26.4,10.8-46.2,17.5-60.3,21.5c12.7-40.9,21.8-72.6,21-83.8c-0.3-4.4-1.3-10.4-5.9-13
				c-0.5-0.1-1.1-0.4-1.6-0.6C372.9,850,387.2,851.1,398.4,853.2z M353.3,857.6c0.1,0,1.4,1,1.9,6.6c0.9,10.9-12.2,53.3-22.1,85.5
				c-9.2,2.2-14.7,2.5-16.6,1.9c-1.9-7.4-1.8-59.5,7.6-78.9c1.9-4,3.4-4.8,4-5c5-1.4,9.6-3.8,13.8-5.9
				C345.9,859.7,351.7,856.8,353.3,857.6z M56.1,727.5c1.4-1,5.9-0.5,11.8,1c-2.1,4.5-4.3,9-6.4,13.6c-2.7-3.5-5.4-8.6-5.4-14.4
				V727.5L56.1,727.5z M41.3,754.7c2.4-0.8,8.4-1.3,14.9-1.1c-1.7,3.7-3.3,7.4-5.1,11.2C46.4,760.5,42.9,756.9,41.3,754.7z
				 M63.1,786.7c-4.4-2.1-8.1-3.5-11-4.5c0.6-1.4,1.1-2.7,1.6-3.8C56.9,781.1,59.9,784,63.1,786.7z M203.7,852.8
				c-23.5,2.4-47.8,5-70.4,6.9c-11.4,1-44.8,3.9-52.3,1.8c0.3-0.6,0.7-1.3,1.1-2.2c2.4-4,7.1-11.7,0.2-19.4
				c-11.7-12.8-27.7-36.2-34.4-48.7c0.4-0.7,0.7-1.5,1-2.1c9.1,3.2,25.6,11.1,39.7,18.6c1.9,0.9,4.2,0.5,5.3-1.3
				c1.1-1.8,0.8-4-0.8-5.3c-7.8-6.4-23.5-19.8-35.8-30.9c0.2,0,0.2-0.2,0.2-0.2c2.5-5.6,5.1-11.1,7.5-16.5c1-0.3,1.6-1.1,2.1-2.1
				c0.5-0.8,0.5-1.7,0.2-2.7c2.9-6.2,5.8-12.3,8.5-18.1c4.2,1.5,8.8,3.2,13.3,5.3c1.8,0.8,3.7,0.3,4.8-1.1c1.1-1.5,1.1-3.6,0-5
				c-0.9-1.1-3.2-4.9-2.2-7.8c1-2.8,5-4.2,8-5c16.2-4,45.8,17,69.6,34l5.4,3.8c25.1,17.8,27,81.1,27,81.7c0,1.1,0.5,2.1,1.3,2.9
				c0.8,0.8,1.8,1.1,2.9,1.1l61.1-2.9c-0.9,2.6-2.2,5.6-3.8,9.3C243.5,848.6,223.5,850.7,203.7,852.8z M517.5,1057.7
				c-44.2,1.8-70.9,2.9-111.5-19.7c-24.5-13.6-56.9-19.5-88.3-25.1c-41.1-7.4-79.8-14.3-85.7-38c-9.3-37.4-7.7-40.2,5.6-61.3
				c1.9-3.2,4.1-6.7,6.7-10.9c10.1-17,18.5-35.1,24.3-48.2c22.6-2.1,44.4-3.7,64.4-4.3c5.7-0.1,11.3-0.3,16.6-0.3
				c-3.4,0.8-7.1,2.5-10.9,4.6c-4,2-8.1,4.1-12.3,5.4c-3.7,1.1-6.5,4.2-9.1,9.3c-10.1,20.7-11.4,77.2-8,85.7
				c0.4,1.2,1.4,2.8,3.8,3.8c3.3,1.4,9.6,0.9,17.4-0.5c-12.3,39.9-12,40.4-9.4,42.8c0.9,0.9,2.4,1.4,3.8,1.1c0,0,0,0,0.2,0
				c11.5,0,150,24,183.3,35.1c13.2,4.5,29.7,12,44.6,19.4C539.9,1056.7,528.2,1057.2,517.5,1057.7z M324.5,994.5
				c-0.8,0-1.3,0-1.6,0.2c0.3-0.2,0.8-0.2,1.1-0.2C324.1,994.5,324.3,994.5,324.5,994.5z"/>
			<path class="st3" d="M522.5,381c-16.8,8.5-33.5,11.7-44.5,13.8c-10.8,2.1-16.1,3.1-17.4,7.7c-1.1,3.9,2.3,6.7,3.4,7.7
				c7.5,6.5,24.4,2.4,51.3-4.6c16.5-4.3,33.6-8.8,45.6-8.8c3.9,0,7.2,0.1,10.1,0.3c0.3,0.1,0.6,0.3,0.8,0.4
				c-0.1-3.2-0.1-6.3-0.2-9.4C551.5,378.7,534.4,375.1,522.5,381z M552.2,389.5c-11.7,1.3-25.6,5-39.2,8.5
				c-15.5,4.2-36.6,9.6-43,6.9c2.4-0.7,5.9-1.3,9.1-2c11.5-2.2,28.7-5.6,46.5-14.4C532.2,385.2,541.5,386,552.2,389.5z"/>
			<path class="st3" d="M328.9,1.2c0.3-0.4,0.6-0.8,0.8-1.2h-9c-14.4,22.2-26.5,51.2-33.8,76.8c-0.8,2.8-1.4,5.9-1.9,9.4
				C294.4,50,305.3,19.4,328.9,1.2z"/>
			<path class="st3" d="M364,387.4c-1.2,2.4-2.4,4.7-3.7,6.9c45,13.7,46.5,11.1,48,8.4c0.4-0.8,1.6-3.5-1.8-6.4
				c-6-5.1-19.4-16.8-33.3-29.4c-1,2.7-2.1,5.5-3.3,8.2c8.9,8,17.3,15.3,23.2,20.4C385.6,393.6,375.1,390.7,364,387.4z"/>
			<path class="st3" d="M537.8,477.9c-4,10.9-7.2,25.3-9.3,34.9c-14.9-25.3-54.5-89.5-77.1-95.1l-4-1c-13.3-3.3-21.5-5.4-27.7-1.4
				c-5.6,3.7-8,11.2-9.9,21.6c-5,26.4-20,67.1-31.7,91.9c-2.9,6.1-5.4,12.2-7.5,18.3c-10.9-23.6-21-48.4-20.2-67.6
				c0.9-22.2-0.1-47.5-1.2-66.4c-2.6,4.1-4.3,6.5-4.3,6.5l-3.3-0.6c1,18.1,1.7,40.7,0.9,60.5c-0.9,23.2,12,52.4,24.5,79.1
				c-5.8,18.9-8.8,37.6-11.7,54.9c-1.3,7.8-2.2,15.2-3.2,22.4c-0.5,4.2-1.1,8.2-1.6,12c-9.6,6.7-18.8,14.1-25,23.2
				c-11.5,17-7.4,28.2-0.8,45.2c0.1,0.3,0.1,0.5,0.3,0.8c-4.8,10.7-8.8,22.6-11.4,38.9c-4.8,30.6-1.8,65.2-1.6,66.6
				c0.2,2.1,1.9,3.7,4,3.7h27.2c0.8,0,1.8-0.3,2.4-0.8c5.4-4,5.4-26.4,0-63.1c-3-20.1-8-34.5-12-45.2c2.4-5.3,4.9-10.3,7.8-15.7
				c1.6-3.2,3.5-6.7,5.3-10.4c6.2-12.4,9.1-25.3,11.2-38.8c1.7-1.1,3.3-2.4,5.1-3.5c16.5-11.4,32.2-22.1,32.2-38
				c0-11.1-8.3-28.8-18.1-49.5c-0.7-1.1-1.2-2.2-1.8-3.5c2.6-8.5,5.8-16.8,9.8-25.3c12.1-26,27.2-66.5,32.3-93.9
				c1.8-9.6,3.7-14.5,6.4-16.3c3.5-2.1,10.5-0.3,21.4,2.4l4.2,1c19.5,5,62.5,74.3,77.4,100.6c0.8,1.4,2.6,2.1,4.2,1.9
				s2.9-1.6,3.2-3.2c0-0.3,4.8-27.1,11-44.2c3.2-8.8,13.4-22.7,22.4-34.9c4-5.3,7.6-10.3,10.6-14.8c-1.4-2.9-2.6-6-3.5-9.3
				c-3.2,5.2-8.4,12.2-13.4,19C551.6,454.2,541.5,468,537.8,477.9z M337.7,763.5c5.6,37.8,4,50.8,3,54.6h-21c-0.7-9.6-1.9-37,1.9-61
				c1.9-11.7,4.5-20.9,7.5-29.2C332.3,737.4,335.5,748.8,337.7,763.5z M339.5,687.6c-1.8,3.7-3.5,7-5.3,10.4c-1.6,3.1-3.2,6-4.6,9
				c-4.5-12.5-5.6-19.7,2.4-31.4c4.1-6.1,10-11.5,16.6-16.5C346.9,669,344.1,678.4,339.5,687.6z M387.3,610.7
				c0,11.4-13.4,20.9-27.8,30.8c0.1-1.6,0.4-3.2,0.6-4.8c0.8-7,1.7-14.4,3-22.1c2.6-14.8,5-30,9-45.2
				C380.1,586.5,387.2,602.4,387.3,610.7z"/>
			<path class="st3" d="M344.4,381.4c-1.3-0.5-2.6-0.2-3.7,0.6c-0.9,0.8-1.6,2.2-1.4,3.5c0,0.3,1.3,14.4,2.3,33.5l3.3,0.6
				c0,0,1.7-2.4,4.3-6.5c-0.5-9.6-1.1-17.6-1.5-22.7c4.5,1.4,8.7,2.7,12.6,3.9c1.2-2.2,2.4-4.5,3.7-6.9
				C357.6,385.5,350.9,383.4,344.4,381.4z"/>
			<path class="st3" d="M451.5,82c0-14.9-1.8-21-6.6-22.3c-5-1.5-9,3.7-12.2,8.8c-0.2,0.3-0.3,0.8-0.5,1.1l-10.6,39.1
				c-1,0.1-1.8,0.1-2.6,0.3c-10.4,1.1-15.6,1.7-36.6,5.9c-0.2,0-0.4,0.1-0.5,0.1c-0.5,3.2-1,6.2-1.6,8.8c1.1-0.2,2.3-0.5,3.5-0.7
				c7.5-1.5,12.9-2.6,17.3-3.3c7.1-2.6,16.1-5.2,27.8-7.3l10.6-39.7c1.2-1.6,2-2.7,2.6-3.5c0.5,1.9,1,5.7,1,13.1
				c0,12.8,1,23.6,1.4,27.6c23-3.2,32.4-5.3,38.1-8.2c-10.8,2.4-21.6,4.4-30,4.9C452.3,102,451.5,92.7,451.5,82z"/>
			<path class="st3" d="M305.2,412.3c0.7-1.6,1.5-3.2,2.2-4.8c9.9-4,16.7-5.6,20.3-5.7c-1.5,2.9-4.6,7.9-8.1,13.1l8.6,1.6
				c7.7-11.9,9-15.7,6.9-18.9c-2.7-4.2-9.7-4.2-22.7,0c-0.1,0-0.4,0.2-0.6,0.2c7.2-16.2,12.4-28.3,12.6-28.5c0.5-1,0.5-2.1,0-3.2
				s-1.3-1.9-2.4-2.2c-1.1-0.5-29.6-11.1-34.1-52.7c-1.5-13.4-4.3-24.8-6.9-34.9c-6.2-23.9-11-43,6.4-76.6c1.7-3.6,3.5-6.9,5.1-10.3
				c9,45.6,22.7,91.3,36,112.9c14.4,23.6,28,35.3,35.4,41.5c1,0.8,2.1,1.6,2.9,2.4c-6-1.3-20-11.7-25.8-15.9
				c-10.3-7.4-13.3-9.8-16.5-7.2c-0.5,0.5-2.5,2.4-1.1,5.8c2.2,5.7,25.8,27.6,46.4,46.1c1.2-2.7,2.3-5.4,3.3-8.2
				c-7.2-6.5-14.6-13.2-21.1-19.3c8.5,5.4,15.4,8,20,5.6c1-0.5,4-2.1,4.5-5.3c0.4-3.7-2.3-6.1-7.4-10.4c-7.1-6-20-17.2-33.8-39.6
				c-9.2-15.2-19-43.4-27-75.1c-2.9-5.7-5.8-11.6-8.3-17.8c-7.4-17.7-8.2-35.9-5.4-53.4c-4-30.5-4.8-57.7-0.4-73
				c7.6-26.7,20.2-56,34.6-77.3C305.3,19.4,294.4,50,285,86.1c-3,21.5-0.4,55.1,5.6,89.9c-3.1,6.5-6.3,13.3-9.8,20
				c-18.7,36.4-13.2,57.7-7,82.2c2.7,10.3,5.3,21,6.7,33.8c4,37.8,26.2,53.1,35.5,57.7c-2.5,5.9-8,18.1-14.2,32
				c-3.5,1.5-7.1,3.1-10.9,4.9c0.8,2.1,1.3,3.3,1.3,3.3L305.2,412.3z"/>
			<path class="st3" d="M633.7,250.5c-0.2,4.6-0.2,8.5-0.2,11.2c0,5.2-0.6,11.2-1.4,17.9c-2.1,18.4-5,43.6,4.8,77.7
				c0.6,2.1,1.4,4.2,2.2,6.4c3.5,9.5,7.8,21.2,4,52.9c-0.1,0.8,0,1.6,0.5,2.4l16,29c-19.7-15.6-39.4-30.3-57.6-42
				c-1.1-1-2.1-1.9-3.2-2.8c1.8-1.5,3.5-2.9,5.3-4.2c8-6.4,15-12,17.6-17.1c6.1-12-0.3-80.6-10.9-116.6c-3.2-11.1-6.1-19.2-8.5-25.8
				c-5.7-16.3-6.5-19.2-0.3-26.4c10.7-12.3-12.7-49.8-39-81c1.1,5.2,2.2,10.7,3.2,16.4c4.8,6.1,9.2,12.3,13.2,18.2
				c17.9,27.1,18.7,38.6,16.6,41c-9.4,10.9-7,17.7-1.1,34.4c2.2,6.6,5.1,14.6,8.3,25.5c11.5,39.4,15.3,103.1,11.5,110.8
				c-1.8,3.5-9,9.3-15.4,14.4c-1.5,1.2-2.9,2.3-4.2,3.4c-0.3-0.7-0.9-1.2-1.4-1.8c2.2-3.3,2.1-8.6,1.7-16.1
				c-1-12.3-10.4-31.8-21.4-49.4c-0.4,4.5-0.7,9.2-1,13.9c7.6,13.4,13.6,27.1,14.2,36c0.2,2.1,0.5,7.9,0.2,10.3
				c-1.7-1.3-3.8-2.8-5.9-4.2c-2.6-1.8-6.4-4.4-9.9-7.1c0,3.1,0,6.3,0,9.5c0.9,0.7,1.9,1.4,2.8,2c-0.3-0.2-0.8-0.2-1.1-0.2
				c-0.6-0.3-1.2-0.6-1.7-0.8c0,3,0.1,6.2,0.2,9.4c4.3,2.2,8.8,4.5,13.4,7.3c-3.7,3.7-6.4,7.4-7.4,10.9c-0.4,1.4-1.5,3.5-3.1,6.1
				c0.9,3.3,2.1,6.4,3.5,9.3c3.6-5.3,6.2-9.7,7.2-13c0.8-2.4,3.4-5.6,6.9-8.8c1.6,1,3.3,2.1,5.1,3.2c5.9,5.4,15.8,13.3,32.3,25.3
				c17.1,12.4,34.3,24.5,39.3,27.9c4.6,3.8,8.7,7.2,12.3,10.1c4.8,0,7.6-0.2,7.6-0.2s-0.4-1.5-1.2-4.4c-3.9-3.3-7.9-6.5-11.8-9.8
				l-24.8-45c3.9-32.7-1.1-45.8-4.6-55.3c-0.8-2.1-1.6-4-2.1-5.9c-9.3-32.5-6.6-55.9-4.5-74.6c0.8-6.7,1.4-12.9,1.4-18.7
				c0-2.8,0.2-6.6,0.2-11.1c0.2-10.3,0.4-24.3,0.1-39.2c-2.3-14.2-6-30.4-10.8-47.5C634.6,191.6,634.1,229.2,633.7,250.5z"/>
			<path class="st3" d="M572.6,180.5c-0.1-1.2-0.9-2.1-1.9-2.6l-0.1-0.1c0.3,2.3,0.6,4.5,0.9,6.8c0.2-0.3,0.5-0.6,0.7-0.9
				C572.6,182.7,572.8,181.5,572.6,180.5z"/>
			<path class="st3" d="M621.1,132.1c-8.7-26.3-19.3-53.5-30.4-78.4c2.9,31.6,13.6,49.7,23.9,67.2
				C616.7,124.5,618.9,128.2,621.1,132.1z"/>
			<path class="st3" d="M403,30c4.3,1.1,8.6,2.4,12.8,3.7c-6.7,11.5-14.4,21.1-21.3,24c-4.9,2-11.5,5.6-18.6,10.2
				c1.2,2.3,2.3,4.8,3.2,7.4c7.1-4.7,13.7-8.3,18.6-10.2c9.5-3.9,18.4-15.6,26.1-28.7c29.4,10.8,55.2,27.7,81.3,49.5
				c2.1-1.2,4.5-2.6,7.2-4c-24-20.3-51.6-40.1-85-52.6c5.8-10.8,10.4-21.8,13.4-29.2h-8.2c-3.2,7.9-7.6,17.5-12.6,26.6
				c-4.8-1.6-9.8-3-14.9-4.3c-11.7-2.9-11.1-7.6-10.9-9c0.5-3.6,3.5-8.2,8.5-13.2h-10.8c-4.5,6-5.6,10.2-5.8,12.2
				C385.6,17.2,386.8,26,403,30z"/>
			<path class="st3" d="M577.7,258.3c0.3,22.1-1.2,40.9-2.8,60.4c3-11.6,5.7-22.3,7.5-28.8C584.7,281.8,584.8,270.9,577.7,258.3z"/>
		</g>
	</g>
</g>
</svg>
