<?xml version="1.0" encoding="utf-8"?>
<!-- Generator: Adobe Illustrator 25.2.1, SVG Export Plug-In . SVG Version: 6.00 Build 0)  -->
<svg version="1.1" id="Layer_1" xmlns="http://www.w3.org/2000/svg" xmlns:xlink="http://www.w3.org/1999/xlink" x="0px" y="0px"
	 viewBox="0 0 611.4 1127.5" style="enable-background:new 0 0 611.4 1127.5;" xml:space="preserve">
<style type="text/css">
	.st0{fill:none;}
	.st1{fill:#FFFFFF;}
	.st2{fill:#60EFDE;}
	.st3{fill:#330033;}
	.st4{fill:#FFE9C2;}
</style>
<g>
	<path class="st0" d="M389.6,3.5c0.6-1,1.4-2.1,2.2-3.3h10.5c0.1-0.1,0.1-0.1,0.2-0.2h-10.7c-0.9,1.2-1.7,2.4-2.4,3.5
		C389.5,3.5,389.5,3.5,389.6,3.5z"/>
	<path class="st0" d="M288,311.3c-1.5-13.4-4.3-24.8-6.9-34.9c-6.2-23.9-11-43,6.4-76.6c0.1-0.3,0.3-0.6,0.4-0.8c0-0.1,0-0.2,0-0.3
		c-0.2,0.3-0.3,0.7-0.5,1c-17.4,33.6-12.6,52.7-6.4,76.6c2.6,10.1,5.4,21.5,6.9,34.9c1.1,10.4,3.7,18.8,7,25.6c0,0,0-0.1,0-0.1
		C291.7,329.9,289.1,321.6,288,311.3z"/>
	<path class="st0" d="M611.4,98.7V0h-31.9c10.6,16.2,17.6,34,19,50.1C600.1,71.2,605.1,85.9,611.4,98.7z"/>
	<path class="st0" d="M590.4,50.3c-1.1-15.6-8.5-34-20-50.3H564c8.8,15.4,17.8,33.7,26.7,53.3C590.6,52.3,590.5,51.3,590.4,50.3z"/>
	<path class="st0" d="M429.7,6.7c1-2.3,1.9-4.5,2.8-6.6h8.2c-1.2,3-2.7,6.7-4.5,10.7c0,0,0,0,0.1,0c1.8-4,3.3-7.7,4.5-10.8h-8.3
		c-0.9,2.1-1.8,4.3-2.9,6.6C429.6,6.7,429.7,6.7,429.7,6.7z"/>
	<path class="st0" d="M211.4,495.4c11.6,0,43.2-16,68.6-30.3c0.2-10.5,2.1-21.6,6.8-31.6c3.2-6.7,6.4-13.8,9.6-20.7
		c-5.1,2.2-10.7,5.1-17,8.3c-10.7,5.6-20.2,9.5-29.3,13c-14.4,5.8-28.2,11.1-45.4,23.5c-17.6,12.8-47.8,91.5-67.8,143.5
		c-14.1,36.7-21.6,56.1-25.9,60.9c-3.4,3.8-16,27.9-32.2,62c1.4,0.5,2.9,1.1,4.3,1.6c-0.2-1.8,0-3.7,0.6-5.6
		c1.8-5,6.2-8.3,13.6-10.1c2.7-0.7,5.6-0.9,8.6-0.7l64.8-147.8C177.8,539.4,195.8,495.4,211.4,495.4z"/>
	<path class="st0" d="M38.2,863.9l18.9-43.1C52.3,814,47.7,807,44.2,801C23.1,850,10,885.9,8.4,899.8c-1.9,15.8,1.8,31.6,8,45.7
		c-0.8-4.1-1.4-7.9-1.9-11.3C10.9,910.8,28.8,877.6,38.2,863.9z"/>
	<path class="st0" d="M302.4,440.9c-0.5-6-0.9-12.4-1.4-19.1c-2.3,4.9-4.6,9.8-6.8,14.5c-3.5,7.5-5.2,15.9-5.7,24
		c1.5-0.8,2.9-1.7,4.3-2.5C294.9,453,298.2,447.4,302.4,440.9z"/>
	<path class="st0" d="M559.9,128.3c1,1.2,2.1,2.4,3.1,3.7c0,0,0,0.1,0,0.1c26.3,31.2,49.7,68.7,39,81c-6.2,7.2-5.4,10.1,0.3,26.4
		c2.4,6.6,5.3,14.7,8.5,25.8c0.2,0.7,0.4,1.4,0.6,2.1V267c-0.2-0.6-0.3-1.2-0.5-1.8c-3.2-11.1-6.1-19.2-8.5-25.8
		c-5.7-16.3-6.5-19.2-0.3-26.4c10.7-12.3-12.8-49.7-39-81c-8.2-37.9-21.2-63.3-45-53c6,4.6,12.3,9.2,18.8,13.7
		C544.5,98,552.3,110.6,559.9,128.3z"/>
	<path class="st0" d="M273.8,278.2c-3.1-12.2-6-23.6-5.8-36.5C267.8,254.6,270.7,266,273.8,278.2c2.7,10.4,5.3,21.1,6.7,33.9
		c2,18.7,8.4,31.9,15.5,41c0,0,0-0.1,0-0.1c-7.1-9.1-13.5-22.3-15.5-41C279.1,299.2,276.5,288.5,273.8,278.2z"/>
	<path class="st0" d="M293.5,142.6c0-0.1,0-0.1,0-0.2c-3.1-26.8-3.3-50.1,0.7-63.9c7.6-26.7,20.2-56,34.6-77.3
		c-0.1,0.1-0.1,0.1-0.2,0.2c-14.4,21.3-26.9,50.5-34.5,77.1C290.2,92.3,290.5,115.8,293.5,142.6z"/>
	<path class="st0" d="M52.1,782.2c2.9,1,6.6,2.4,11,4.5c-3.2-2.7-6.2-5.6-9.4-8.3C53.2,779.5,52.7,780.8,52.1,782.2z"/>
	<path class="st0" d="M56.2,753.6c-6.5-0.2-12.5,0.3-14.9,1.1c1.6,2.2,5.1,5.8,9.8,10.1C52.9,761,54.5,757.3,56.2,753.6z"/>
	<path class="st0" d="M67.9,728.5c-5.9-1.5-10.4-2-11.8-1v0.2c0,5.8,2.7,10.9,5.4,14.4C63.6,737.5,65.8,733,67.9,728.5z"/>
	<path class="st0" d="M590.8,53.9c0,0,0,0.1,0,0.1c3.7,8.4,7.4,17.1,11,25.9C598.3,71.1,594.6,62.4,590.8,53.9z"/>
	<path class="st0" d="M99.7,717c-3,0.8-7,2.2-8,5c-1,2.9,1.3,6.7,2.2,7.8c1.1,1.4,1.1,3.5,0,5c-1.1,1.4-3,1.9-4.8,1.1
		c-4.5-2.1-9.1-3.8-13.3-5.3c-2.7,5.8-5.6,11.9-8.5,18.1c0.3,1,0.3,1.9-0.2,2.7c-0.5,1-1.1,1.8-2.1,2.1c-2.4,5.4-5,10.9-7.5,16.5
		c0,0,0,0.2-0.2,0.2c5,4.5,10.5,9.3,15.8,14l29.6-67.6C101.7,716.6,100.7,716.8,99.7,717z"/>
	<path class="st0" d="M557.5,1093.5l21.7,20.5c0,0-119.9,16.8-191.8,12.8c-51.7-2.9-132.5-15.8-195.2-33.8
		c-11.1-3.2-18.3-8.3-22.6-14.2c-0.2,0.4-0.3,0.6-0.3,0.6H161c0.9-1.9,2.3-5.7,3.8-10.5c-3.7-13,1-27.3,4-34.5
		c-0.1-0.4-0.1-0.7-0.2-1c-0.3-1.1-0.6-2.3-0.8-3.4c-29.4,1.5-87.4,3.3-107.6-0.2c-17.1-2.9-29.5-30.3-37.2-57.1
		C11,955.9,0.6,933.6,0,910.6v216.9h611.4v-33.1C605.2,1107.7,573.1,1099.5,557.5,1093.5z"/>
	<path class="st0" d="M330.5,0h-0.8c-0.2,0.4-0.5,0.8-0.8,1.2C329.4,0.8,329.9,0.4,330.5,0z"/>
	<path class="st0" d="M48.9,789.1c-0.3,0.6-0.6,1.4-1,2.1c2.9,5.5,7.6,13,13,20.9l6.6-15C60.2,793.6,53.6,790.7,48.9,789.1z"/>
	<path class="st0" d="M39.5,792.4c-1.1-2.4-1.9-4.3-2.2-5.8c-0.5-2.1,0.3-4,1.9-5.1c0.8-0.5,1.9-1.4,5.4-0.8c1.1-2.6,2.2-5,3.4-7.5
		c-6.2-5.9-11.4-11.1-13.3-13.9c-2.4-3.7-1.4-6.4-0.6-7.8c2.7-4.5,11.8-5.4,20.3-5.3c-3-4.5-6.1-10.7-6.1-17.8c0-3,1.3-5.4,3.7-6.9
		c4.2-2.7,11.8-1.8,19.5,0.3c16.2-34,29.6-60.2,33.8-64.9c3.5-4,13.6-30.4,24.5-58.5c22.7-59.3,51-133.1,70.7-147.2
		c18.1-13.1,32.3-18.6,47.2-24.5c9-3.5,18.2-7.2,28.5-12.7c5-2.7,9.9-5.1,14.7-7.3c0.8,2.1,1.3,3.3,1.3,3.3l8,1.5c0,0,0-0.1,0-0.1
		l-7.9-1.5c0,0-0.5-1.2-1.3-3.2c0,0,0,0,0,0c-8.4-22.2-55.4-151.9-29.1-232.2c10-30.6,16.2-60.9,23.2-88.2c0-0.1,0-0.1,0-0.2
		c0,0,0-0.1,0-0.1c0.5-3.4,1.1-6.4,1.9-9.2c7.3-25.6,19.4-54.6,33.8-76.8H0v906.2c0.1-2.4,0.2-4.8,0.5-7.1
		C2.6,882,19.7,838.2,39.5,792.4z"/>
	<path class="st1" d="M602.1,405.9c-1.1-1-2.1-1.9-3.2-2.8c0,0-0.1,0.1-0.1,0.1c1.1,0.9,2.1,1.8,3.2,2.8c3.1,2,6.2,4.1,9.4,6.2v-0.2
		C608.3,409.9,605.2,407.9,602.1,405.9z"/>
	<path class="st1" d="M571.4,184.6c-1.9,2.5-4.9,5.2-8.6,8.5c-8.2,7.2-19.4,17.1-19,25.9c0.2,3.7,2.4,7,6.9,10.4
		c13.6,10.2,22,19.9,27,28.7c-0.2-11.8-0.9-24.4-2.4-38.7C574.1,207.9,572.8,196.1,571.4,184.6z"/>
	<path class="st1" d="M572,178.9c-0.3-0.4-0.8-0.8-1.3-1c0-0.1-0.1-0.1-0.1-0.2c-1.3-9.9-2.7-19.7-4.3-29c-0.1-0.1-0.1-0.1-0.1-0.2
		c0,0,0-0.1,0-0.1c-7.1-9.2-14.9-18.3-22.6-26.7c0.6,2.2,1.3,4.5,2.1,6.6c6.4,21,13.1,42.9,24.9,49.4c0,0,0,0.1,0,0.1l0.1,0.1
		C571.2,178.1,571.6,178.5,572,178.9z"/>
	<path class="st1" d="M482.2,102c-5.7,2.8-15.2,4.9-37.7,8l0,0c-0.6,0.1-1.3,0.2-2,0.3c-4.9,0.7-9.4,1.4-13.6,2.2l10.6-39.7
		c1.2-1.6,2-2.7,2.6-3.5v0c-0.6,0.8-1.4,1.9-2.6,3.5l-10.6,39.7c-11.7,2.1-20.7,4.7-27.8,7.3c-4.4,0.7-9.8,1.8-17.3,3.3
		c-1.2,0.2-2.4,0.5-3.5,0.7l0,0c1.1-0.2,2.3-0.4,3.5-0.7c7.5-1.5,12.9-2.5,17.3-3.3c-21.1,7.9-24.2,16.2-24.2,16.2s1.8-4.8,3.4-12.2
		c-7,1.4-12.2,2.3-15.5,2.7c-3,0.3-6.2,0.6-7.7-2.1c-0.5-1-0.6-2.1-0.3-3.2c3.3-10.2,6.4-25.7,3.8-31.7
		c-13.8,12.3-25.3,27.6-24.5,42c1.9,36,13.9,145.7,43.7,176.9c2.9,3,5.8,6.1,8.5,9c25.9,27.6,39,41.5,62.9,34.9
		c12.2-3.4,29.6-19.2,44.8-33.2c22.1-20.2,39.7-36.2,50.1-26.9c5.3,4.8,13.1,14.3,20.8,25.5c3-11.9,5.9-23.1,7.8-30
		c5.6-20.7-12.6-39.6-29-51.7c-6.4-4.8-9.8-10.4-10.1-16.5c-0.5-12.5,12.3-23.9,21.8-32.2c1.9-1.8,3.8-3.5,5.4-5
		c-12-9.6-18.2-30-24.8-51.4c-2.2-7.4-4.5-14.7-7-21.8c-1.1-1.1-2.2-2.1-3.4-3c-2.2-2.1-4.5-4-6.6-5.9c-16.6,5-52.5,15.1-72.3,15.1
		c-2.1,0-3.7-1.4-4-3.5c0-0.1-0.1-0.7-0.2-1.7c23-3.2,32.4-5.3,38.1-8.2c11.6-2.6,23.1-5.7,31.6-8.2c-3-2.7-6.1-5.3-9.1-7.8l0,0
		c-13.9,8.2-15.7,12.6-22.5,16C482.5,101.9,482.4,102,482.2,102z M428.5,113.9c-0.5,1.6-1.8,2.7-3.4,2.9c-1.9,0.2-3.7,0.4-5.3,0.6
		c-6.5,0.7-11,1.2-18.7,2.5c7.1-2.6,16.2-5.1,27.8-7.3L428.5,113.9z"/>
	<path class="st1" d="M582.4,290C582.4,289.9,582.4,289.9,582.4,290c0-0.1,0-0.1,0-0.2C582.4,289.8,582.4,289.9,582.4,290
		C582.4,289.9,582.4,289.9,582.4,290z"/>
	<path class="st1" d="M599.4,392.7c-1.5,1.2-2.9,2.3-4.2,3.4c-0.3-0.7-0.9-1.2-1.4-1.8c2.2-3.3,2.1-8.6,1.7-16.1
		c-1-12.3-10.4-31.8-21.4-49.4c0.2-3.2,0.5-6.3,0.7-9.5c-0.6,2.5-1.3,5.1-1.9,7.6c0.4,0.7,0.8,1.3,1.2,2c0,0,0,0.1,0,0.1
		c11,17.6,20.3,37,21.3,49.3c0.4,7.5,0.5,12.8-1.7,16.1c0.5,0.6,1.1,1.1,1.4,1.8c1.3-1.1,2.7-2.2,4.2-3.4c4.3-3.4,9-7.2,12.1-10.3v0
		C608.3,385.6,603.7,389.3,599.4,392.7z"/>
	<path class="st1" d="M563.2,367.9c-0.3,2.2,3.7,6.1,8.4,9.8c0.1-12.7,0.7-24.1,1.4-34.9c0,0,0,0,0,0c0-0.1,0-0.1,0-0.2
		c-1-1.7-1.9-3.4-2.9-5C566.7,351.2,564,363.2,563.2,367.9z"/>
	<path class="st1" d="M194.9,668.3c0,0,0.1,0,0.1,0C195,668.3,194.9,668.3,194.9,668.3z"/>
	<path class="st1" d="M208.9,682.5c0.3-1.2,0.3-2.4,0.2-3.3c-0.5-4.9-3.3-9.4-7.8-10.9c-2-0.7-3.9-0.6-6.1,0c-0.1,0-0.1,0-0.1,0
		c-0.1,0-0.1,0-0.1,0c-0.1,0.1-0.3,0.2-0.4,0.2c-0.2,0.2-0.5,0.2-0.8,0.4c-0.2,0.2-0.5,0.3-0.8,0.5c0,0-0.3,0.2-0.5,0.3
		c-0.4,0.3-0.8,0.7-1.2,1c-0.2,0.1-0.3,0.4-0.5,0.5C200.7,670.1,206.2,676.1,208.9,682.5z"/>
	<path class="st1" d="M203.1,714.2c-0.2,2.2,0.1,4.4,0.8,6.4c1.4,4,4.2,7.3,7.9,9.3c0.3,0.2,0.6,0.5,1,0.5c0.7-0.4,0.9-1.5,1.2-2.1
		c0.2-0.5,0.3-0.9,0.4-1.3c-0.2,0-0.5,0.1-0.7,0.1C207.4,727.4,204.4,720.9,203.1,714.2z"/>
	<path class="st1" d="M195.1,668.3C195.1,668.3,195.1,668.3,195.1,668.3C195,668.3,195.1,668.3,195.1,668.3
		C195.1,668.3,195.1,668.3,195.1,668.3z"/>
	<path class="st1" d="M572.7,181.3C572.7,181.3,572.7,181.4,572.7,181.3C572.7,181.4,572.7,181.3,572.7,181.3z"/>
	<path class="st1" d="M572.6,180.5C572.6,180.5,572.6,180.5,572.6,180.5c0-0.3-0.1-0.6-0.2-0.9C572.5,179.9,572.6,180.2,572.6,180.5
		C572.6,180.5,572.6,180.5,572.6,180.5z"/>
	<path class="st1" d="M572,178.9c0.2,0.2,0.3,0.5,0.4,0.7C572.3,179.4,572.2,179.2,572,178.9z"/>
	<path class="st1" d="M289.1,481.6c0.3-4.6,0.6-9.5,0.6-13.3c0-2.8,1.1-6.3,3-10.5c-1.4,0.8-2.8,1.7-4.3,2.5
		C287.9,467.8,288.3,475.1,289.1,481.6z"/>
	<path class="st1" d="M235.7,690.2c0.5,6.2-2.9,10-7.6,12.2c3.3-1.1,6.3-2.8,8.5-5.4c1.6-2,2.8-4.4,3.1-6.7c0.4-2.3,0.2-5-1.6-6.8
		c-1.6-1.7-4.7-0.7-6.9-0.1C233.6,684.1,235.4,686.1,235.7,690.2z"/>
	<path class="st1" d="M363.9,343.8c-2.8-2.3-6.4-5.4-10.6-9.6c4.3,4.2,7.9,7.4,10.7,9.7c1,0.8,2,1.5,2.8,2.3c0,0,0,0,0,0
		C366,345.4,364.9,344.6,363.9,343.8z"/>
	<path class="st1" d="M294.9,336.8c3.3,6.9,7.4,12.2,11.3,16.2c-4-4-8-9.3-11.4-16.3C294.9,336.8,294.9,336.8,294.9,336.8z"/>
	<path class="st1" d="M289.5,169.6c0.3,2.1,0.7,4.3,1.1,6.4c0,0,0,0,0,0C290.2,173.9,289.9,171.7,289.5,169.6z"/>
	<path class="st1" d="M341.6,381.5c-0.3,0.1-0.6,0.3-0.9,0.5C341,381.8,341.3,381.6,341.6,381.5z"/>
	<path class="st1" d="M321.6,757.1c-3.8,24-2.6,51.4-1.9,61h21c1-3.8,2.6-16.8-3-54.6c-2.2-14.7-5.4-26.1-8.6-35.6
		C326.1,736.2,323.5,745.4,321.6,757.1z"/>
	<path class="st1" d="M294.6,151.5c-2.8,17.5-2,35.7,5.4,53.4c2.5,6.2,5.4,12.1,8.3,17.8c8,31.7,17.8,59.9,27,75.1
		c13.8,22.4,26.7,33.6,33.8,39.6c5.1,4.3,7.8,6.7,7.4,10.4c-0.5,3.2-3.5,4.8-4.5,5.3c-1.1,0.6-2.4,0.9-3.8,0.9
		c1.4,0,2.8-0.3,3.9-0.9c1-0.5,4-2.1,4.5-5.3c0.4-3.7-2.3-6.1-7.4-10.4c-7.1-6-20-17.2-33.8-39.6c-9.3-15.1-19-43.4-27-75.1
		c26.3,50.8,64.3,84.4,70.1,110.3c2.1,9.3-0.6,21.5-5.3,33.8c-7.2-6.4-14.5-13.1-20.9-19.1c-0.1-0.1-0.2-0.1-0.3-0.2
		c6.5,6.1,13.9,12.8,21.1,19.3c-1,2.8-2.1,5.5-3.3,8.2c-17.9-16.1-38.2-34.8-44.5-43.1c6.3,8.3,26.6,27,44.6,43.2
		c1.2-2.7,2.3-5.5,3.3-8.2c13.9,12.6,27.3,24.3,33.3,29.4c3.4,2.9,2.2,5.6,1.8,6.4c-1.5,2.7-3,5.3-48-8.4c0,0,0,0,0,0
		c-4.2,7.7-8.2,14.2-11.1,18.7c-0.5-9.5-1.1-17.5-1.5-22.6c0,0,0,0,0,0c0.4,5.1,1,13.1,1.5,22.7c1.1,18.9,2.1,44.2,1.2,66.4
		c-0.8,19.2,9.3,44,20.2,67.6c2.1-6.1,4.6-12.2,7.5-18.3c11.7-24.8,26.7-65.5,31.7-91.9c1.9-10.4,4.3-17.9,9.9-21.6
		c6.2-4,14.4-1.9,27.7,1.4l4,1c22.6,5.6,62.2,69.8,77.1,95.1c2.1-9.6,5.3-24,9.3-34.9c3.7-9.9,13.8-23.7,23.5-37.1
		c5-6.8,10.2-13.8,13.4-19c0,0,0,0.1,0,0.1c1.6-2.6,2.7-4.6,3.1-6c1-3.5,3.7-7.2,7.4-10.9c0,0-0.1,0-0.1-0.1
		c-3.6,3.7-6.3,7.3-7.3,10.8c-0.4,1.5-1.5,3.6-3.1,6.1c-1.4-5.1-2.3-10.6-2.6-16.7c-0.1-2.5-0.2-5-0.3-7.4c0,0,0,0,0,0
		c0-0.1,0-0.1,0-0.2c-0.2-0.1-0.5-0.3-0.8-0.4c-2.9-0.2-6.2-0.3-10.1-0.3c-12,0-29.1,4.5-45.6,8.8c-26.9,7-43.8,11.1-51.3,4.6
		c-1.1-1-4.5-3.8-3.4-7.7c1.3-4.6,6.6-5.6,17.4-7.7c11-2.1,27.7-5.3,44.5-13.8c11.9-5.9,29-2.3,49.1,7.1c0,0.1,0,0.1,0,0.2
		c0.5,0.2,1.1,0.5,1.7,0.8c0.3,0,0.8,0,1.1,0.2c-0.1-0.1-0.3-0.2-0.4-0.3c-0.2,0-0.5,0-0.6,0c-0.5-0.2-1.1-0.5-1.7-0.8
		c0-0.2,0-0.6,0-0.8c0,0-0.1,0-0.1-0.1c0,0,0,0,0-0.1c-9.1-6.6-17-13.4-16-20.6c0.8-5.9,4.6-21.9,8.8-38.6
		c-8.6-13.1-17.8-24.7-23.5-30c-5.1-4.5-25,13.6-39.3,26.8c-16.6,15.2-33.9,31.1-48,34.9c-28.5,7.8-44.5-9-70.7-37
		c-2.7-2.9-5.4-5.8-8.3-8.8c-37.9-39.2-46.2-180.4-46.4-181.8c-0.8-14.3,8-28.7,19.8-41.2c-16,10.1-27.4,35.6-40.3,65.1
		c-2.9,6.7-5.9,13.6-9.1,20.5c2.7,15.5,6,31.2,9.8,46.2c-2.9-5.7-5.7-11.6-8.3-17.8C292.7,187.2,291.9,169,294.6,151.5
		c-0.3-3.1-0.7-6.1-1-9.1c0,0.1,0,0.1,0,0.2C293.8,145.5,294.2,148.5,294.6,151.5z"/>
	<path class="st1" d="M363.1,614.6c-1.3,7.7-2.2,15.1-3,22.1c-0.2,1.6-0.5,3.2-0.6,4.8c14.4-9.9,27.8-19.4,27.8-30.8
		c-0.1-8.3-7.2-24.2-15.2-41.3C368.1,584.6,365.7,599.8,363.1,614.6z"/>
	<path class="st1" d="M324.5,366.2c-0.3-0.6-0.6-1-1-1.4c0.4,0.4,0.7,0.8,0.9,1.3c0.5,1.1,0.5,2.2,0,3.2
		c-0.2,0.2-5.4,12.3-12.6,28.5c0,0,0.1,0,0.2,0c7.2-16.1,12.3-28.2,12.5-28.4C325,368.4,325,367.3,324.5,366.2z"/>
	<path class="st1" d="M512.3,81.9c3.6,3,7.1,6.1,10.5,9.1c2.7-0.8,4.5-1.4,4.5-1.4c1.9-0.6,4,0.3,4.8,2.1c2.1,4,3.8,8.3,5.6,13
		c7.1,6.8,14.8,14.9,22.2,23.6c-7.7-17.8-15.4-30.4-23-35.6c-6.5-4.5-12.8-9.1-18.8-13.7c-0.6,0.3-1.2,0.5-1.9,0.9
		c-1.4,0.6-2.6,1.3-3.8,1.9c-24-20.3-51.6-40.1-85-52.6c3.4-6.3,6.4-12.7,8.9-18.4c0,0,0,0-0.1,0c-2.5,5.7-5.5,12.1-8.9,18.5
		C460.7,41.8,488.3,61.6,512.3,81.9z"/>
	<path class="st1" d="M332,675.6c-8,11.7-6.9,18.9-2.4,31.4c1.4-3,3-5.9,4.6-9c1.8-3.4,3.5-6.7,5.3-10.4c4.6-9.2,7.4-18.6,9.1-28.5
		C342,664.1,336.1,669.5,332,675.6z"/>
	<path class="st1" d="M300.4,152.8c14.6-33,27-61.5,47.5-71.1c4.8-2.2,8.8-3,12.2-2.2c5.3-4.4,10.7-8.3,15.8-11.7
		c-10.5-20.3-30.7-29.8-39-11.9c-6.8,14.8-35.3,52.9-42.2,95.6c0.4,3.6,0.9,7.2,1.5,10.8C297.6,159.1,298.9,156.1,300.4,152.8z"/>
	<path class="st1" d="M385.9,13.8c0-0.5,0-0.9,0.1-1.4c0.2-1.6,0.9-4.7,3.6-8.9c0,0-0.1,0-0.1,0c-2.5,4.2-3.3,7.1-3.4,8.7
		C386,12.7,385.9,13.2,385.9,13.8z"/>
	<path class="st1" d="M366.2,117.8c3-0.5,7.8-1.3,15.7-2.8l0,0c0,0,0,0,0,0c1.5-10.7,1.9-23.9-1.8-36.6c-0.3-1.1-0.6-2.1-1-3.1
		c0,0,0-0.1,0-0.1c-4,2.7-8.2,5.7-12.4,9C371.8,92.5,368.6,108.9,366.2,117.8z"/>
	<path class="st1" d="M525.6,388.5c-17.8,8.8-35,12.2-46.5,14.4c-3.2,0.7-6.7,1.3-9.1,2c6.4,2.7,27.5-2.7,43-6.9
		c13.6-3.5,27.5-7.2,39.2-8.5C541.5,386,532.2,385.2,525.6,388.5z"/>
	<path class="st1" d="M405,22.2c-9.7-2.4-10.9-6-11-8c0,1.9,1,5.7,11,8.2c5.1,1.3,10.1,2.7,14.9,4.3c3.7-6.7,7-13.6,9.8-20
		c0,0-0.1,0-0.1-0.1c-2.8,6.3-6.1,13.2-9.7,19.9C415.1,24.9,410.1,23.5,405,22.2z"/>
	<path class="st1" d="M360.3,394.3c1.3-2.2,2.5-4.5,3.7-6.9C362.7,389.8,361.5,392.1,360.3,394.3z"/>
	<path class="st1" d="M342.5,381.2c-0.3,0.1-0.7,0.2-1,0.3C341.9,381.4,342.2,381.3,342.5,381.2z"/>
	<path class="st1" d="M393.1,395.5c-5.9-5.1-14.3-12.4-23.2-20.4c-1.9,4.2-3.9,8.3-5.9,12.3C375.1,390.7,385.6,393.6,393.1,395.5z"
		/>
	<path class="st1" d="M287.9,198.7c0,0.1,0,0.2,0,0.3c1.6-3.2,3.2-6.3,4.6-9.3c0-0.1,0-0.1,0-0.2
		C291.1,192.5,289.5,195.5,287.9,198.7z"/>
	<path class="st1" d="M363.2,863.4c0.8,11.2-8.3,42.9-21,83.8c14.1-4,33.9-10.7,60.3-21.5c38.4-15.7,90.5-12.8,104.1-11.9
		c3.8-12.5,18.4-60.9,31.5-106.4c-16,13.8-25.3,29.5-32.5,41.8c-4.8,8.2-8.6,14.6-13,17.8c-9,6.4-22.4,3.2-48.8-3.4
		c-12-3-27-6.7-45.4-10.4c-11.2-2.1-25.5-3.2-42.7-3.4c0.5,0.2,1.1,0.5,1.6,0.6C361.9,853,362.9,859,363.2,863.4z"/>
	<path class="st1" d="M328.1,867.7c-0.6,0.2-2.1,1-4,5c-9.4,19.4-9.5,71.5-7.6,78.9c1.9,0.6,7.4,0.3,16.6-1.9
		c9.9-32.2,23-74.6,22.1-85.5c-0.5-5.6-1.8-6.6-1.9-6.6c-1.6-0.8-7.4,2.1-11.4,4.2C337.7,863.9,333.1,866.3,328.1,867.7z"/>
	<path class="st1" d="M191.9,698.7c-0.6-0.2-1.2-0.4-1.8-0.6c-3.6-1.1-7.4-1.2-11.1,0c0.4-0.2-0.4,0.2-0.5,0.2
		c-0.3,0.1-0.5,0.1-0.8,0.3c-0.5,0.1-0.8,0.3-1.3,0.6c-0.7,0.4-1.6,0.8-2.1,1.6c-0.4,0.7-0.3,1.7-0.2,2.5c0.2,1.2,0.4,2.5,0.8,3.6
		c0.2,0.8,0.5,1.5,0.9,2.2C174.9,700,183.4,698,191.9,698.7z"/>
	<path class="st1" d="M324.5,994.5c-0.2,0-0.4,0-0.5,0c-0.3,0-0.8,0-1.1,0.2C323.2,994.5,323.7,994.5,324.5,994.5z"/>
	<path class="st1" d="M600,734.6c-1.6-12.7-5.8-22.9-9.8-33c-1.2-3-2.3-5.7-3.2-8.6c-9.3,12-16.5,22.7-17.4,28.8
		c-1.1,8-8.5,34.9-17.4,66.3c7.5-4.3,14.1-7.8,20-10.9C595.6,764.9,603.6,760.7,600,734.6z"/>
	<path class="st1" d="M178.8,737.2c1-1.4,3.7-7.8,5.6-13.1c0.8-2.1,3-3,5.1-2.4c2.1,0.8,3,3,2.4,5.1c-3.4,9-5.9,14.4-7.4,15.9
		c-1.1,1.1-4.2,3.4-6.9,5.4l1.2,0.8c24.8,17.5,29.4,68.9,30.2,83.9l63.2-3c1.4,0,2.6,0.5,3.4,1.6c0.8,1.1,1,2.6,0.5,3.7
		c0,0.2-1.6,4.5-4.5,11.4c21.1-1.9,41.6-3.4,60.3-3.8c28.3-1,51.2,0,67.7,3.2c18.6,3.7,33.6,7.4,45.7,10.4c22.6,5.6,36.3,9,42.2,4.6
		c3-2.2,6.6-8.3,10.7-15.2c8.3-14.1,20.3-34.6,43.2-50.8c9.9-34.8,18.4-65.5,19.7-73.8c1.3-8.6,10.2-21.6,22.2-36.8
		c-3.4-12.5-3.7-25.6,5.4-41.5c6.9-12.1,15.1-25.9,22.7-38.6V462.5c-13.9-6.7-26.2-16.5-33.2-31.2c0,0,0,0,0,0c0,0,0-0.1-0.1-0.1
		c-3,4.5-6.6,9.5-10.5,14.7c-9,12.2-19.2,26.1-22.4,34.9c-6.2,17.1-11,43.9-11,44.2c-0.3,1.6-1.6,3-3.2,3.2s-3.4-0.5-4.2-1.9
		c-14.9-26.3-57.9-95.6-77.4-100.6l-4.2-1c-10.9-2.7-17.9-4.5-21.4-2.4c-2.7,1.8-4.6,6.7-6.4,16.3c-5.1,27.4-20.2,67.9-32.3,93.9
		c-4,8.5-7.2,16.8-9.8,25.3c0.6,1.3,1.1,2.4,1.8,3.5c9.8,20.7,18.1,38.4,18.1,49.5c0,15.9-15.7,26.6-32.2,38
		c-1.8,1.1-3.4,2.4-5.1,3.5c-2.1,13.5-5,26.4-11.2,38.8c-1.8,3.7-3.7,7.2-5.3,10.4c-2.9,5.4-5.4,10.4-7.8,15.7
		c4,10.7,9,25.1,12,45.2c5.4,36.7,5.4,59.1,0,63.1c-0.6,0.5-1.6,0.8-2.4,0.8H316c-2.1,0-3.8-1.6-4-3.7c-0.2-1.4-3.2-36,1.6-66.6
		c2.6-16.3,6.6-28.2,11.4-38.9c-0.2-0.3-0.2-0.5-0.3-0.8c-6.6-17-10.7-28.2,0.8-45.2c6.2-9.1,15.4-16.5,25-23.2
		c0.5-3.8,1.1-7.8,1.6-12c1-7.2,1.9-14.6,3.2-22.4c2.9-17.3,5.9-36,11.7-54.9c-12.5-26.7-25.4-55.9-24.5-79.1
		c0.8-19.8,0.1-42.4-0.9-60.5l0,0c0,0,0,0,0,0l-13.3-2.4c7.7-12,9-15.8,6.9-18.9c-0.2-0.3-0.4-0.6-0.6-0.8c0.2,0.2,0.4,0.5,0.5,0.7
		c2.1,3.2,0.8,7-6.9,18.9l-8.6-1.6c1.3-2,2.6-3.9,3.7-5.7c-1.1,1.8-2.4,3.7-3.7,5.7l-14.4-2.6l-5.1-0.9c0,0,0,0.1,0,0.1l5,0.9
		c-1.4,3.1-2.8,6.2-4.3,9.4c0.5,6.7,1,13.1,1.4,19.1c3.4-5.3,7.3-11.1,11.5-17.5c1.9-2.7,3.8-5.6,5.7-8.4l8.6,1.6
		c-2.2,3.3-4.8,7.2-8,11.9c-9.1,13.5-22.7,33.6-22.7,40.4c0,14.6-3,38-3.2,38.9c-0.3,1.8-1.8,3.2-3.5,3.5c-1.8,0.2-3.5-1-4.2-2.7
		c-0.5-1.2-7.1-21-6.6-43.5c-25.4,14.3-57,30.3-68.6,30.3c-15.6,0-33.6,44-40.7,66l-64.8,147.8c18.2,1.3,41.7,17.5,64.7,33.9
		C174.2,740.6,177.8,738,178.8,737.2z M170.3,695.7c2-2,4.8-3.2,7.5-4c3.3-1,6.7-1.2,10-0.7c-1.6-2.1-3.1-4.4-4.1-7
		c-1.5-3.6-2-7.8-0.8-11.7c0.9-2.9,3-5.5,5.5-7.3c5.4-3.7,12.4-4.5,18.1-1.1c5.8,3.4,8.9,10.4,8.7,16.9c0,1.4-0.2,2.7-0.6,4
		c2.9-1.9,6-3.6,9.2-5c3.6-1.6,7.9-3,11.9-3.1c4.1-0.1,7.6,2.5,9.1,6.4c2.8,6.9,0,14.8-5.3,19.8c-5.7,5.5-13.9,6.9-21.6,7.2
		c0.5,0.9,0.9,1.7,1.3,2.6c1.9,4.7,2.4,9.8,1.2,14.8c-0.7,2.5-1.7,5.2-3.6,7.1c-2.8,2.7-6.2,1.5-9.1-0.2c-5-3-8.6-8-10.1-13.6
		c-0.9-3.2-0.9-6.5-0.3-9.6c0,0,0,0-0.1,0c-5.7,6-13.1,11.2-17.7,6.9c-1,0.2-2.1,0.2-3.1-0.1c-1.5-0.5-2.8-1.6-3.7-2.9
		c-2.1-2.9-3.6-6.2-4.3-9.7C167.7,702,167.7,698.4,170.3,695.7z"/>
	<path class="st1" d="M571.7,377.9C571.7,377.9,571.7,377.9,571.7,377.9c3.5,2.7,7.2,5.2,9.8,7c0.3,0.2,0.5,0.4,0.8,0.6
		c-0.3-0.2-0.5-0.4-0.8-0.6C578.9,383.1,575.2,380.5,571.7,377.9z"/>
	<path class="st1" d="M82.1,859.3c-0.4,0.9-0.8,1.6-1.1,2.2c7.5,2.1,40.9-0.8,52.3-1.8c22.6-1.9,46.9-4.5,70.4-6.9
		c19.8-2.1,39.8-4.2,59.5-5.9c1.6-3.7,2.9-6.7,3.8-9.3l-61.1,2.9c-1.1,0-2.1-0.3-2.9-1.1c-0.8-0.8-1.3-1.8-1.3-2.9
		c0-0.6-1.9-63.9-27-81.7l-5.2-3.6c-0.3-0.2-0.6-0.4-0.9-0.6c-22.3-15.9-49.4-35-65.9-34l-29.6,67.6c7.9,6.8,15.3,13.1,20,16.9
		c1.6,1.3,1.9,3.5,0.8,5.3c-1.1,1.8-3.4,2.2-5.3,1.3c-6.9-3.6-14.3-7.4-21.1-10.6l-6.6,15c6.9,10.1,14.8,20.6,21.4,27.8
		C89.2,847.6,84.5,855.3,82.1,859.3z"/>
	<path class="st1" d="M587.4,389.1L587.4,389.1c-0.7-0.5-1.5-1.1-2.2-1.7C585.9,388,586.7,388.6,587.4,389.1z"/>
	<path class="st1" d="M237.6,913.6c-13.3,21.1-14.9,23.9-5.6,61.3c5.9,23.7,44.6,30.6,85.7,38c31.4,5.6,63.8,11.5,88.3,25.1
		c40.6,22.6,67.3,21.5,111.5,19.7c10.7-0.5,22.4-1,35.5-1.1c-14.9-7.4-31.4-14.9-44.6-19.4c-33.3-11.1-171.8-35.1-183.3-35.1
		c-0.2,0-0.2,0-0.2,0c-1.4,0.3-2.9-0.2-3.8-1.1c-2.6-2.4-2.9-2.9,9.4-42.8c-7.8,1.4-14.1,1.9-17.4,0.5c-2.4-1-3.4-2.6-3.8-3.8
		c-3.4-8.5-2.1-65,8-85.7c2.6-5.1,5.4-8.2,9.1-9.3c4.2-1.3,8.3-3.4,12.3-5.4c3.8-2.1,7.5-3.8,10.9-4.6c-5.3,0-10.9,0.2-16.6,0.3
		c-20,0.6-41.8,2.2-64.4,4.3c-5.8,13.1-14.2,31.2-24.3,48.2C241.7,906.9,239.5,910.4,237.6,913.6z"/>
	<path class="st1" d="M596.1,646.4c-6.2,11.1-7.4,20.3-5.9,29.5c2.4-3,5-6.1,7.7-9.3c4.5-5.5,9.1-11.2,13.5-16.8v-29.7
		C606.1,629.1,600.8,638.2,596.1,646.4z"/>
	<path class="st1" d="M307.4,407.5c9.9-4,16.7-5.5,20.3-5.7C324.1,401.9,317.3,403.5,307.4,407.5z"/>
	<path class="st1" d="M43.5,995.5c-6.4-5.2-13.8-13.1-20.6-22.8c7.7,26.8,20.2,54.2,37.2,57.1c20.1,3.5,78.1,1.6,107.6,0.2
		c-3.1-13.2-5.5-26.6-6.6-33.1C140.5,999.6,60.5,1009.4,43.5,995.5z"/>
	<path class="st1" d="M603.5,672c-3.8,4.6-7.7,9.5-11.4,13.9c1.4,4.2,3,8.5,5,13c4,10.1,8.5,21.5,10.2,34.9c4.2,31.7-8,38-32.2,50.6
		c-6.6,3.5-14.1,7.4-22.6,12.5c-1.4,1-2.9,1.8-4.3,2.7c-15.3,53.6-34,115.4-35.3,119.8c-0.5,1.8-2.4,3-4.2,2.9
		c-0.6,0-61.9-6.1-103.7,10.9c-15.2,6.2-44.1,17.5-66.1,23.1c-4.6,15.1-9.8,31.4-11.2,38.3c16.3,1.4,62.9,9.8,78.5,12.7
		c19,3.5,82.5,15.4,104.1,22.6c18.8,6.1,42.1,17.4,60.2,26.9c2.6,0,5.3,0,8,0.2c14.2,0.3,24.8-0.1,32.9-1.3V662.3
		C608.8,665.5,606.2,668.7,603.5,672z"/>
	<path class="st1" d="M326.3,404.3c-0.6,1-1.2,2-1.9,3.1C325.1,406.4,325.7,405.3,326.3,404.3z"/>
	<path class="st1" d="M316,369.8C316,369.8,316,369.7,316,369.8c-4.7-2.4-12.7-7.5-19.9-16.8c0,0,0,0.1,0,0.1
		C303.3,362.4,311.3,367.4,316,369.8z"/>
	<path class="st1" d="M168.7,1034.4c-3,7.2-7.6,21.4-4,34.5C167.8,1058.8,170.8,1044.3,168.7,1034.4z"/>
	<path class="st1" d="M585.7,1065.5c5.6,3,23.7,13.8,23.7,13.8l-14.6,0.1c0,0-11.7-6.9-26.4-14.6c-19.4-0.2-35.8,0.5-50.5,1.1
		c-22.7,1-40.6,1.6-58.5-0.8c-19.4-2.6-37.1-8.8-57.1-20c-23.4-13-55.2-18.7-85.9-24.2c-43.7-7.8-84.9-15.2-92.1-44
		c-9.9-39.6-7.8-44.5,6.6-67.4c1.9-3.2,4.2-6.7,6.7-10.7c9-15.1,16.6-30.9,22.1-43.2c-18.2,1.8-36.6,3.7-55,5.6
		c-23.5,2.4-47.8,5-70.5,6.9c-50.7,4.2-57.6,2.4-60.6-2.2c-2.2-3.5,0-7.2,1.8-10.1c2.9-4.6,3.7-6.9,1.1-9.8
		c-5.6-6.2-12.8-15.6-19.4-25.2l-18.9,43.1c-9.4,13.7-27.3,46.9-23.7,70.3c0.5,3.4,1.1,7.2,1.9,11.3c8.5,19.2,21.8,35.2,32.1,43.7
		c11.8,9.6,76.9,4.6,115.3-0.8c2.2-0.3,4.2,1.1,4.5,3.4c0,0.2,3.2,20.8,8,39.7c4.7,18.7-5,43.1-6.7,47.3c4.4,5.9,11.5,11,22.6,14.2
		c62.7,18,143.5,30.9,195.2,33.8c71.9,4,191.8-12.8,191.8-12.8l-21.7-20.5c15.6,6,47.7,14.2,53.9,0.9v-30.3
		C604.4,1065,596,1065.5,585.7,1065.5z"/>
	<path class="st1" d="M379.1,75.3c7.1-4.7,13.7-8.2,18.6-10.2C392.8,67,386.2,70.6,379.1,75.3z"/>
	<path class="st2" d="M190.4,671.6c-1.5,1.9-2.3,3.9-2.1,6.5c0.2,3.1,1.7,6.1,3.5,8.6c2.5,3.5,5.5,6.3,8.3,9.4
		c0.1-0.2,0.2-0.3,0.4-0.5c0,0,0.1-0.1,0.1-0.2c0,0,0,0,0,0c0.1-0.1,0.2-0.2,0.4-0.3c2.2-2.4,4.5-4.8,6.1-7.7c0.4-0.8,0.7-1.4,1-2.2
		c0.2-0.7,0.7-1.9,0.7-2.2c0.1-0.2,0.1-0.4,0.1-0.5c-2.7-6.4-8.2-12.4-18.2-11.3c0,0,0,0,0,0C190.7,671.2,190.1,672,190.4,671.6z"/>
	<path class="st2" d="M178.3,712.6c-0.1,0,0.8-0.2,0.8-0.2c0.8-0.2,1.5-0.6,2.3-0.8c1.2-0.4,2.6-0.9,3.8-1.4c4.7-1.9,9.3-4,13.8-6.4
		c-0.9-1.1-2-2.2-3.1-2.9c-1.4-1-2.6-1.7-4-2.3c-8.5-0.6-17,1.3-16.1,10.4c0.3,0.6,0.6,1.1,0.9,1.7
		C177,711.2,177.8,712.5,178.3,712.6z"/>
	<path class="st2" d="M179.5,718.1c4.6,4.3,12-0.8,17.7-6.9c-4.9,2.4-9.9,4.4-15.1,6.2C181.2,717.7,180.4,717.9,179.5,718.1z"/>
	<path class="st2" d="M213.1,713.4c-0.7-1.2-1.5-2.4-2.5-3.6c-2.1-0.3-4.1-0.8-6-1.6c-0.9,1.9-1.4,3.9-1.5,6
		c1.3,6.7,4.3,13.2,10.6,12.9c0.3,0,0.5,0,0.7-0.1c0.4-1.2,0.5-2.2,0.7-3.6C215.4,720,214.7,716.6,213.1,713.4z"/>
	<path class="st2" d="M221.3,687.7c-6,3.5-11.5,8-16.9,12.4c-0.1,0.1-0.2,0.1-0.3,0.2c0.3,0.3,0.6,0.7,0.9,1.1
		c0.8-0.8,2.1-1.2,3.1-0.7c1.8,0.9,3.5,2.1,5,3.4c2.2,0.2,4.5,0.1,6.6-0.1c2.7-0.2,5.6-0.7,8.3-1.6c4.7-2.2,8.1-6,7.6-12.2
		c-0.3-4.1-2.1-6.1-4.5-6.8c-0.2,0.1-0.4,0.1-0.6,0.2C227.3,684.6,224.2,686,221.3,687.7z"/>
	<path class="st3" d="M191.9,726.8c0.6-2.1-0.3-4.3-2.4-5.1c-2.1-0.6-4.3,0.3-5.1,2.4c-1.9,5.3-4.6,11.7-5.6,13.1
		c-1,0.8-4.6,3.4-8.2,5.9c0.9,0.7,1.9,1.3,2.8,2l4.2,3c2.7-1.9,5.8-4.2,6.9-5.4C186,741.2,188.5,735.8,191.9,726.8z"/>
	<path class="st3" d="M168.6,750.5c0.3,0.3,0.6,0.5,0.9,0.6l-0.2-0.2C169.1,750.8,168.9,750.7,168.6,750.5z"/>
	<path class="st3" d="M214.3,705.2c-1.1,0-2.1,0-3.1-0.1c0.9,1.4,2,3.2,3,5c0.8,0,1.5,0,2.3,0c0.5,0,0.9,0,1.4,0
		C216.9,708.3,215.7,706.6,214.3,705.2z"/>
	<path class="st3" d="M231.2,683.4c2.3-0.6,5.4-1.6,6.9,0.1c1.8,1.8,2,4.5,1.6,6.8c-0.3,2.3-1.5,4.7-3.1,6.7
		c-2.1,2.7-5.2,4.4-8.5,5.4c-4.3,2-9.5,2.7-13.8,2.7c1.4,1.5,2.6,3.1,3.6,4.9c7.7-0.2,15.9-1.7,21.6-7.2c5.3-5,8.1-12.9,5.3-19.8
		c-1.5-3.9-5-6.5-9.1-6.4c-4,0.1-8.3,1.5-11.9,3.1c-3.2,1.4-6.3,3.1-9.2,5c-0.6,2.3-1.6,4.4-2.9,6.4
		C217.1,687.1,225.8,682.1,231.2,683.4z"/>
	<path class="st3" d="M214.2,710.1c3.8,7.1,6.8,15.9,0.3,16.9c-0.1,0.4-0.3,0.8-0.4,1.3c-0.3,0.6-0.5,1.7-1.2,2.1c0.1,0,0.1,0,0.2,0
		c-0.1,0-0.2,0-0.2,0c0,0,0,0,0,0c-0.4,0-0.8-0.3-1-0.5c-3.7-2-6.5-5.3-7.9-9.3c-0.7-2-0.9-4.2-0.8-6.4c-0.4-1.9-0.6-3.9-0.7-5.7
		c-1.7,0.9-3.4,1.8-5.1,2.6c-0.6,3.2-0.5,6.4,0.3,9.6c1.5,5.6,5.1,10.6,10.1,13.6c2.9,1.7,6.3,2.9,9.1,0.2c1.9-1.9,2.9-4.6,3.6-7.1
		c1.2-5,0.7-10.1-1.2-14.8c-0.4-0.9-0.8-1.8-1.3-2.6c-0.5,0-0.9,0-1.4,0C215.7,710.1,215,710.1,214.2,710.1z"/>
	<path class="st3" d="M197.2,711.2C197.2,711.2,197.3,711.2,197.2,711.2C197.3,711.2,197.3,711.1,197.2,711.2
		C197.3,711.2,197.2,711.2,197.2,711.2z"/>
	<path class="st3" d="M192.4,669.7C192.4,669.6,192.5,669.6,192.4,669.7C192.3,669.7,192.3,669.7,192.4,669.7z"/>
	<path class="st3" d="M211.2,691.6c0.2-0.1,0.4-0.3,0.5-0.4c1.3-2,2.3-4.1,2.9-6.4c-1.4,0.9-2.7,1.8-4,2.8
		C210.9,689,211.1,690.4,211.2,691.6z"/>
	<path class="st3" d="M200.1,698.8c-0.2-0.2-0.4-0.3-0.6-0.5c0,0.2,0.1,0.5,0.2,0.7C199.8,698.9,199.9,698.9,200.1,698.8
		C200,698.8,200.1,698.8,200.1,698.8z"/>
	<path class="st3" d="M200.2,699.8c-0.2-0.3-0.4-0.5-0.5-0.8c-0.3,0.2-0.5,0.4-0.7,0.7c0.5,0.1,1,0.2,1.4,0.3
		C200.3,699.9,200.3,699.9,200.2,699.8z"/>
	<path class="st3" d="M213,730.4c-0.1,0-0.1,0-0.2,0c0,0,0,0,0,0C212.8,730.4,212.9,730.4,213,730.4z"/>
	<path class="st3" d="M195.1,668.3C195.1,668.3,195,668.3,195.1,668.3c-0.1,0-0.1,0-0.1,0C194.9,668.3,195,668.3,195.1,668.3z"/>
	<path class="st3" d="M200.4,700c0.7,0.2,1.3,0.3,1.9,0.5c-0.7-0.5-1.4-1.1-2.2-1.7c0,0-0.1,0-0.1,0c-0.1,0.1-0.2,0.1-0.3,0.2
		c0.1,0.3,0.3,0.5,0.5,0.8C200.3,699.9,200.3,699.9,200.4,700z"/>
	<path class="st3" d="M195.2,699c1.3,0.2,2.6,0.4,3.8,0.7c0.2-0.3,0.4-0.5,0.7-0.7c-0.1-0.2-0.2-0.5-0.2-0.7
		c-2.2-1.8-4.6-3.9-6.8-6.1c-1.6-0.6-3.2-1-4.9-1.2c1.1,1.4,2.3,2.8,3.5,4C192.6,696.3,193.9,697.6,195.2,699z"/>
	<path class="st3" d="M172.7,715.1c0.9,1.3,2.2,2.4,3.7,2.9c1,0.3,2.1,0.3,3.1,0.1c-1.3-1.2-2.4-3.1-3.1-5.9
		c-0.3-1.1-0.5-2.2-0.6-3.2c-0.4-0.7-0.7-1.5-0.9-2.2c-0.4-1.1-0.6-2.4-0.8-3.6c-0.1-0.8-0.2-1.8,0.2-2.5c0.5-0.8,1.4-1.2,2.1-1.6
		c0.5-0.3,0.8-0.5,1.3-0.6c0.3-0.2,0.5-0.2,0.8-0.3c0.1,0,0.9-0.4,0.5-0.2c3.7-1.2,7.5-1.1,11.1,0c0.7,0.2,1.3,0.4,1.8,0.6
		c1.1,0.1,2.2,0.2,3.3,0.4c-1.3-1.4-2.6-2.7-3.9-4c-1.2-1.3-2.4-2.6-3.5-4c-3.3-0.5-6.7-0.2-10,0.7c-2.7,0.8-5.5,2-7.5,4
		c-2.6,2.7-2.6,6.3-1.9,9.7C169.1,708.9,170.6,712.2,172.7,715.1z"/>
	<path class="st3" d="M189.2,671.4c0.5-0.1,1-0.2,1.5-0.2c0.2-0.1,0.3-0.4,0.5-0.5c0.4-0.4,0.8-0.7,1.2-1c-0.1,0.1-0.1,0.1,0.1-0.1
		c0,0-0.1,0-0.1,0.1c0.2-0.1,0.5-0.3,0.5-0.3c0.3-0.2,0.6-0.3,0.8-0.5c0.3-0.2,0.6-0.2,0.8-0.4c0.1,0,0.3-0.1,0.4-0.2c0,0,0,0,0.1,0
		c0,0,0,0,0.1,0c0,0,0,0,0,0c0,0,0.1,0,0.1,0c2.2-0.6,4.1-0.7,6.1,0c4.5,1.5,7.3,6,7.8,10.9c0.1,0.9,0.1,2.1-0.2,3.3
		c0.7,1.7,1.3,3.5,1.7,5.2c1.3-1,2.7-1.9,4-2.8c0.3-1.3,0.5-2.6,0.6-4c0.2-6.5-2.9-13.5-8.7-16.9c-5.7-3.4-12.7-2.6-18.1,1.1
		c-2.5,1.8-4.6,4.4-5.5,7.3c-1.2,3.9-0.7,8.1,0.8,11.7c1,2.6,2.5,4.9,4.1,7c1.7,0.2,3.3,0.6,4.9,1.2
		C183.9,683.6,177.3,673.5,189.2,671.4z"/>
	<path class="st3" d="M202.3,706.9c-0.3-0.2-0.5-0.4-0.7-0.6c-0.1,0-0.1,0-0.2-0.1c-1.2,1.6-2.6,3.2-4.1,4.9c0,0,0,0,0,0
		c1.7-0.8,3.4-1.7,5.1-2.6C202.4,708,202.3,707.4,202.3,706.9z"/>
	<path class="st3" d="M202.3,705.7c-0.1-0.1-0.2-0.2-0.2-0.3c-0.2,0.3-0.4,0.5-0.6,0.8c0,0,0.1,0.1,0.1,0.1c0.2,0.1,0.5,0.1,0.7,0.2
		C202.3,706.2,202.3,706,202.3,705.7z"/>
	<path class="st3" d="M201.4,706.3c0.1,0,0.1,0,0.2,0.1C201.5,706.3,201.5,706.3,201.4,706.3C201.4,706.2,201.4,706.3,201.4,706.3z"
		/>
	<path class="st3" d="M201.6,706.3c0.2,0.2,0.5,0.4,0.7,0.6c0-0.1,0-0.3,0-0.4C202.1,706.5,201.8,706.4,201.6,706.3z"/>
	<path class="st3" d="M202,705.4c0.1,0.1,0.2,0.2,0.2,0.3c0-0.2,0-0.4,0-0.6C202.2,705.2,202.1,705.3,202,705.4z"/>
	<path class="st3" d="M210,703.7c-0.7-0.2-2.7-0.7-3.3-1.1c-0.2-0.2-0.6-0.3-0.8-0.5c-0.1-0.1-0.9-0.7-0.7-0.5
		c-0.1-0.1-0.1-0.1-0.1-0.2c-0.1,0.1-0.1,0.2-0.2,0.2c0.1,0.2,0.2,0.3,0.3,0.5c0.1,0.1,0.1,0.2,0.2,0.4c0,0,0,0,0,0c0,0,0,0,0,0
		c0.2,0.4,0.2,0.8,0.1,1.3c0.3,0.7,0.4,1.4,0.2,2.1c0.2,0.1,0.4,0.3,0.6,0.4c1.6,0.8,3,2,4.3,3.4c1.2,0.2,2.4,0.2,3.6,0.3
		c-1-1.8-2-3.6-3-5c0.9,0.1,2,0.1,3.1,0.1c-0.4-0.4-0.7-0.7-1.1-1.1C212.1,704,211,703.9,210,703.7z"/>
	<path class="st3" d="M213.2,704.1c0.4,0.4,0.8,0.7,1.1,1.1c4.3,0,9.6-0.7,13.8-2.7c-2.7,0.9-5.6,1.3-8.3,1.6
		C217.6,704.2,215.4,704.2,213.2,704.1z"/>
	<path class="st3" d="M198.6,702.8c0.2,0.3,0.4,0.6,0.6,0.9c0.8-0.4,1.5-0.8,2.3-1.2c0.9-0.4,2-0.3,2.9,0.2c0-0.1,0-0.1,0-0.2
		c0.1-0.3,0.2-0.5,0.4-0.8c-0.3-0.4-0.6-0.9-0.9-1.3c-1.1,0.6-2.6,0.4-3.5-0.5c-0.5-0.1-0.9-0.2-1.4-0.3
		C198.3,700.6,198,701.8,198.6,702.8z"/>
	<path class="st3" d="M199.1,703.8c-0.1,0-0.1,0.1-0.2,0.1c0.2,0.2,0.4,0.5,0.6,0.7c0,0,0-0.1,0-0.1
		C199.4,704.2,199.3,704,199.1,703.8z"/>
	<path class="st3" d="M213.1,713.4c1.6,3.2,2.3,6.6,2,10c-0.1,1.4-0.3,2.4-0.7,3.6c6.5-1,3.5-9.9-0.3-16.9c-1.2,0-2.4-0.1-3.6-0.3
		C211.6,711,212.4,712.2,213.1,713.4z"/>
	<path class="st3" d="M205.4,702.6C205.4,702.6,205.4,702.6,205.4,702.6c-0.2-0.3-0.4-0.6-0.6-0.9c-0.2,0.2-0.3,0.5-0.4,0.8
		c0,0.1,0,0.1,0,0.2c0.1,0.1,0.2,0.2,0.3,0.3C204.9,702.8,205.2,702.7,205.4,702.6z"/>
	<path class="st3" d="M204.7,702.9c-0.1-0.1-0.2-0.2-0.3-0.3c0,0.2-0.1,0.3-0.1,0.5C204.4,703.1,204.6,703,204.7,702.9z"/>
	<path class="st3" d="M200.2,703.3c0.4,0.4,0.7,0.9,1.1,1.3c1-0.5,2-1,3-1.5c0-0.1,0.1-0.3,0.1-0.5c-0.8-0.5-2-0.6-2.9-0.2
		c-0.8,0.4-1.5,0.8-2.3,1.2c0.1,0.2,0.3,0.4,0.5,0.6C199.8,704,200,703.6,200.2,703.3z"/>
	<path class="st3" d="M199.6,704.3c-0.2-0.2-0.3-0.4-0.5-0.6c0,0,0,0-0.1,0c0.2,0.2,0.3,0.5,0.5,0.7
		C199.6,704.4,199.6,704.4,199.6,704.3z"/>
	<path class="st3" d="M199.2,703.7c-0.2-0.3-0.4-0.6-0.6-0.9c-0.6-1-0.3-2.2,0.4-3.1c-1.2-0.3-2.5-0.5-3.8-0.7
		C196.6,700.5,198,702.1,199.2,703.7C199.1,703.7,199.2,703.7,199.2,703.7z"/>
	<path class="st3" d="M200.1,705.2c-0.1-0.1-0.2-0.2-0.3-0.4c-0.1-0.1-0.2-0.2-0.2-0.3c0,0,0,0.1,0,0.1
		C199.7,704.8,199.9,705,200.1,705.2C200,705.2,200,705.2,200.1,705.2z"/>
	<path class="st3" d="M200,696.2c-2.2-1.8-4.7-3.2-7.4-4.1c2.2,2.2,4.6,4.3,6.8,6.1C199.4,697.6,199.6,696.9,200,696.2z"/>
	<path class="st3" d="M200.2,705.1c-0.1,0-0.1,0.1-0.2,0.1c0.4,0.5,0.8,0.9,1.4,1.1c0,0,0,0,0,0C201,705.9,200.6,705.5,200.2,705.1z
		"/>
	<path class="st3" d="M200.6,695.4c0,0-0.1,0.1-0.1,0.2c-0.1,0.1-0.3,0.3-0.4,0.5c0.4,0.5,0.8,0.9,1.3,1.4c0.5,0.5,1.1,1.1,1.6,1.6
		c0.4,0.3,0.8,0.7,1,1.1c0,0,0.1,0.1,0.1,0.1c0.1-0.1,0.2-0.1,0.3-0.2c5.4-4.4,10.9-8.9,16.9-12.4c2.9-1.7,6-3.1,9.3-4.1
		c0.2,0,0.4-0.1,0.6-0.2c-5.3-1.4-14,3.7-19.4,7.7c-2,3.2-4.7,6.1-7.2,8.8C203.2,698.5,201.9,696.9,200.6,695.4z"/>
	<path class="st3" d="M202.7,698.9c-0.4-0.5-0.8-1-1.3-1.5c-0.4-0.4-0.9-0.8-1.4-1.2c-0.4,0.6-0.6,1.3-0.5,2
		c0.2,0.2,0.4,0.3,0.6,0.5C201,698.4,201.9,698.5,202.7,698.9z"/>
	<path class="st3" d="M204,707.7c-0.4-0.4-0.7-0.8-1.1-1.2c-0.2,0-0.4,0-0.6,0c0,0.1,0,0.3,0,0.4c0.5,0.3,1,0.6,1.5,0.9
		C203.9,707.8,203.9,707.7,204,707.7z"/>
	<path class="st3" d="M200.1,696.1c-2.9-3-5.9-5.9-8.3-9.4c-1.8-2.5-3.3-5.5-3.5-8.6c-0.2-2.6,0.6-4.6,2.1-6.5
		c-0.3,0.4,0.3-0.4,0.3-0.4c0,0,0,0,0,0c-0.5,0.1-1,0.1-1.5,0.2c-11.9,2.1-5.3,12.2,3.5,20.7c2.7,0.9,5.2,2.3,7.4,4.1
		C200.1,696.2,200.1,696.1,200.1,696.1z"/>
	<path class="st3" d="M200.6,695.4c1.3,1.5,2.6,3.1,3.9,4.6c2.5-2.7,5.2-5.6,7.2-8.8c-0.2,0.1-0.4,0.3-0.5,0.4
		c-0.1-1.2-0.3-2.6-0.6-4c-3.3,2.4-6.5,5-9.6,7.5C200.9,695.2,200.8,695.3,200.6,695.4z"/>
	<path class="st3" d="M208.1,685.2c-0.3,0.8-0.6,1.4-1,2.2c-1.7,2.9-3.9,5.4-6.1,7.7c3.1-2.5,6.3-5.1,9.6-7.5
		c-0.4-1.7-0.9-3.4-1.7-5.2c0,0.2-0.1,0.4-0.1,0.5C208.8,683.3,208.3,684.5,208.1,685.2z"/>
	<path class="st3" d="M200.1,705.2C200,705.2,200,705.2,200.1,705.2c-0.2-0.2-0.4-0.4-0.5-0.6c-1,2.1-1.8,4.3-2.2,6.6
		c1.5-1.6,2.9-3.3,4.1-4.9C200.9,706,200.5,705.7,200.1,705.2z"/>
	<path class="st3" d="M205.1,703.3c0.2,0.2,0.3,0.4,0.4,0.6c0.1-0.4,0.1-0.9-0.1-1.3c-0.2,0.1-0.5,0.2-0.7,0.3
		C204.9,703,205,703.2,205.1,703.3z"/>
	<path class="st3" d="M202.3,706.9c0,0.5,0,1.1,0.1,1.7c0.5-0.3,0.9-0.5,1.4-0.8C203.3,707.5,202.8,707.2,202.3,706.9z"/>
	<path class="st3" d="M204.9,701.7c0.1-0.1,0.1-0.2,0.2-0.2c-0.4-0.4-0.7-0.8-0.9-1.1c0,0-0.1,0.1-0.1,0.1
		C204.3,700.8,204.6,701.2,204.9,701.7z"/>
	<path class="st3" d="M205.9,702.1c0.2,0.2,0.6,0.3,0.8,0.5c0.6,0.4,2.6,0.9,3.3,1.1c1,0.2,2.1,0.3,3.2,0.4c-1.5-1.3-3.1-2.5-5-3.4
		c-1.1-0.5-2.4-0.1-3.1,0.7c0.1,0.1,0.1,0.1,0.1,0.2C205,701.4,205.8,702,205.9,702.1z"/>
	<path class="st3" d="M204.1,700.3c0,0-0.1-0.1-0.1-0.1c-0.3-0.5-0.6-0.8-1-1.1c0.4,0.4,0.7,0.9,1,1.3
		C204,700.4,204.1,700.3,204.1,700.3z"/>
	<path class="st3" d="M200.6,695.4C200.6,695.4,200.6,695.4,200.6,695.4c0.2-0.1,0.3-0.2,0.4-0.3
		C200.8,695.2,200.7,695.3,200.6,695.4z"/>
	<path class="st3" d="M201.4,697.4c0.4,0.5,0.8,1,1.3,1.5c0.1,0.1,0.2,0.1,0.3,0.2C202.5,698.5,201.9,698,201.4,697.4z"/>
	<path class="st3" d="M200,696.2c0.5,0.4,0.9,0.8,1.4,1.2c-0.4-0.5-0.8-0.9-1.3-1.4C200.1,696.1,200.1,696.2,200,696.2z"/>
	<path class="st3" d="M205.4,702.6C205.4,702.6,205.4,702.6,205.4,702.6C205.4,702.6,205.4,702.6,205.4,702.6
		C205.4,702.6,205.4,702.6,205.4,702.6z"/>
	<path class="st3" d="M202.3,706.5c0.2,0,0.4,0,0.6,0c-0.2-0.2-0.4-0.5-0.6-0.7C202.3,706,202.3,706.2,202.3,706.5z"/>
	<path class="st3" d="M205.2,702.2c-0.1-0.2-0.2-0.4-0.3-0.5c0,0,0,0-0.1,0.1c0.2,0.3,0.4,0.5,0.6,0.8
		C205.3,702.4,205.3,702.3,205.2,702.2z"/>
	<path class="st3" d="M203,699.1c-0.1-0.1-0.2-0.1-0.3-0.2c0.4,0.5,0.9,1,1.3,1.6c0,0,0.1,0,0.1-0.1
		C203.7,699.9,203.3,699.5,203,699.1z"/>
	<path class="st3" d="M204,700.4C204,700.4,203.9,700.4,204,700.4c0.2,0.5,0.5,0.9,0.8,1.3c0,0,0,0,0.1-0.1
		C204.6,701.2,204.3,700.8,204,700.4z"/>
	<path class="st3" d="M200.1,698.8c0.8,0.6,1.5,1.2,2.2,1.7c-0.6-0.2-1.2-0.3-1.9-0.5c0.9,0.9,2.4,1.1,3.5,0.5
		c-0.4-0.5-0.8-1-1.3-1.6C201.9,698.5,201,698.4,200.1,698.8z"/>
	<path class="st3" d="M204.7,702.9c-0.1,0.1-0.3,0.1-0.4,0.2c-0.1,0.8,0.2,1.5,0.6,2.1c0.3-0.4,0.5-0.9,0.6-1.3
		c-0.1-0.2-0.2-0.4-0.4-0.6C205,703.2,204.9,703,204.7,702.9z"/>
	<path class="st3" d="M205.7,706c0.2-0.7,0.1-1.5-0.2-2.1c-0.1,0.5-0.3,0.9-0.6,1.3C205.1,705.5,205.4,705.8,205.7,706z"/>
	<path class="st3" d="M204.9,705.2c-0.4-0.6-0.7-1.3-0.6-2.1c-1,0.5-2,1-3,1.5c0.2,0.3,0.5,0.6,0.7,0.9c0.1-0.1,0.2-0.2,0.3-0.3
		c0,0.2,0,0.4,0,0.6c0.2,0.2,0.4,0.5,0.6,0.7c0.3,0,0.6-0.1,0.9-0.3C204.2,706,204.6,705.7,204.9,705.2z"/>
	<path class="st3" d="M204.9,705.2c-0.3,0.4-0.7,0.8-1.1,1c-0.3,0.1-0.6,0.2-0.9,0.3c0.4,0.4,0.7,0.8,1.1,1.2
		c-0.1,0-0.1,0.1-0.2,0.1c0.3,0.1,0.6,0.3,0.8,0.4c0.2-0.5,0.4-0.9,0.7-1.3c0.2-0.3,0.3-0.6,0.4-0.9
		C205.4,705.8,205.1,705.5,204.9,705.2z"/>
	<path class="st3" d="M199.5,704.5c-0.2-0.2-0.4-0.5-0.6-0.7c-4.5,2.3-9.1,4.4-13.8,6.4c-1.2,0.5-2.6,1-3.8,1.4
		c-0.8,0.2-1.5,0.6-2.3,0.8c0,0-0.9,0.2-0.8,0.2c-0.5-0.1-1.3-1.4-1.6-1.9c-0.3-0.5-0.6-1.1-0.9-1.7c0.1,1,0.3,2,0.6,3.2
		c0.8,2.8,1.9,4.7,3.1,5.9c0.9-0.2,1.7-0.4,2.6-0.7c5.2-1.8,10.2-3.8,15.1-6.2c0,0,0.1-0.1,0.1-0.1
		C197.7,708.8,198.5,706.6,199.5,704.5z"/>
	<path class="st3" d="M204.6,708.2c1.9,0.8,3.9,1.4,6,1.6c-1.3-1.4-2.7-2.7-4.3-3.4c-0.2-0.1-0.4-0.2-0.6-0.4
		c-0.1,0.3-0.2,0.6-0.4,0.9C205.1,707.3,204.8,707.8,204.6,708.2z"/>
	<path class="st3" d="M203.8,707.8c-0.5,0.3-0.9,0.5-1.4,0.8c0.1,1.8,0.3,3.7,0.7,5.7c0.1-2.1,0.6-4.1,1.5-6
		C204.3,708.1,204.1,708,203.8,707.8z"/>
	<path class="st3" d="M199,703.8c0.1,0,0.1-0.1,0.2-0.1c-1.1-1.7-2.5-3.2-3.9-4.7c-1.1-0.2-2.2-0.3-3.3-0.4c1.4,0.6,2.6,1.3,4,2.3
		C196.9,701.7,198.1,702.8,199,703.8z"/>
	<path class="st3" d="M199.6,704.5c0.1,0.1,0.2,0.2,0.2,0.3c0.1,0.1,0.2,0.2,0.3,0.4c0.1,0,0.1-0.1,0.2-0.1
		c-0.2-0.2-0.4-0.5-0.6-0.7C199.6,704.4,199.6,704.4,199.6,704.5z"/>
	<path class="st3" d="M200.2,705.1c0.4,0.4,0.8,0.8,1.2,1.1c0.2-0.3,0.4-0.5,0.6-0.8c-0.2-0.3-0.5-0.6-0.7-0.9
		C201,704.8,200.6,704.9,200.2,705.1z"/>
	<path class="st3" d="M200.2,703.3c-0.2,0.3-0.4,0.7-0.6,1c0.2,0.3,0.4,0.5,0.6,0.7c0.4-0.2,0.7-0.3,1.1-0.5
		C200.9,704.2,200.6,703.7,200.2,703.3z"/>
	<path class="st4" d="M572.1,405.1c0.3,6.1,1.2,11.6,2.6,16.7c1.6-2.5,2.7-4.6,3.1-6.1c1-3.5,3.6-7.1,7.3-10.8
		c-4.6-2.8-9-5-13.3-7.2C571.9,400.1,572,402.6,572.1,405.1z"/>
	<path class="st4" d="M571.7,388.2c0.6,0.3,1.2,0.6,1.7,0.8c0.2,0,0.4,0,0.6,0c-0.8-0.5-1.6-1.1-2.3-1.7
		C571.7,387.6,571.7,388,571.7,388.2z"/>
	<path class="st4" d="M281.1,276.4c2.6,10.1,5.4,21.5,6.9,34.9c1.1,10.3,3.7,18.6,6.9,25.4c-3.5-52.6-6.5-106.1-7-137.8
		c-0.1,0.3-0.3,0.6-0.4,0.8C270.1,233.4,274.9,252.5,281.1,276.4z"/>
	<path class="st4" d="M340.7,382c0.3-0.2,0.6-0.4,0.9-0.5c0.3-0.1,0.6-0.2,1-0.3c0.5-0.1,0.9-0.1,1.4,0c0.2,0,0.3,0.1,0.5,0.2
		c6.5,2,13.2,4.1,19.6,6c2-4,4-8.1,5.9-12.3c-18-16.2-38.4-34.9-44.6-43.2c-0.9-1.2-1.6-2.2-1.9-3c-1.4-3.4,0.6-5.3,1.1-5.8
		c3.2-2.6,6.2-0.2,16.5,7.2c5.8,4.2,19.8,14.6,25.8,15.9c-0.8-0.8-1.8-1.5-2.8-2.3c-2.8-2.3-6.5-5.5-10.7-9.7
		c-7.1-7-15.8-17.1-24.8-31.9c-13.3-21.6-27-67.2-36-112.7c-1.5,3.1-3.1,6.1-4.6,9.3c0.5,31.6,3.6,85.1,7,137.8
		c3.3,7,7.4,12.3,11.4,16.3c7.8,7.9,15.2,10.6,15.7,10.9c0.6,0.2,1.1,0.5,1.5,0.9c0.4,0.4,0.8,0.9,1,1.4c0.5,1.1,0.5,2.2,0,3.2
		c-0.2,0.2-5.4,12.2-12.5,28.4c0.2-0.1,0.4-0.2,0.4-0.2c12.2-3.9,19.1-4.2,22.2-0.7c0.2,0.3,0.5,0.5,0.6,0.8
		c2.1,3.1,0.8,6.9-6.9,18.9l13.3,2.4c-1-19.1-2.3-33.2-2.3-33.5C339.1,384.2,339.8,382.8,340.7,382z"/>
	<path class="st4" d="M352.3,347.7c6.5,6.1,13.7,12.7,20.9,19.1c4.7-12.3,7.4-24.5,5.3-33.8c-5.8-25.9-43.8-59.5-70.1-110.3
		c8,31.7,17.7,60,27,75.1c13.8,22.4,26.7,33.6,33.8,39.6c5.1,4.3,7.8,6.7,7.4,10.4c-0.5,3.2-3.5,4.8-4.5,5.3
		c-1.2,0.6-2.5,0.9-3.9,0.9C364,354,358.6,351.6,352.3,347.7z"/>
	<path class="st4" d="M597.4,412.7c-1.8-1.1-3.5-2.2-5.1-3.2c-3.5,3.2-6.1,6.4-6.9,8.8c-1,3.3-3.6,7.7-7.2,13
		c7,14.7,19.3,24.5,33.2,31.2v-38.1C605.2,419.5,600.7,415.7,597.4,412.7z"/>
	<path class="st4" d="M299.5,402.7c-1.1-15.6-2.3-32.4-3.5-49.6c-7.1-9.1-13.5-22.3-15.5-41c-1.4-12.8-4-23.5-6.7-33.8
		c-3.1-12.3-6-23.7-5.8-36.6c0.2-13,3.5-27.4,12.8-45.7c2.5-4.8,4.9-9.7,7.1-14.4c0-0.6,0-1.2,0.1-1.8c0.2-4,0.6-8.3,1.1-12.8
		c-4.9-31.4-6.9-61.1-4.2-80.7c-7,27.3-13.2,57.6-23.2,88.2c-26.3,80.3,20.7,210,29.1,232.2c0,0,0,0,0,0c0,0,0-0.1,0-0.1
		C293.9,405.2,296.7,403.9,299.5,402.7z"/>
	<path class="st4" d="M289.5,169.6c-0.1-0.9-0.3-1.7-0.4-2.6c-0.6,4.5-1,8.7-1.1,12.8c0,0.6,0,1.2-0.1,1.8c0.9-1.9,1.8-3.7,2.7-5.6
		C290.2,173.9,289.9,171.7,289.5,169.6z"/>
	<path class="st4" d="M296,353.1c1.2,17.2,2.3,34,3.5,49.6c0.8-0.3,1.5-0.7,2.3-1c6.2-13.8,11.6-26,14.2-31.9
		C311.3,367.4,303.3,362.4,296,353.1z"/>
	<path class="st4" d="M571.7,377.8C571.7,377.8,571.7,377.8,571.7,377.8c3.5,2.7,7.2,5.3,9.8,7.1c0.3,0.2,0.5,0.4,0.8,0.6
		c1,0.7,1.9,1.3,2.8,2c0.8,0.6,1.6,1.1,2.2,1.7c0.3-2.4,0-8.2-0.2-10.3c-0.6-8.9-6.6-22.6-14.2-36
		C572.3,353.6,571.7,365.1,571.7,377.8C571.6,377.7,571.7,377.8,571.7,377.8z"/>
	<path class="st4" d="M401.1,119.8c-4.4,0.8-9.8,1.8-17.3,3.3c-1.2,0.3-2.4,0.5-3.5,0.7c-1.6,7.4-3.4,12.2-3.4,12.2
		S380,127.7,401.1,119.8z"/>
	<path class="st4" d="M443.1,82.4c0-7.4-0.5-11.2-1-13.1c-0.6,0.8-1.4,1.9-2.6,3.5l-10.6,39.7c4.2-0.8,8.7-1.5,13.6-2.2
		c0.7-0.1,1.4-0.2,2-0.3l0,0h0C444.1,106,443.1,95.2,443.1,82.4z"/>
	<path class="st4" d="M518.1,79c23.8-10.3,36.8,15.1,45,53c26.2,31.3,49.7,68.7,39,81c-6.2,7.2-5.4,10.1,0.3,26.4
		c2.4,6.6,5.3,14.7,8.5,25.8c0.2,0.6,0.3,1.2,0.5,1.8V115.5c-9.2-15.9-18.1-33.4-20.7-61.8c0,0.1,0.1,0.2,0.1,0.3c0,0,0-0.1,0-0.1
		c0-0.1-0.1-0.2-0.1-0.3c0-0.1,0-0.2,0-0.3C581.8,33.7,572.8,15.4,564,0H440.8c-1.2,3.1-2.8,6.8-4.5,10.8
		C454.2,23.5,481.7,51.4,518.1,79z"/>
	<path class="st4" d="M512.4,81.8c1.2-0.6,2.4-1.3,3.8-1.9c0.6-0.3,1.3-0.6,1.9-0.9c-36.4-27.7-63.9-55.6-81.8-68.2
		c-2.5,5.7-5.5,12-8.9,18.4C460.8,41.7,488.4,61.5,512.4,81.8z"/>
	<path class="st4" d="M611.4,412.1v-19c-2.3,1.9-4.7,3.9-7.3,6c-1.8,1.3-3.4,2.6-5.2,4.1c1.1,0.9,2.1,1.8,3.2,2.8
		C605.2,407.9,608.3,409.9,611.4,412.1z"/>
	<path class="st4" d="M326.3,404.3c0.6-1,1-1.8,1.4-2.5c-3.6,0.2-10.4,1.7-20.3,5.7c-0.7,1.6-1.5,3.2-2.2,4.8l14.4,2.6
		c1.3-2,2.6-3.9,3.7-5.7c0.4-0.6,0.7-1.2,1.1-1.7C325.1,406.4,325.7,405.3,326.3,404.3z"/>
	<path class="st4" d="M294.3,78.5c-4,13.8-3.8,37.1-0.7,63.9c11-49,35.6-107.8,50.9-120.7c10.5-8.9,28-15.4,44.9-18.2
		c0.7-1.1,1.4-2.2,2.4-3.5h-61.3c-0.6,0.4-1.1,0.8-1.6,1.2C314.5,22.5,301.9,51.8,294.3,78.5z"/>
	<path class="st4" d="M336.9,55.9c8.3-17.9,28.4-8.4,39,11.9c0,0,0,0,0,0c0,0,0,0.1,0,0.1c7.1-4.6,13.7-8.2,18.6-10.2
		c0.4-0.2,0.9-0.4,1.3-0.6c0.9-0.5,1.8-1,2.7-1.7s1.8-1.4,2.7-2.2c1.8-1.7,3.6-3.6,5.4-5.9c0.9-1.1,1.8-2.3,2.7-3.5
		c1.3-1.8,2.7-3.8,4-5.9c0.9-1.4,1.7-2.8,2.6-4.2c-4.2-1.3-8.5-2.6-12.8-3.7c-0.5-0.1-1-0.3-1.5-0.4c-13.5-3.8-15.6-11.1-15.6-15.9
		c0-0.6,0-1.1,0.1-1.6c0.2-1.6,0.9-4.6,3.4-8.7c-17,2.8-34.5,9.3-44.9,18.2c-15.3,12.9-39.9,71.7-50.9,120.7c0.3,3,0.7,6,1.1,9.1
		C301.6,108.8,330.1,70.7,336.9,55.9z"/>
	<path class="st4" d="M349.2,413c2.9-4.5,6.9-11.1,11.1-18.7c-3.9-1.2-8.1-2.5-12.5-3.9C348.1,395.5,348.7,403.5,349.2,413z"/>
	<path class="st4" d="M381.9,115c0.1,0,0.3-0.1,0.5-0.1c21-4.2,26.2-4.8,36.6-5.9c0.8-0.2,1.6-0.2,2.6-0.3l10.6-39.1
		c0.2-0.3,0.3-0.8,0.5-1.1c3.2-5.1,7.2-10.3,12.2-8.8c4.8,1.3,6.6,7.4,6.6,22.3c0,10.7,0.8,20,1.1,24.7c8.4-0.5,19.2-2.5,30-4.9
		c-0.1,0.1-0.2,0.1-0.4,0.2c0.1,0,0.2-0.1,0.4-0.1c6.8-3.4,8.6-7.8,22.5-16c-26.1-21.8-51.9-38.7-81.3-49.5c-1,1.6-1.9,3.3-2.9,4.8
		c-1,1.6-2,3.1-3,4.6c-1.5,2.2-3.1,4.4-4.8,6.4c-4.9,6-10,10.7-15.4,12.8c-4.9,2-11.5,5.5-18.6,10.2c0.4,1,0.7,2,1,3.1
		C383.8,91.1,383.4,104.3,381.9,115z"/>
	<path class="st4" d="M603.2,267.6c-3.2-10.9-6.1-18.9-8.3-25.5c-0.4-1.1-0.7-2.1-1.1-3.1c6.2,25.6,12.1,52.8,17.6,80v-12
		C609.4,293.2,606.6,279.3,603.2,267.6z"/>
	<path class="st4" d="M596,207.7c2.1-2.4,1.3-13.9-16.6-41c-3.2-4.7-6.6-9.5-10.2-14.4c7,20.2,13.9,44.1,20.6,70.1
		C589.6,217.4,591.4,213.1,596,207.7z"/>
	<path class="st4" d="M595.5,378.2c0.4,7.5,0.5,12.8-1.7,16.1c0.5,0.6,1.1,1.1,1.4,1.8c1.3-1.1,2.7-2.2,4.2-3.4
		c4.3-3.4,8.9-7.1,12-10.2v-63.4c-5.5-27.3-11.4-54.5-17.6-80c-2.4-6.9-4-12-4.1-16.6c-6.6-26-13.5-50-20.6-70.1
		c-0.9-1.2-1.9-2.4-2.8-3.7c1.6,9.3,3,19.1,4.3,29c0,0.1,0.1,0.1,0.1,0.2c0.5,0.2,0.9,0.6,1.3,1c0.2,0.2,0.3,0.5,0.4,0.7
		c0.1,0.3,0.2,0.5,0.2,0.8c0,0,0,0,0,0c0.1,0.3,0.1,0.5,0.1,0.8c0,0,0,0.1,0,0.1c0,0.8-0.2,1.6-0.5,2.3c-0.2,0.3-0.5,0.6-0.7,0.9
		c0,0,0-0.1,0-0.1c0,0-0.1,0.1-0.1,0.1c1.4,11.5,2.7,23.3,3.9,34.8c1.5,14.3,2.2,26.9,2.4,38.7c0,0.1,0.1,0.1,0.1,0.2
		c0,0.1,0,0.1,0,0.2c7,12.5,6.9,23.2,4.6,31.3c0,0,0,0.1,0,0.1c0,0,0,0,0,0.1c-1.8,6.4-4.4,16.8-7.3,28.2c0,0.2,0,0.4,0,0.6
		c-0.1,0.2-0.1,0.4-0.2,0.6c-0.3,3.2-0.6,6.3-0.7,9.5C585.1,346.4,594.5,365.9,595.5,378.2z"/>
	<path class="st4" d="M402.6,0.2c-0.7,0.7-1.3,1.3-1.9,2c10.6-0.7,20.2,0.4,27,3.5c0.6,0.3,1.2,0.6,1.9,0.9c1-2.3,2-4.5,2.9-6.6h-30
		c-0.1,0.1-0.1,0.1-0.2,0.2H402.6z"/>
	<path class="st4" d="M394,14.2c0,2,1.3,5.6,11,8c5.1,1.3,10.1,2.7,14.9,4.3c3.6-6.6,6.9-13.5,9.7-19.9c-0.6-0.3-1.3-0.7-1.9-0.9
		c-6.8-3.1-16.4-4.2-27-3.5c-3.9,4.2-6.2,8.1-6.6,11.2C394.1,13.6,394,13.9,394,14.2z"/>
	<path class="st3" d="M419.8,117.4c1.6-0.2,3.4-0.4,5.3-0.6c1.6-0.2,2.9-1.3,3.4-2.9l0.4-1.3c-11.6,2.2-20.7,4.7-27.8,7.3
		C408.8,118.6,413.3,118.1,419.8,117.4z"/>
	<path class="st3" d="M590.7,53.3c0,0.1,0.1,0.2,0.1,0.3c0,0.1,0,0.2,0,0.3c3.8,8.5,7.4,17.2,11,26c3.3,8.1,6.5,16.4,9.6,24.7v-5.8
		c-6.3-12.8-11.3-27.5-12.9-48.6c-1.4-16.1-8.4-33.9-19-50.1h-9.1c11.5,16.3,18.9,34.7,20,50.3C590.5,51.3,590.6,52.3,590.7,53.3z"
		/>
	<path class="st3" d="M590.7,53.3c0,0.1,0,0.2,0,0.3c0,0.1,0.1,0.2,0.1,0.3c0-0.1,0-0.2,0-0.3C590.8,53.5,590.7,53.4,590.7,53.3z"/>
	<path class="st3" d="M563,132.1C563,132.1,563,132.1,563,132.1C563,132.1,563,132,563,132.1c-1-1.3-2-2.5-3.1-3.8
		c1.6,3.6,3.1,7.5,4.7,11.5C564.1,137.2,563.5,134.6,563,132.1z"/>
	<path class="st3" d="M571.7,377.9C571.7,377.9,571.7,377.9,571.7,377.9C571.7,377.8,571.6,377.8,571.7,377.9
		c-0.1-0.1-0.1-0.1-0.1-0.2c-4.7-3.7-8.7-7.6-8.4-9.8c0.8-4.7,3.5-16.7,6.9-30.3c1,1.6,1.9,3.3,2.9,5c0.3-4.6,0.6-9.3,1-13.7
		c0,0,0.1,0.1,0.1,0.1c0,0,0-0.1,0-0.1c-0.4-0.7-0.8-1.3-1.2-2c0.6-2.5,1.3-5.1,1.9-7.6c0-0.2,0-0.4,0.1-0.6c0,0,0,0,0,0
		c0,0,0,0,0,0c1.6-19.5,3.1-38.2,2.8-60.3c0,0,0,0,0,0c0-0.1,0-0.2,0-0.3c-5-8.9-13.4-18.5-27-28.7c-4.5-3.4-6.7-6.7-6.9-10.4
		c-0.4-8.8,10.8-18.7,19-25.9c3.7-3.2,6.7-6,8.6-8.5c0,0,0,0,0,0c0,0,0.1-0.1,0.1-0.1c-0.3-2.3-0.6-4.4-0.9-6.7l0,0c0,0,0-0.1,0-0.1
		c-11.8-6.5-18.5-28.4-24.9-49.4c-0.8-2.1-1.5-4.4-2.1-6.6c7.7,8.4,15.5,17.5,22.6,26.7c-0.5-2.9-1-5.8-1.6-8.5
		c-1.5-4-3.1-7.9-4.7-11.5c-7.4-8.7-15.1-16.9-22.2-23.6c-1.8-4.7-3.5-9-5.6-13c-0.8-1.8-2.9-2.7-4.8-2.1c0,0-1.8,0.6-4.5,1.4
		c-3.4-3-6.9-6.1-10.5-9.1c-2.7,1.4-5.1,2.8-7.2,4c3,2.5,6.1,5.1,9.1,7.8c-8.5,2.5-20,5.6-31.6,8.2c-5.7,2.9-15.1,5-38.1,8.2
		c0.1,1,0.2,1.6,0.2,1.7c0.3,2.1,1.9,3.5,4,3.5c19.8,0,55.7-10.1,72.3-15.1c2.1,1.9,4.4,3.8,6.6,5.9c1.2,0.9,2.3,1.9,3.4,3
		c2.5,7.1,4.8,14.4,7,21.8c6.6,21.4,12.8,41.8,24.8,51.4c-1.6,1.5-3.5,3.2-5.4,5c-9.5,8.3-22.3,19.7-21.8,32.2
		c0.3,6.1,3.7,11.7,10.1,16.5c16.4,12.1,34.6,31,29,51.7c-1.9,6.9-4.8,18.1-7.8,30c-7.7-11.2-15.5-20.7-20.8-25.5
		c-10.4-9.3-28,6.7-50.1,26.9c-15.2,14-32.6,29.8-44.8,33.2c-23.9,6.6-37-7.3-62.9-34.9c-2.7-2.9-5.6-6-8.5-9
		C350,277.2,338,167.5,336.1,131.5c-0.8-14.4,10.7-29.7,24.5-42c2.6,6-0.5,21.5-3.8,31.7c-0.3,1.1-0.2,2.2,0.3,3.2
		c1.5,2.7,4.7,2.4,7.7,2.1c3.3-0.4,8.5-1.3,15.5-2.7l0,0h0c0.6-2.6,1.1-5.6,1.6-8.8c-7.9,1.5-12.7,2.3-15.7,2.8
		c2.4-8.9,5.6-25.3,0.5-33.6c4.2-3.3,8.4-6.3,12.4-9c-0.9-2.6-2-5-3.2-7.3c0,0,0,0,0-0.1c-5.1,3.4-10.5,7.3-15.8,11.7
		c-3.4-0.8-7.4,0-12.2,2.2c-20.5,9.6-32.9,38.1-47.5,71.1c-1.5,3.3-2.8,6.3-4.2,9.5c-0.6-3.6-1.1-7.2-1.5-10.8
		c-2.8,17.5-2,35.7,5.4,53.4c2.6,6.2,5.4,12.1,8.3,17.8c-3.8-15-7.1-30.7-9.8-46.2c3.2-6.9,6.2-13.8,9.1-20.5
		c12.9-29.5,24.3-55,40.3-65.1c-11.8,12.5-20.6,26.9-19.8,41.2c0.2,1.4,8.5,142.6,46.4,181.8c2.9,3,5.6,5.9,8.3,8.8
		c26.2,28,42.2,44.8,70.7,37c14.1-3.8,31.4-19.7,48-34.9c14.3-13.2,34.2-31.3,39.3-26.8c5.7,5.3,14.9,16.9,23.5,30
		c-4.2,16.7-8,32.7-8.8,38.6c-1,7.3,6.9,14,16,20.6c0-3.2,0-6.4,0-9.4C571.6,377.8,571.7,377.9,571.7,377.9z"/>
	<path class="st3" d="M571.6,377.7C571.6,377.7,571.6,377.8,571.6,377.7c0,0.1,0.1,0.1,0.1,0.2C571.7,377.8,571.7,377.8,571.6,377.7
		C571.7,377.8,571.6,377.7,571.6,377.7z"/>
	<path class="st3" d="M375.9,67.9C375.9,67.9,375.9,67.8,375.9,67.9C375.9,67.8,375.9,67.8,375.9,67.9
		C375.9,67.9,375.9,67.9,375.9,67.9C375.9,67.9,375.9,67.9,375.9,67.9z"/>
	<path class="st3" d="M577.8,258.5c0-0.1,0-0.1,0-0.2c0-0.1-0.1-0.1-0.1-0.2c0,0.1,0,0.2,0,0.3c0,0,0,0,0,0c0,0,0-0.1,0-0.1
		C577.7,258.4,577.8,258.4,577.8,258.5z"/>
	<path class="st3" d="M571.5,184.5c0,0-0.1,0.1-0.1,0.1c0,0,0,0,0,0C571.4,184.6,571.5,184.5,571.5,184.5
		C571.5,184.5,571.5,184.5,571.5,184.5z"/>
	<path class="st3" d="M575,318.1c0,0.2-0.1,0.4-0.1,0.6c0,0,0,0,0,0c0,0.2,0,0.4-0.1,0.6c0.1-0.2,0.1-0.4,0.2-0.6
		C575,318.5,575,318.3,575,318.1z"/>
	<path class="st3" d="M167.7,1030c0.3,1.1,0.5,2.3,0.8,3.4c0.1,0.3,0.2,0.7,0.2,1c1.2-2.9,2.2-4.6,2.2-4.6
		C169.9,1029.9,168.8,1029.9,167.7,1030z"/>
	<path class="st3" d="M303.2,451.6c-0.3-3.4-0.5-7-0.8-10.7c-4.1,6.5-7.5,12.2-9.7,17C296.6,455.6,300.1,453.5,303.2,451.6z"/>
	<path class="st3" d="M161,1079.4h8.3c0,0,0.1-0.2,0.3-0.6c-2.3-3.1-3.8-6.4-4.8-9.9C163.3,1073.7,161.9,1077.5,161,1079.4z"/>
	<path class="st3" d="M16.4,945.5c-6.2-14.1-9.9-29.8-8-45.7C10,885.9,23.1,850,44.2,801c3.5,6,8.1,13,12.9,19.8l3.8-8.7
		c-5.4-7.8-10.1-15.4-13-20.9c0.4-0.7,0.7-1.5,1-2.1c4.7,1.6,11.3,4.5,18.6,8l5.7-12.9c-5.3-4.6-10.9-9.5-15.8-14
		c0.2,0,0.2-0.2,0.2-0.2c2.5-5.6,5.1-11.1,7.5-16.5c1-0.3,1.6-1.1,2.1-2.1c0.5-0.8,0.5-1.7,0.2-2.7c2.9-6.2,5.8-12.3,8.5-18.1
		c4.2,1.5,8.8,3.2,13.3,5.3c1.8,0.8,3.7,0.3,4.8-1.1c1.1-1.5,1.1-3.6,0-5c-0.9-1.1-3.2-4.9-2.2-7.8c1-2.8,5-4.2,8-5
		c1-0.2,2-0.4,3-0.4l3.2-7.3c-3-0.2-5.9,0-8.6,0.7c-7.4,1.8-11.8,5.1-13.6,10.1c-0.6,1.9-0.8,3.8-0.6,5.6c-1.4-0.5-2.9-1.1-4.3-1.6
		c16.2-34.1,28.8-58.2,32.2-62c4.3-4.8,11.8-24.2,25.9-60.9c20-52,50.2-130.7,67.8-143.5c17.2-12.4,31-17.7,45.4-23.5
		c9.1-3.5,18.6-7.4,29.3-13c6.3-3.2,11.9-6.1,17-8.3c-3.2,6.9-6.4,14-9.6,20.7c-4.7,10-6.6,21.1-6.8,31.6c2.9-1.6,5.7-3.2,8.4-4.8
		c0.6-8.2,2.2-16.5,5.7-24c2.3-4.7,4.6-9.6,6.8-14.5c-0.3-3.4-0.5-6.8-0.8-10.3l-8-1.5c0,0-0.5-1.2-1.3-3.3
		c-4.8,2.2-9.7,4.6-14.7,7.3c-10.3,5.5-19.5,9.2-28.5,12.7c-14.9,5.9-29.1,11.4-47.2,24.5c-19.7,14.1-48,87.9-70.7,147.2
		c-10.9,28.1-21,54.5-24.5,58.5c-4.2,4.7-17.6,30.9-33.8,64.9c-7.7-2.1-15.3-3-19.5-0.3c-2.4,1.5-3.7,3.9-3.7,6.9
		c0,7.1,3.1,13.3,6.1,17.8c-8.5-0.1-17.6,0.8-20.3,5.3c-0.8,1.4-1.8,4.1,0.6,7.8c1.9,2.8,7.1,8,13.3,13.9c-1.2,2.5-2.3,4.9-3.4,7.5
		c-3.5-0.6-4.6,0.3-5.4,0.8c-1.6,1.1-2.4,3-1.9,5.1c0.3,1.5,1.1,3.4,2.2,5.8C19.7,838.2,2.6,882,0.5,899.1c-0.3,2.4-0.4,4.8-0.5,7.1
		v4.3c0.6,23.1,11,45.3,22.9,62.1C20.1,963.2,18,953.7,16.4,945.5z M63.1,786.7c-4.4-2.1-8.1-3.5-11-4.5c0.6-1.4,1.1-2.7,1.6-3.8
		C56.9,781.1,59.9,784,63.1,786.7z M56.1,727.5c1.4-1,5.9-0.5,11.8,1c-2.1,4.5-4.3,9-6.4,13.6c-2.7-3.5-5.4-8.6-5.4-14.4V727.5z
		 M41.3,754.7c2.4-0.8,8.4-1.3,14.9-1.1c-1.7,3.7-3.3,7.4-5.1,11.2C46.4,760.5,42.9,756.9,41.3,754.7z"/>
	<path class="st3" d="M286.6,508.6c0.7,1.7,2.4,2.9,4.2,2.7c1.7-0.3,3.2-1.7,3.5-3.5c0.2-0.9,3.2-24.3,3.2-38.9
		c0-6.8,13.6-26.9,22.7-40.4c3.2-4.7,5.8-8.6,8-11.9l-8.6-1.6c-1.9,2.8-3.8,5.7-5.7,8.4c-4.3,6.3-8.2,12.2-11.5,17.5
		c0.3,3.7,0.6,7.3,0.8,10.7c-3.1,1.9-6.6,4-10.5,6.2c-1.9,4.2-3,7.7-3,10.5c0,3.8-0.3,8.7-0.6,13.3c-0.8-6.5-1.2-13.8-0.7-21.3
		c-2.7,1.5-5.5,3.1-8.4,4.8C279.5,487.6,286.1,507.4,286.6,508.6z"/>
	<path class="st3" d="M176.3,1031.5c-4.8-18.9-8-39.5-8-39.7c-0.3-2.3-2.3-3.7-4.5-3.4c-38.4,5.4-103.5,10.4-115.3,0.8
		c-10.3-8.5-23.6-24.5-32.1-43.7c1.6,8.3,3.7,17.7,6.5,27.2c6.9,9.7,14.3,17.6,20.6,22.8c17,13.9,97,4.1,117.6,1.4
		c1.1,6.4,3.5,19.8,6.6,33.1c1.1-0.1,2.2-0.1,3.2-0.2c0,0-0.9,1.7-2.2,4.6c2.1,9.9-0.9,24.3-4,34.5c1,3.4,2.5,6.8,4.8,9.9
		C171.3,1074.6,181,1050.2,176.3,1031.5z"/>
	<path class="st3" d="M300.2,411.5c0.3,3.5,0.5,6.9,0.8,10.3c1.4-3.1,2.9-6.3,4.3-9.4L300.2,411.5z"/>
	<path class="st3" d="M168.6,750.5c-0.2-0.2-0.4-0.4-0.6-0.7c-1.3-1.8-0.8-4.3,1-5.6c0.5-0.4,1.1-0.7,1.6-1.1
		c-22.9-16.3-46.4-32.6-64.7-33.9l-3.2,7.3C119.2,715.5,146.4,734.6,168.6,750.5z"/>
	<path class="st3" d="M93.9,806.4c1.1-1.8,0.8-4-0.8-5.3c-4.6-3.8-12.1-10.1-20-16.9l-5.7,12.9c6.9,3.2,14.3,7,21.1,10.6
		C90.5,808.6,92.8,808.2,93.9,806.4z"/>
	<path class="st3" d="M75.4,855.8c-1.8,2.9-4,6.6-1.8,10.1c3,4.6,9.9,6.4,60.6,2.2c22.7-1.9,47-4.5,70.5-6.9
		c18.4-1.9,36.8-3.8,55-5.6c-5.5,12.3-13.1,28.1-22.1,43.2c-2.5,4-4.8,7.5-6.7,10.7c-14.4,22.9-16.5,27.8-6.6,67.4
		c7.2,28.8,48.4,36.2,92.1,44c30.7,5.5,62.5,11.2,85.9,24.2c20,11.2,37.7,17.4,57.1,20c17.9,2.4,35.8,1.8,58.5,0.8
		c14.7-0.6,31.1-1.3,50.5-1.1c14.7,7.7,26.4,14.6,26.4,14.6l14.6-0.1c0,0-18.1-10.8-23.7-13.8c10.3,0,18.7-0.5,25.7-1.4v-8.4
		c-8.1,1.1-18.7,1.5-32.9,1.3c-2.7-0.2-5.4-0.2-8-0.2c-18.1-9.5-41.4-20.8-60.2-26.9c-21.6-7.2-85.1-19.1-104.1-22.6
		c-15.6-2.9-62.2-11.3-78.5-12.7c1.4-6.9,6.6-23.2,11.2-38.3c22-5.6,50.9-16.9,66.1-23.1c41.8-17,103.1-10.9,103.7-10.9
		c1.8,0.1,3.7-1.1,4.2-2.9c1.3-4.4,20-66.2,35.3-119.8c1.4-0.9,2.9-1.7,4.3-2.7c8.5-5.1,16-9,22.6-12.5
		c24.2-12.6,36.4-18.9,32.2-50.6c-1.7-13.4-6.2-24.8-10.2-34.9c-2-4.5-3.6-8.8-5-13c3.7-4.4,7.6-9.3,11.4-13.9
		c2.7-3.3,5.3-6.5,7.9-9.7v-12.5c-4.4,5.6-9.1,11.3-13.5,16.8c-2.7,3.2-5.3,6.3-7.7,9.3c-1.5-9.2-0.3-18.4,5.9-29.5
		c4.7-8.2,10-17.3,15.3-26.3v-16c-7.6,12.7-15.8,26.5-22.7,38.6c-9.1,15.9-8.8,29-5.4,41.5c-12,15.2-20.9,28.2-22.2,36.8
		c-1.3,8.3-9.8,39-19.7,73.8c-22.9,16.2-34.9,36.7-43.2,50.8c-4.1,6.9-7.7,13-10.7,15.2c-5.9,4.4-19.6,1-42.2-4.6
		c-12.1-3-27.1-6.7-45.7-10.4c-16.5-3.2-39.4-4.2-67.7-3.2c-18.7,0.4-39.2,1.9-60.3,3.8c2.9-6.9,4.5-11.2,4.5-11.4
		c0.5-1.1,0.3-2.6-0.5-3.7c-0.8-1.1-2-1.6-3.4-1.6l-63.2,3c-0.8-15-5.4-66.4-30.2-83.9l-1.2-0.8c-1.7,1.2-3.2,2.3-4,2.8
		c-0.6,0.6-1.4,0.7-2.2,0.7c-0.6,0-1.3-0.1-1.9-0.4l5.2,3.6c25.1,17.8,27,81.1,27,81.7c0,1.1,0.5,2.1,1.3,2.9
		c0.8,0.8,1.8,1.1,2.9,1.1l61.1-2.9c-0.9,2.6-2.2,5.6-3.8,9.3c-19.7,1.7-39.7,3.8-59.5,5.9c-23.5,2.4-47.8,5-70.4,6.9
		c-11.4,1-44.8,3.9-52.3,1.8c0.3-0.6,0.7-1.3,1.1-2.2c2.4-4,7.1-11.7,0.2-19.4c-6.6-7.2-14.5-17.7-21.4-27.8l-3.8,8.7
		c6.7,9.6,13.8,18.9,19.4,25.2C79.1,848.9,78.3,851.2,75.4,855.8z M569.6,721.8c0.9-6.1,8.1-16.8,17.4-28.8c0.9,2.9,2,5.6,3.2,8.6
		c4,10.1,8.2,20.3,9.8,33c3.6,26.1-4.4,30.3-27.8,42.6c-5.9,3.1-12.5,6.6-20,10.9C561.1,756.7,568.5,729.8,569.6,721.8z
		 M398.4,853.2c18.4,3.7,33.4,7.4,45.4,10.4c26.4,6.6,39.8,9.8,48.8,3.4c4.4-3.2,8.2-9.6,13-17.8c7.2-12.3,16.5-28,32.5-41.8
		c-13.1,45.5-27.7,93.9-31.5,106.4c-13.6-0.9-65.7-3.8-104.1,11.9c-26.4,10.8-46.2,17.5-60.3,21.5c12.7-40.9,21.8-72.6,21-83.8
		c-0.3-4.4-1.3-10.4-5.9-13c-0.5-0.1-1.1-0.4-1.6-0.6C372.9,850,387.2,851.1,398.4,853.2z M353.3,857.6c0.1,0,1.4,1,1.9,6.6
		c0.9,10.9-12.2,53.3-22.1,85.5c-9.2,2.2-14.7,2.5-16.6,1.9c-1.9-7.4-1.8-59.5,7.6-78.9c1.9-4,3.4-4.8,4-5c5-1.4,9.6-3.8,13.8-5.9
		C345.9,859.7,351.7,856.8,353.3,857.6z M268.6,854.5c22.6-2.1,44.4-3.7,64.4-4.3c5.7-0.1,11.3-0.3,16.6-0.3
		c-3.4,0.8-7.1,2.5-10.9,4.6c-4,2-8.1,4.1-12.3,5.4c-3.7,1.1-6.5,4.2-9.1,9.3c-10.1,20.7-11.4,77.2-8,85.7c0.4,1.2,1.4,2.8,3.8,3.8
		c3.3,1.4,9.6,0.9,17.4-0.5c-12.3,39.9-12,40.4-9.4,42.8c0.9,0.9,2.4,1.4,3.8,1.1c0,0,0,0,0.2,0c11.5,0,150,24,183.3,35.1
		c13.2,4.5,29.7,12,44.6,19.4c-13.1,0.1-24.8,0.6-35.5,1.1c-44.2,1.8-70.9,2.9-111.5-19.7c-24.5-13.6-56.9-19.5-88.3-25.1
		c-41.1-7.4-79.8-14.3-85.7-38c-9.3-37.4-7.7-40.2,5.6-61.3c1.9-3.2,4.1-6.7,6.7-10.9C254.4,885.7,262.8,867.6,268.6,854.5z
		 M324.5,994.5c-0.8,0-1.3,0-1.6,0.2c0.3-0.2,0.8-0.2,1.1-0.2C324.1,994.5,324.3,994.5,324.5,994.5z"/>
	<path class="st3" d="M170.6,743.1c-0.5,0.4-1.1,0.7-1.6,1.1c-1.8,1.3-2.3,3.8-1,5.6c0.2,0.3,0.4,0.5,0.6,0.7
		c0.2,0.2,0.5,0.3,0.7,0.5l0.2,0.2c0.6,0.3,1.2,0.4,1.9,0.4c0.8,0,1.6-0.1,2.2-0.7c0.8-0.6,2.3-1.6,4-2.8l-4.2-3
		C172.5,744.4,171.5,743.8,170.6,743.1z"/>
	<path class="st3" d="M571.6,388.3c0-0.1,0-0.1,0-0.2c-20.1-9.4-37.2-13-49.1-7.1c-16.8,8.5-33.5,11.7-44.5,13.8
		c-10.8,2.1-16.1,3.1-17.4,7.7c-1.1,3.9,2.3,6.7,3.4,7.7c7.5,6.5,24.4,2.4,51.3-4.6c16.5-4.3,33.6-8.8,45.6-8.8
		c3.9,0,7.2,0.1,10.1,0.3c0.3,0.1,0.6,0.3,0.8,0.4C571.7,394.4,571.6,391.2,571.6,388.3C571.6,388.3,571.6,388.3,571.6,388.3z
		 M513,398c-15.5,4.2-36.6,9.6-43,6.9c2.4-0.7,5.9-1.3,9.1-2c11.5-2.2,28.7-5.6,46.5-14.4c6.6-3.3,15.9-2.5,26.6,1
		C540.5,390.8,526.6,394.5,513,398z"/>
	<path class="st3" d="M285,86c9.4-36,20.3-66.6,43.8-84.8c0,0.1-0.1,0.1-0.1,0.2c0.1-0.1,0.1-0.1,0.2-0.2c0.3-0.4,0.6-0.8,0.8-1.2
		h-9c-14.4,22.2-26.5,51.2-33.8,76.8C286.1,79.5,285.5,82.6,285,86z"/>
	<path class="st3" d="M364,387.4c-1.2,2.4-2.4,4.7-3.7,6.9c45,13.7,46.5,11.1,48,8.4c0.4-0.8,1.6-3.5-1.8-6.4
		c-6-5.1-19.4-16.8-33.3-29.4c-1,2.7-2.1,5.5-3.3,8.2c8.9,8,17.3,15.3,23.2,20.4C385.6,393.6,375.1,390.7,364,387.4z"/>
	<path class="st3" d="M574.7,421.9c0,0,0-0.1,0-0.1c-3.2,5.2-8.4,12.2-13.4,19c-9.7,13.4-19.8,27.2-23.5,37.1
		c-4,10.9-7.2,25.3-9.3,34.9c-14.9-25.3-54.5-89.5-77.1-95.1l-4-1c-13.3-3.3-21.5-5.4-27.7-1.4c-5.6,3.7-8,11.2-9.9,21.6
		c-5,26.4-20,67.1-31.7,91.9c-2.9,6.1-5.4,12.2-7.5,18.3c-10.9-23.6-21-48.4-20.2-67.6c0.9-22.2-0.1-47.5-1.2-66.4
		c-0.6,1-1.2,1.9-1.8,2.7c-0.3,0.4-0.5,0.8-0.7,1.1c-0.5,0.7-0.8,1.2-1.1,1.7c-0.4,0.6-0.7,1-0.7,1l-3.3-0.6
		c1,18.1,1.7,40.7,0.9,60.5c-0.9,23.2,12,52.4,24.5,79.1c-5.8,18.9-8.8,37.6-11.7,54.9c-1.3,7.8-2.2,15.2-3.2,22.4
		c-0.5,4.2-1.1,8.2-1.6,12c-9.6,6.7-18.8,14.1-25,23.2c-11.5,17-7.4,28.2-0.8,45.2c0.1,0.3,0.1,0.5,0.3,0.8
		c-4.8,10.7-8.8,22.6-11.4,38.9c-4.8,30.6-1.8,65.2-1.6,66.6c0.2,2.1,1.9,3.7,4,3.7h27.2c0.8,0,1.8-0.3,2.4-0.8
		c5.4-4,5.4-26.4,0-63.1c-3-20.1-8-34.5-12-45.2c2.4-5.3,4.9-10.3,7.8-15.7c1.6-3.2,3.5-6.7,5.3-10.4c6.2-12.4,9.1-25.3,11.2-38.8
		c1.7-1.1,3.3-2.4,5.1-3.5c16.5-11.4,32.2-22.1,32.2-38c0-11.1-8.3-28.8-18.1-49.5c-0.7-1.1-1.2-2.2-1.8-3.5
		c2.6-8.5,5.8-16.8,9.8-25.3c12.1-26,27.2-66.5,32.3-93.9c1.8-9.6,3.7-14.5,6.4-16.3c3.5-2.1,10.5-0.3,21.4,2.4l4.2,1
		c19.5,5,62.5,74.3,77.4,100.6c0.8,1.4,2.6,2.1,4.2,1.9s2.9-1.6,3.2-3.2c0-0.3,4.8-27.1,11-44.2c3.2-8.8,13.4-22.7,22.4-34.9
		c4-5.3,7.6-10.2,10.5-14.7C576.8,428.3,575.6,425.3,574.7,421.9C574.7,422,574.7,422,574.7,421.9z M337.7,763.5
		c5.6,37.8,4,50.8,3,54.6h-21c-0.7-9.6-1.9-37,1.9-61c1.9-11.7,4.5-20.9,7.5-29.2C332.3,737.4,335.5,748.8,337.7,763.5z
		 M339.5,687.6c-1.8,3.7-3.5,7-5.3,10.4c-1.6,3.1-3.2,6-4.6,9c-4.5-12.5-5.6-19.7,2.4-31.4c4.1-6.1,10-11.5,16.6-16.5
		C346.9,669,344.1,678.4,339.5,687.6z M387.3,610.7c0,11.4-13.4,20.9-27.8,30.8c0.1-1.6,0.4-3.2,0.6-4.8c0.8-7,1.7-14.4,3-22.1
		c2.6-14.8,5-30,9-45.2C380.1,586.5,387.2,602.4,387.3,610.7z"/>
	<path class="st3" d="M344.9,419.6c0,0,0.2-0.3,0.7-1c0.3-0.4,0.7-1,1.1-1.7c0.2-0.3,0.5-0.7,0.7-1.1c0.5-0.8,1.1-1.7,1.8-2.7
		c-0.5-9.6-1.1-17.6-1.5-22.7c0,0,0,0,0,0c0,0,0-0.1,0-0.1c4.5,1.4,8.7,2.7,12.6,3.9c0,0,0,0.1,0,0.1c0,0,0,0,0,0
		c1.2-2.2,2.4-4.5,3.7-6.9c-6.5-1.9-13.2-3.9-19.6-6c-0.2-0.1-0.3-0.1-0.5-0.2c-0.5-0.1-0.9-0.1-1.4,0c-0.3,0.1-0.7,0.2-1,0.3
		c-0.3,0.1-0.6,0.3-0.9,0.5c-0.9,0.8-1.6,2.2-1.4,3.5c0,0.3,1.3,14.3,2.4,33.5l-0.1,0c0,0,0,0,0,0l0,0v0L344.9,419.6z"/>
	<path class="st3" d="M364,387.4c-6.4-1.9-13.1-4-19.6-6C350.8,383.5,357.5,385.5,364,387.4z"/>
	<path class="st3" d="M342.5,381.2c0.5-0.1,0.9-0.1,1.4,0C343.4,381.1,343,381.1,342.5,381.2z"/>
	<path class="st3" d="M339.3,385.5c0,0.3,1.3,14.4,2.3,33.5l0.1,0C340.6,399.8,339.3,385.8,339.3,385.5z"/>
	<path class="st3" d="M347.7,390.3c0,0,0,0.1,0,0.1c4.5,1.4,8.7,2.7,12.5,3.9c0,0,0-0.1,0-0.1C356.4,393,352.2,391.7,347.7,390.3z"
		/>
	<path class="st3" d="M349.2,413.1c-0.6,1-1.2,1.9-1.8,2.7C348,415,348.5,414.1,349.2,413.1z"/>
	<path class="st3" d="M346.7,417c-0.5,0.7-0.8,1.2-1.1,1.7C345.9,418.2,346.2,417.6,346.7,417z"/>
	<polygon class="st3" points="341.6,419 341.6,419 344.9,419.6 	"/>
	<path class="st3" d="M401.1,119.8c7.1-2.6,16.1-5.2,27.8-7.3l10.6-39.7c1.2-1.6,2-2.7,2.6-3.5v0l0,0c0.5,1.9,1,5.7,1,13.1
		c0,12.8,1,23.6,1.4,27.6c22.5-3.1,32-5.2,37.7-8c-10.7,2.5-21.3,4.3-29.6,4.8c-0.3-4.8-1.1-14.1-1.1-24.7c0-14.9-1.8-21-6.6-22.3
		c-5-1.5-9,3.7-12.2,8.8c-0.2,0.3-0.3,0.8-0.5,1.1l-10.6,39.1c-1,0.1-1.8,0.1-2.6,0.3c-10.4,1.1-15.6,1.7-36.6,5.9
		c-0.1,0-0.3,0.1-0.5,0.1c0,0,0-0.1,0-0.1c0,0,0,0,0,0l0,0h0c-0.5,3.2-1,6.2-1.6,8.8c1.1-0.2,2.3-0.5,3.5-0.7
		C391.3,121.6,396.7,120.5,401.1,119.8z"/>
	<path class="st3" d="M442.1,69.3L442.1,69.3c0.5,1.9,1,5.7,1,13.1c0,12.8,1,23.6,1.4,27.6h0c-0.4-4-1.4-14.8-1.4-27.6
		C443.1,75,442.6,71.2,442.1,69.3z"/>
	<path class="st3" d="M382.4,115c21-4.2,26.2-4.8,36.6-5.9c0.8-0.2,1.6-0.2,2.6-0.3l10.6-39.1c0.2-0.3,0.3-0.8,0.5-1.1
		c3.2-5.1,7.2-10.3,12.2-8.8c4.8,1.3,6.6,7.4,6.6,22.3c0,10.6,0.8,19.9,1.1,24.7c8.3-0.5,19-2.4,29.6-4.8c0.1-0.1,0.2-0.1,0.4-0.2
		c-10.8,2.4-21.6,4.4-30,4.9c-0.3-4.7-1.1-14-1.1-24.7c0-14.9-1.8-21-6.6-22.3c-5-1.5-9,3.7-12.2,8.8c-0.2,0.3-0.3,0.8-0.5,1.1
		l-10.6,39.1c-1,0.1-1.8,0.1-2.6,0.3C408.6,110.1,403.4,110.7,382.4,115c-0.2-0.1-0.4,0-0.5,0c0,0,0,0.1,0,0.1
		C382.1,115.1,382.3,115,382.4,115z"/>
	<path class="st3" d="M381.9,115c-0.5,3.2-1,6.2-1.6,8.8h0C380.9,121.2,381.4,118.2,381.9,115L381.9,115z"/>
	<path class="st3" d="M281,276.3c-6.2-23.9-11-43,6.4-76.6c0.2-0.4,0.3-0.7,0.5-1c-0.1-6.7-0.1-12.5,0-17c-2.3,4.8-4.6,9.6-7.1,14.4
		c-9.3,18.2-12.6,32.6-12.8,45.6c-0.2,12.9,2.7,24.3,5.8,36.5c2.7,10.3,5.3,21,6.7,33.8c2,18.7,8.4,31.9,15.5,41
		c-0.4-5.4-0.7-10.7-1.1-16.1c-3.3-6.8-5.9-15.3-7-25.6C286.4,297.8,283.6,286.4,281,276.3z"/>
	<path class="st3" d="M285,86.2c-2.7,19.6-0.7,49.3,4.1,80.8c1-7.6,2.5-15.9,4.4-24.4c-3-26.8-3.3-50.3,0.7-64.1
		c7.6-26.6,20.1-55.8,34.5-77.1C305.2,19.6,294.4,50.1,285,86.2z"/>
	<path class="st3" d="M290.9,406.7c0.8,2,1.3,3.2,1.3,3.2l7.9,1.5c-0.2-2.8-0.4-5.7-0.6-8.6C296.7,404,293.9,405.3,290.9,406.7z"/>
	<path class="st3" d="M285,86c0,0,0,0.1,0,0.1c0,0.1,0,0.1,0,0.2c0,0,0-0.1,0-0.1C285,86.1,285,86,285,86z"/>
	<path class="st3" d="M307.4,407.5c9.9-4,16.7-5.6,20.3-5.7c-0.4,0.7-0.8,1.6-1.4,2.5c-0.6,1-1.2,2-1.9,3.1
		c-0.3,0.6-0.7,1.1-1.1,1.7c-1.1,1.8-2.4,3.7-3.7,5.7l8.6,1.6c7.7-11.9,9-15.7,6.9-18.9c-0.2-0.3-0.3-0.5-0.5-0.7
		c-3.1-3.3-10-3.1-22.1,0.8c-0.1,0-0.4,0.2-0.6,0.2c0,0,0-0.1,0.1-0.1c-0.1,0-0.1,0-0.2,0c7.2-16.2,12.4-28.3,12.6-28.5
		c0.5-1,0.5-2.1,0-3.2c-0.2-0.5-0.5-1-0.9-1.3c-0.4-0.4-0.9-0.6-1.4-0.8c-0.6-0.3-8-3-15.8-11c-3.9-4-8-9.3-11.3-16.2
		c0.4,5.4,0.7,10.8,1.1,16.1c7.3,9.3,15.3,14.4,20,16.7c0,0,0,0.1,0,0.1c0,0,0,0,0,0c-2.5,5.9-8,18.1-14.2,32
		c-0.8,0.3-1.5,0.7-2.3,1c0.2,2.9,0.4,5.8,0.6,8.6l5.1,0.9C305.9,410.7,306.7,409.1,307.4,407.5z"/>
	<path class="st3" d="M290.6,176C290.6,176,290.6,176,290.6,176C290.6,176.1,290.6,176.1,290.6,176c-0.9,1.9-1.8,3.8-2.7,5.7
		c-0.1,4.5-0.1,10.2,0,17c1.5-3.2,3.2-6.2,4.6-9.3c0,0.1,0,0.1,0,0.2c0,0,0-0.1,0.1-0.1c9,45.6,22.7,91.3,36,112.9
		c9,14.7,17.6,24.8,24.7,31.8c4.2,4.2,7.9,7.3,10.6,9.6c1,0.8,2.1,1.6,2.9,2.4c0,0,0,0,0,0c0,0,0.1,0.1,0.1,0.1
		c-6-1.3-20-11.7-25.8-15.9c-10.3-7.4-13.3-9.8-16.5-7.2c-0.5,0.5-2.5,2.4-1.1,5.8c0.3,0.7,0.9,1.7,1.8,2.9
		c6.4,8.3,26.6,27,44.5,43.1c1.2-2.7,2.3-5.4,3.3-8.2c-7.2-6.5-14.6-13.2-21.1-19.3c0.1,0.1,0.2,0.1,0.3,0.2
		c-0.1-0.1-0.1-0.1-0.2-0.2c6.3,4,11.8,6.5,16.1,6.5c1.4,0,2.7-0.3,3.8-0.9c1-0.5,4-2.1,4.5-5.3c0.4-3.7-2.3-6.1-7.4-10.4
		c-7.1-6-20-17.2-33.8-39.6c-9.2-15.2-19-43.4-27-75.1c-2.9-5.7-5.8-11.6-8.3-17.8c-7.4-17.7-8.2-35.9-5.4-53.4
		c-0.4-3-0.8-6-1.1-8.9c-1.9,8.5-3.4,16.8-4.4,24.4c0.1,0.9,0.3,1.7,0.4,2.6C289.9,171.7,290.2,173.9,290.6,176z"/>
	<path class="st3" d="M324.6,323.2c3.2-2.6,6.2-0.2,16.5,7.2c5.8,4.2,19.8,14.6,25.8,15.9c0,0-0.1-0.1-0.1-0.1
		c-6-1.3-20-11.7-25.8-15.9c-10.3-7.4-13.3-9.8-16.5-7.2c-0.5,0.5-2.5,2.4-1.1,5.8c0.3,0.7,0.9,1.7,1.9,3c-0.9-1.2-1.5-2.1-1.8-2.9
		C322.1,325.6,324.1,323.7,324.6,323.2z"/>
	<path class="st3" d="M292.6,189.5c0,0,0,0.1-0.1,0.1c9,45.5,22.7,91.1,36,112.7c9,14.8,17.7,24.9,24.8,31.9
		c-7-7-15.7-17.1-24.7-31.8C315.3,280.8,301.6,235.1,292.6,189.5z"/>
	<path class="st3" d="M312.4,397.6c-0.1,0-0.3,0.1-0.4,0.2c0,0,0,0.1-0.1,0.1c0.2,0,0.5-0.2,0.6-0.2c12.1-3.9,19-4.2,22.1-0.8
		C331.5,393.4,324.6,393.7,312.4,397.6z"/>
	<path class="st3" d="M322,363.9c-0.5-0.2-7.9-3-15.7-10.9c7.8,7.9,15.3,10.7,15.8,11c0.5,0.1,1,0.4,1.4,0.8
		C323.1,364.4,322.6,364.1,322,363.9z"/>
	<path class="st3" d="M352.3,347.7c6.3,4,11.7,6.4,15.9,6.3c-4.3,0-9.7-2.5-16.1-6.5C352.2,347.6,352.2,347.6,352.3,347.7z"/>
	<path class="st3" d="M289.1,167C289.1,167,289.1,167,289.1,167c-4.9-31.5-6.9-61.2-4.1-80.8c0,0,0,0.1,0,0.1
		C282.3,106,284.2,135.6,289.1,167z"/>
	<path class="st3" d="M287.9,181.7c0,0,0-0.1,0-0.1c-2.3,4.8-4.6,9.6-7.1,14.4c-9.4,18.2-12.7,32.7-12.8,45.7
		c0.2-12.9,3.5-27.4,12.8-45.6C283.3,191.3,285.7,186.4,287.9,181.7z"/>
	<path class="st3" d="M299.5,402.7c-2.8,1.2-5.6,2.5-8.6,3.9c0,0,0,0.1,0,0.1C293.9,405.3,296.7,404,299.5,402.7
		C299.5,402.8,299.5,402.7,299.5,402.7z"/>
	<path class="st3" d="M290.6,176.1C290.6,176.1,290.6,176.1,290.6,176.1c-0.9,1.8-1.8,3.6-2.7,5.5c0,0,0,0.1,0,0.1
		C288.8,179.8,289.7,177.9,290.6,176.1z"/>
	<path class="st3" d="M289.1,167C289.1,167,289.1,167,289.1,167c0.1,0.9,0.3,1.7,0.4,2.6C289.4,168.7,289.3,167.9,289.1,167z"/>
	<path class="st3" d="M299.5,402.7C299.5,402.7,299.5,402.8,299.5,402.7c0.8-0.2,1.5-0.6,2.3-0.9c6.2-13.9,11.7-26.1,14.2-32
		c0,0,0,0,0,0c-2.5,5.9-8,18.1-14.2,31.9C301,402,300.3,402.4,299.5,402.7z"/>
	<path class="st3" d="M328.7,1.4c0-0.1,0.1-0.1,0.1-0.2C305.3,19.4,294.4,49.9,285,86c0,0.1,0,0.2,0,0.2
		C294.4,50.1,305.2,19.6,328.7,1.4z"/>
	<path class="st3" d="M569,151.9c3.8,4.9,7.3,9.8,10.5,14.7c17.9,27.1,18.7,38.6,16.6,41c-4.8,5.6-6.5,10.1-6.3,15.3
		c1.2,4.9,2.5,9.8,3.7,14.8c0.5,1.3,1,2.8,1.5,4.3c2.2,6.6,5.1,14.6,8.3,25.5c3.4,11.5,6.1,25.1,8.1,38.8v-38.8
		c-0.2-0.7-0.4-1.4-0.6-2.1c-3.2-11.1-6.1-19.2-8.5-25.8c-5.7-16.3-6.5-19.2-0.3-26.4c10.7-12.3-12.7-49.8-39-81
		c0.6,2.6,1.1,5.3,1.7,8C566.1,143.9,567.6,147.8,569,151.9z"/>
	<path class="st3" d="M589.8,222.9c0.2,4.1,1.6,8.8,3.7,14.8C592.3,232.7,591.1,227.8,589.8,222.9z"/>
	<path class="st3" d="M566.3,148.7c0-0.1,0-0.2,0-0.3c0.9,1.2,1.8,2.3,2.7,3.5c-1.4-4.1-2.9-8-4.3-11.8c0.5,2.7,1,5.5,1.5,8.3
		c0,0,0,0,0,0c0,0,0,0.1,0,0.1C566.3,148.6,566.3,148.6,566.3,148.7z"/>
	<path class="st3" d="M585.4,418.2c0.8-2.4,3.4-5.6,6.9-8.8c1.6,1,3.3,2.1,5.1,3.2c3.3,3,7.8,6.8,14,11.6v-12
		c-3.2-2.2-6.3-4.2-9.4-6.2c-1.1-1-2.1-1.9-3.2-2.8c0,0,0.1-0.1,0.1-0.1c0,0,0,0,0,0c1.8-1.5,3.5-2.9,5.3-4.2c2.5-2,5-4,7.2-5.9
		v-10.6c-3.1,3.2-7.8,6.9-12.1,10.3c-1.5,1.2-2.9,2.3-4.2,3.4c-0.3-0.7-0.9-1.2-1.4-1.8c2.2-3.3,2.1-8.6,1.7-16.1
		c-1-12.3-10.3-31.7-21.3-49.3c-0.3,4.5-0.7,9.1-1,13.8c0-0.1-0.1-0.1-0.1-0.2c0,0.1,0,0.1,0,0.2c0,0,0,0,0,0c0,0,0,0,0,0
		c7.6,13.4,13.6,27.1,14.2,36c0.2,2.1,0.5,7.9,0.2,10.3c0,0,0,0,0,0l0,0c-0.7-0.5-1.5-1.1-2.2-1.7c-0.9-0.7-1.9-1.3-2.8-2
		c-0.3-0.2-0.5-0.4-0.8-0.6c-2.6-1.8-6.3-4.4-9.8-7c0,3.1,0,6.2,0,9.4c0,0-0.1,0-0.1-0.1c0,0,0,0,0,0.1c0,0,0.1,0,0.1,0.1
		c0-0.1,0-0.1,0-0.2c0.9,0.6,1.8,1.3,2.8,2c-0.1-0.1-0.3-0.1-0.5-0.2c0.1,0.1,0.3,0.2,0.4,0.3c-0.3-0.2-0.8-0.2-1.1-0.2
		c-0.6-0.3-1.2-0.6-1.7-0.8c0.1,3,0.1,6.1,0.2,9.2c0,0,0,0,0,0c0,0.1,0,0.1,0,0.2c0,0,0,0,0,0c0-0.1,0-0.1,0-0.2
		c4.4,2.2,8.9,4.6,13.4,7.3c0,0-0.1,0.1-0.1,0.1c0,0,0.1,0,0.1,0.1c-3.7,3.7-6.4,7.4-7.4,10.9c-0.4,1.4-1.5,3.5-3.1,6
		c0.9,3.2,2.1,6.3,3.5,9.2c0,0,0,0.1-0.1,0.1c0,0,0,0.1,0.1,0.1c0,0,0,0,0,0c0,0,0,0,0-0.1C581.8,425.9,584.4,421.4,585.4,418.2z"/>
	<path class="st3" d="M571.8,397.5c0,0.1,0,0.1,0,0.2c4.3,2.2,8.7,4.5,13.3,7.2c0,0,0.1-0.1,0.1-0.1
		C580.7,402.1,576.2,399.7,571.8,397.5z"/>
	<path class="st3" d="M571.7,387.2c0,0.1,0,0.1,0,0.2c0.8,0.6,1.6,1.1,2.3,1.7c0.2,0,0.3,0.1,0.5,0.2
		C573.5,388.5,572.6,387.8,571.7,387.2z"/>
	<path class="st3" d="M592.3,409.5c1.6,1,3.3,2.1,5.1,3.2c3.3,3,7.8,6.8,14,11.6v-0.1c-6.2-4.8-10.7-8.6-14-11.6
		C595.6,411.5,593.9,410.4,592.3,409.5c-3.5,3.1-6.1,6.3-6.9,8.7c-1,3.2-3.6,7.7-7.2,13c0,0,0,0,0,0.1c3.6-5.3,6.2-9.7,7.2-13
		C586.2,415.9,588.8,412.7,592.3,409.5z"/>
	<path class="st3" d="M587.4,389.1C587.4,389.1,587.4,389.1,587.4,389.1c0.3-2.4,0-8.2-0.2-10.3c-0.6-8.9-6.6-22.6-14.2-36
		c0,0,0,0,0,0c7.6,13.4,13.6,27.1,14.2,36C587.4,380.9,587.7,386.7,587.4,389.1z"/>
	<path class="st3" d="M585.2,387.4c-0.9-0.7-1.9-1.3-2.8-2C583.3,386.1,584.2,386.8,585.2,387.4z"/>
	<path class="st3" d="M611.4,393L611.4,393c-2.2,1.9-4.7,3.8-7.2,5.9c-1.8,1.3-3.5,2.7-5.3,4.2c0,0,0,0,0,0c1.8-1.5,3.4-2.8,5.2-4.1
		C606.7,396.9,609.2,395,611.4,393z"/>
	<path class="st3" d="M594.9,242.1c2.2,6.6,5.1,14.6,8.3,25.5c3.4,11.7,6.2,25.6,8.2,39.4v-0.8c-2-13.7-4.8-27.3-8.1-38.8
		c-3.2-10.9-6.1-18.9-8.3-25.5c-0.5-1.5-1-2.9-1.5-4.3c0.1,0.4,0.2,0.9,0.3,1.3C594.2,240,594.5,241,594.9,242.1z"/>
	<path class="st3" d="M579.4,166.7c17.9,27.1,18.7,38.6,16.6,41c-4.6,5.4-6.4,9.7-6.3,14.8c0,0.2,0.1,0.3,0.1,0.5
		c-0.2-5.3,1.5-9.8,6.3-15.3c2.1-2.4,1.3-13.9-16.6-41c-3.2-4.9-6.7-9.8-10.5-14.7c0.1,0.1,0.1,0.3,0.2,0.4
		C572.8,157.2,576.2,162,579.4,166.7z"/>
	<path class="st3" d="M566.3,148.7c1,1.2,1.9,2.4,2.8,3.7c-0.1-0.1-0.1-0.3-0.2-0.4c-0.9-1.2-1.8-2.3-2.7-3.5
		C566.3,148.5,566.3,148.6,566.3,148.7z"/>
	<path class="st3" d="M593.8,239c-0.1-0.4-0.2-0.9-0.3-1.3c-2.1-6-3.5-10.7-3.7-14.8c0-0.2-0.1-0.3-0.1-0.5
		C589.8,227,591.4,232.1,593.8,239z"/>
	<path class="st3" d="M564.6,139.8c0,0.1,0.1,0.2,0.1,0.3c-0.5-2.7-1.1-5.4-1.7-8c0,0,0,0,0,0C563.5,134.6,564.1,137.2,564.6,139.8z
		"/>
	<path class="st3" d="M573,342.6c0,0.1,0.1,0.1,0.1,0.2c0.3-4.6,0.7-9.3,1-13.8c0,0-0.1-0.1-0.1-0.1
		C573.6,333.3,573.3,338,573,342.6z"/>
	<path class="st3" d="M564.7,140.1c0-0.1-0.1-0.2-0.1-0.3c0.5,2.8,1.1,5.6,1.6,8.5c0,0,0,0,0,0C565.7,145.6,565.2,142.8,564.7,140.1
		z"/>
	<path class="st3" d="M571.7,377.9c0,0-0.1-0.1-0.1-0.1c0,3.1,0,6.3,0,9.4c0,0,0.1,0,0.1,0.1C571.7,384.1,571.7,381,571.7,377.9z"/>
	<path class="st3" d="M571.6,388.3C571.6,388.3,571.6,388.3,571.6,388.3c0,2.9,0.1,6.1,0.2,9.2c0,0,0,0,0,0
		C571.7,394.4,571.7,391.3,571.6,388.3z"/>
	<path class="st3" d="M574.7,421.9C574.7,422,574.7,422,574.7,421.9c0.8,3.3,2,6.4,3.4,9.2c0,0,0-0.1,0.1-0.1
		C576.8,428.2,575.6,425.2,574.7,421.9z"/>
	<path class="st3" d="M572.1,183.7c0.4-0.7,0.6-1.5,0.6-2.3c0,0,0-0.1,0-0.1c0-0.3,0-0.5-0.1-0.8c0,0,0,0,0,0c0-0.3-0.1-0.6-0.2-0.8
		c-0.1-0.3-0.2-0.5-0.4-0.7c-0.3-0.4-0.8-0.8-1.3-1l-0.1-0.1c0.3,2.2,0.6,4.4,0.9,6.7C571.7,184.2,571.9,184,572.1,183.7z"/>
	<path class="st3" d="M572.6,180.5c0,0.3,0.1,0.5,0.1,0.8C572.7,181,572.7,180.8,572.6,180.5z"/>
	<path class="st3" d="M571.5,184.5C571.5,184.5,571.5,184.5,571.5,184.5C571.5,184.5,571.5,184.5,571.5,184.5c0,0.1,0,0.1,0,0.1
		c0.2-0.3,0.5-0.6,0.7-0.9c0.3-0.7,0.5-1.5,0.5-2.3c0,0.8-0.2,1.6-0.6,2.3C571.9,184,571.7,184.2,571.5,184.5z"/>
	<path class="st3" d="M570.6,177.8L570.6,177.8c0.3,2.3,0.6,4.4,0.9,6.7c0,0,0,0,0,0C571.2,182.2,570.9,180,570.6,177.8z"/>
	<path class="st3" d="M571.5,184.5C571.5,184.5,571.5,184.5,571.5,184.5C571.5,184.5,571.5,184.5,571.5,184.5
		C571.5,184.5,571.5,184.5,571.5,184.5C571.5,184.5,571.5,184.5,571.5,184.5z"/>
	<path class="st3" d="M611.4,104.6c-3.1-8.3-6.3-16.5-9.6-24.7c-3.6-8.8-7.2-17.5-11-25.9c2.6,28,11.4,45.4,20.6,61.2V104.6z"/>
	<path class="st3" d="M590.8,54c0-0.1-0.1-0.2-0.1-0.3c2.6,28.3,11.5,45.8,20.7,61.8v-0.3C602.2,99.4,593.4,82,590.8,54z"/>
	<path class="st3" d="M611.4,104.6c-3.1-8.3-6.3-16.5-9.6-24.7C605.1,88,608.3,96.3,611.4,104.6L611.4,104.6z"/>
	<path class="st3" d="M440.7,0.1h-8.2c-0.8,2.1-1.8,4.3-2.8,6.6c2,1.1,4.2,2.5,6.5,4.1C438,6.8,439.5,3.1,440.7,0.1z"/>
	<path class="st3" d="M402.3,0.2h-10.5c-0.9,1.2-1.6,2.2-2.2,3.3c3.7-0.6,7.4-1,10.9-1.3C401.1,1.5,401.7,0.9,402.3,0.2z"/>
	<path class="st3" d="M385.9,13.8c0,4.9,2.3,12.1,15.6,15.9c0.5,0.1,1,0.3,1.5,0.4c4.3,1.1,8.6,2.4,12.8,3.7
		c-0.8,1.4-1.7,2.8-2.6,4.2c-1.3,2.1-2.6,4-4,5.9c-0.9,1.2-1.8,2.4-2.7,3.5c-1.8,2.2-3.6,4.2-5.4,5.9c-0.9,0.8-1.8,1.6-2.7,2.2
		s-1.8,1.2-2.7,1.7c-0.4,0.2-0.9,0.4-1.3,0.6c-4.9,2-11.5,5.6-18.6,10.2c1.2,2.3,2.3,4.8,3.2,7.3c0,0,0,0,0,0c0,0,0,0.1,0,0.1
		c7.1-4.7,13.7-8.3,18.6-10.2c5.3-2.2,10.5-6.9,15.4-12.8c1.6-2,3.2-4.1,4.8-6.4c1-1.5,2-3,3-4.6c1-1.6,2-3.2,2.9-4.8
		c29.4,10.7,55.2,27.7,81.3,49.5h0l0,0c2.1-1.2,4.5-2.6,7.2-4c-24-20.3-51.6-40.1-85-52.6c3.4-6.4,6.4-12.8,8.9-18.5
		c-2.3-1.6-4.5-3-6.5-4.1c-2.8,6.4-6.1,13.3-9.8,20c-4.8-1.6-9.8-3-14.9-4.3c-10-2.5-11-6.3-11-8.2c0-0.4,0-0.8,0.1-1
		c0.4-3.1,2.7-6.8,6.4-11c-3.6,0.2-7.2,0.7-10.9,1.3c-2.7,4.3-3.4,7.3-3.6,8.9C386,12.8,385.9,13.3,385.9,13.8z"/>
	<path class="st3" d="M409.3,43.8c1.3-1.8,2.7-3.8,4-5.9C411.9,40,410.6,41.9,409.3,43.8z"/>
	<path class="st3" d="M385.9,13.8c0,4.8,2.1,12.1,15.6,15.9C388.2,25.9,386,18.7,385.9,13.8z"/>
	<path class="st3" d="M395.8,57.1c0.9-0.5,1.8-1,2.7-1.7C397.6,56,396.7,56.6,395.8,57.1z"/>
	<path class="st3" d="M406.6,47.3c-1.8,2.2-3.6,4.2-5.4,5.9C403,51.5,404.8,49.5,406.6,47.3z"/>
	<path class="st3" d="M417.8,45.9c1-1.5,2-3,3-4.6C419.9,42.8,418.8,44.4,417.8,45.9z"/>
	<path class="st3" d="M505.1,85.9L505.1,85.9c-26.1-21.8-51.9-38.8-81.3-49.5c-1,1.6-1.9,3.3-2.9,4.8c1-1.6,2-3.2,2.9-4.8
		C453.2,47.2,479,64.1,505.1,85.9z"/>
	<path class="st3" d="M413.1,52.3c1.6-2,3.2-4.1,4.8-6.4C416.3,48.1,414.7,50.3,413.1,52.3z"/>
	<path class="st3" d="M400.7,2.2c0.6-0.7,1.2-1.3,1.9-2h-0.3c-0.6,0.7-1.3,1.3-1.8,2C400.6,2.2,400.6,2.2,400.7,2.2z"/>
	<path class="st3" d="M394.1,13.2c0,0.2-0.1,0.6-0.1,1c0-0.3,0-0.6,0.1-0.8c0.4-3.1,2.7-7,6.6-11.2c-0.1,0-0.1,0-0.2,0
		C396.8,6.4,394.5,10.1,394.1,13.2z"/>
	<path class="st3" d="M379.1,75.2C379.1,75.2,379.1,75.2,379.1,75.2c-0.9-2.6-1.9-5.1-3.1-7.3c0,0,0,0,0,0
		C377.1,70.2,378.2,72.6,379.1,75.2z"/>
	<path class="st3" d="M577.8,258.6c0.4,21.7-1.2,40.3-2.8,59.5c2.8-11.3,5.6-21.7,7.3-28.1c0,0,0,0,0-0.1c0,0,0-0.1,0-0.1
		C584.7,281.7,584.7,271.1,577.8,258.6z"/>
	<path class="st3" d="M582.4,289.8c2.3-8,2.3-18.8-4.6-31.3c0,0,0,0.1,0,0.1C584.7,271.1,584.7,281.7,582.4,289.8z"/>
	<path class="st3" d="M575,318.1c2.9-11.3,5.6-21.8,7.3-28.2C580.6,296.4,577.9,306.8,575,318.1C575,318.1,575,318.1,575,318.1z"/>
	<path class="st3" d="M577.8,258.6c0-0.1-0.1-0.1-0.1-0.2c0.3,22.1-1.2,40.8-2.8,60.3c0,0,0,0,0,0c0-0.2,0.1-0.4,0.1-0.6
		C576.6,298.9,578.2,280.3,577.8,258.6z"/>
	<path class="st3" d="M575,318.1c0,0.2-0.1,0.4-0.1,0.6C575,318.5,575,318.3,575,318.1C575,318.1,575,318.1,575,318.1z"/>
	<path class="st3" d="M577.8,258.5c0-0.1-0.1-0.1-0.1-0.2c0,0,0,0.1,0,0.1c0,0.1,0.1,0.1,0.1,0.2
		C577.8,258.6,577.8,258.5,577.8,258.5z"/>
</g>
</svg>
