<svg xmlns="http://www.w3.org/2000/svg" viewBox="0 0 240 234"><defs><style>.cls-1{fill:#00005b;}.cls-2{fill:#99f;}</style></defs><g id="Layer_2" data-name="Layer 2"><g id="Capa_1" data-name="Capa 1"><g id="Layer_2-2" data-name="Layer 2"><g id="Surfaces"><g id="Video_Audio_Surface" data-name="Video Audio Surface"><g id="Outline_no_shadow" data-name="Outline no shadow"><rect class="cls-1" width="240" height="234" rx="42.5"/></g></g></g><g id="Outlined_Mnemonics_Logos" data-name="Outlined Mnemonics Logos"><g id="An"><path class="cls-2" d="M97,140H59.85l-7.64,23.47a1.9,1.9,0,0,1-1.93,1.45H31.45c-1.08,0-1.45-.59-1.13-1.77L62.65,70.88c.32-1,.65-1.83,1-3.07a33.91,33.91,0,0,0,.64-6.52,1,1,0,0,1,.85-1.12.66.66,0,0,1,.28,0H91c.75,0,1.18.27,1.29.8l36.41,102.34c.32,1.07,0,1.61-1,1.61H106.79a1.49,1.49,0,0,1-1.61-1.13ZM65.71,120.14H91.15c-.64-2.14-1.4-4.56-2.25-7.24s-1.78-5.56-2.74-8.62l-2.9-9.17c-1-3.06-1.85-6-2.66-8.86s-1.53-5.44-2.17-7.81h-.16a132.5,132.5,0,0,1-3.38,12.88q-2.27,7.25-4.59,14.82T65.71,120.14Z"/><path class="cls-2" d="M140,163.38V104q0-2.73-.08-6.12t-.24-6.44c-.11-2-.22-3.93-.32-5.11a.93.93,0,0,1,.16-1,1.3,1.3,0,0,1,1-.33h16.07a3.76,3.76,0,0,1,1.62.33,1.51,1.51,0,0,1,.8,1.12c.21.65.46,1.37.72,2.18a16.24,16.24,0,0,1,.57,3.26,32.34,32.34,0,0,1,10.62-6.2,36.29,36.29,0,0,1,12.08-2,30.46,30.46,0,0,1,9.42,1.53,23.78,23.78,0,0,1,15.21,14.81c1.61,4.13,2.24,9.47,2.24,16v47.26c0,1-.43,1.45-1.28,1.45l-18.82.17a1.42,1.42,0,0,1-1.61-1.21,1.34,1.34,0,0,1,0-.4V118.54a22.15,22.15,0,0,0-1.94-8.7,11.44,11.44,0,0,0-4.11-5,12,12,0,0,0-6.84-1.77,20,20,0,0,0-7.57,1.36,19.09,19.09,0,0,0-6,3.79v55.15c0,1-.43,1.45-1.29,1.45h-19a1.28,1.28,0,0,1-1.45-1.08A1.15,1.15,0,0,1,140,163.38Z"/></g></g></g></g></g></svg>