<svg xmlns="http://www.w3.org/2000/svg" viewBox="0 0 240 234"><defs><style>.cls-1{fill:#001e36;}.cls-2{fill:#31a8ff;}</style></defs><g id="Layer_2" data-name="Layer 2"><g id="Capa_1" data-name="Capa 1"><g id="Layer_2-2" data-name="Layer 2"><g id="Surfaces"><g id="Photo_Surface" data-name="Photo Surface"><g id="Outline_no_shadow" data-name="Outline no shadow"><rect class="cls-1" width="240" height="234" rx="42.5"/></g></g></g><g id="Outlined_Mnemonics_Logos" data-name="Outlined Mnemonics Logos"><g id="Ps"><path class="cls-2" d="M54,164.1V61.22c0-.75.32-1.13,1-1.13,1.71,0,3.28,0,5.64-.08l7.65-.16L77,59.69c3.06-.06,6.09-.08,9.1-.08q12.24,0,20.61,3.06a35.6,35.6,0,0,1,13.44,8.21,31.53,31.53,0,0,1,7.33,11.35,37.65,37.65,0,0,1,2.25,13q0,12.89-6,21.25a33.59,33.59,0,0,1-16.1,12.15C100.9,131.12,93.39,132,85.12,132c-2.36,0-4,0-5-.08s-2.41-.08-4.34-.08v32.12a1.28,1.28,0,0,1-1.09,1.45,1.09,1.09,0,0,1-.36,0H55.17C54.42,165.38,54,165,54,164.1ZM75.79,79.41V113c1.39.11,2.68.17,3.86.17H85a38.07,38.07,0,0,0,11.51-1.84,17.39,17.39,0,0,0,8.22-5.32q3.14-3.69,3.14-10.3a16.3,16.3,0,0,0-2.34-8.85,15,15,0,0,0-7-5.72,29.9,29.9,0,0,0-11.76-2c-2.57,0-4.85,0-6.84.08a40.35,40.35,0,0,0-4.1.24Z"/><path class="cls-2" d="M192,106.86a37.8,37.8,0,0,0-9.58-3.38,51.35,51.35,0,0,0-11.19-1.29,20.88,20.88,0,0,0-6,.73,5.45,5.45,0,0,0-3.14,2,5.12,5.12,0,0,0-.8,2.74,4.23,4.23,0,0,0,1,2.57,10.92,10.92,0,0,0,3.38,2.66,65.94,65.94,0,0,0,7.08,3.3A70.26,70.26,0,0,1,188,123.53a23.39,23.39,0,0,1,7.89,8.29,22,22,0,0,1,2.33,10.3,23.11,23.11,0,0,1-3.86,13.28,25.41,25.41,0,0,1-11.19,8.94q-7.33,3.22-18.12,3.22a65.43,65.43,0,0,1-13.6-1.29,43.08,43.08,0,0,1-10.22-3.22,2.08,2.08,0,0,1-1.13-1.93V143.73a.92.92,0,0,1,.4-.88.79.79,0,0,1,.89.08,43.23,43.23,0,0,0,12.39,4.91,51.8,51.8,0,0,0,11.76,1.53c3.75,0,6.52-.49,8.29-1.45a4.58,4.58,0,0,0,2.66-4.19q0-2.08-2.42-4T164.28,135A59.08,59.08,0,0,1,150,127.79a24.56,24.56,0,0,1-7.57-8.45,22.23,22.23,0,0,1-2.33-10.22A23.09,23.09,0,0,1,143.51,97,24.63,24.63,0,0,1,154,87.86q7.08-3.52,17.71-3.54a79.11,79.11,0,0,1,12.39.89,32.63,32.63,0,0,1,8.63,2.33,1.48,1.48,0,0,1,1,.89,4.47,4.47,0,0,1,.16,1.21V105.9a1.08,1.08,0,0,1-.48,1A1.55,1.55,0,0,1,192,106.86Z"/></g></g></g></g></g></svg>