<svg width="32" height="32" viewBox="0 0 32 32" fill="none" xmlns="http://www.w3.org/2000/svg">
<path d="M16 32C24.8366 32 32 24.8366 32 16C32 7.16344 24.8366 0 16 0C7.16344 0 0 7.16344 0 16C0 24.8366 7.16344 32 16 32Z" fill="#330033"/>
<path d="M23.5384 13.8462C22 15.3846 16.9231 15.0769 16.9231 15.0769C16.9231 15.0769 16.7692 9.84615 18.1538 8.46154C19.5384 7.07692 22 6.92307 23.5384 8.46154C25.0769 10 24.9231 12.4615 23.5384 13.8462Z" fill="#60EFDE"/>
<path d="M8.61527 18.1538C10.1537 16.6154 15.2307 16.9231 15.2307 16.9231C15.2307 16.9231 15.3845 22.1538 13.9999 23.5384C12.6153 24.9231 10.1537 25.0769 8.61527 23.5384C7.07681 22 7.07681 19.5385 8.61527 18.1538Z" fill="white"/>
<path d="M18.1538 23.5384C16.6154 22 16.9231 16.9231 16.9231 16.9231C16.9231 16.9231 22.1538 16.7692 23.5384 18.1538C24.9231 19.5384 25.0769 22 23.5384 23.5384C22 25.0769 19.6923 25.0769 18.1538 23.5384Z" fill="white"/>
<path d="M14 8.61539C15.5384 10.1539 15.2307 15.2308 15.2307 15.2308C15.2307 15.2308 9.99996 15.3846 8.61534 14C7.23073 12.6154 7.07688 10.1539 8.61534 8.61539C10.1538 7.07693 12.4615 7.07693 14 8.61539Z" fill="white"/>
</svg>
