<svg xmlns="http://www.w3.org/2000/svg" viewBox="0 0 240 234"><defs><style>.cls-1{fill:#49021f;}.cls-2{fill:#f36;}</style></defs><g id="Layer_2" data-name="Layer 2"><g id="Capa_1" data-name="Capa 1"><g id="Surfaces"><g id="Publishing_Surface" data-name="Publishing Surface"><g id="Outline_no_shadow" data-name="Outline no shadow"><rect class="cls-1" width="240" height="234" rx="42.5"/></g></g></g><g id="Outlined_Mnemonics_Logos" data-name="Outlined Mnemonics Logos"><g id="Id"><path class="cls-2" d="M87.16,61.22V163.77c0,1.08-.48,1.61-1.45,1.61H66.23c-.86,0-1.29-.53-1.29-1.61V61.22c0-.86.48-1.29,1.45-1.29H85.87a1.14,1.14,0,0,1,1.29,1A1.71,1.71,0,0,1,87.16,61.22Z"/><path class="cls-2" d="M144.8,167a49.81,49.81,0,0,1-21.5-4.5,34.14,34.14,0,0,1-15-13.61q-5.48-9.09-5.47-22.78A41.91,41.91,0,0,1,108.25,105a40.24,40.24,0,0,1,15.94-15.46q10.45-5.79,25.28-5.79c.53,0,1.23,0,2.09.08s1.88.13,3.06.24V52.36c0-.75.32-1.13,1-1.13h20.29a.86.86,0,0,1,1,.73,1,1,0,0,1,0,.24v95.15c0,1.83.08,3.81.24,6s.29,4.08.4,5.79a1.65,1.65,0,0,1-1,1.61,78.76,78.76,0,0,1-16.26,4.83A86.17,86.17,0,0,1,144.8,167Zm9.82-20V103.08a16,16,0,0,0-2.66-.49c-1.1-.11-2.2-.16-3.3-.16A24.86,24.86,0,0,0,137.39,105a22,22,0,0,0-8.45,7.4q-3.3,4.83-3.3,12.72a28.29,28.29,0,0,0,1.69,10.31,19.51,19.51,0,0,0,4.51,7.08,17.09,17.09,0,0,0,6.76,4,26.49,26.49,0,0,0,8.29,1.28c1.5,0,2.9-.05,4.19-.16A17.09,17.09,0,0,0,154.62,147Z"/></g></g></g></g></svg>