<svg xmlns="http://www.w3.org/2000/svg" viewBox="0 0 240 234"><defs><style>.cls-1{fill:#300;}.cls-2{fill:#ff9a00;}</style></defs><g id="Layer_2" data-name="Layer 2"><g id="Capa_1" data-name="Capa 1"><g id="Layer_2-2" data-name="Layer 2"><g id="Surfaces"><g id="Drawing_Surface" data-name="Drawing Surface"><g id="Outline_no_shadow" data-name="Outline no shadow"><rect class="cls-1" width="240" height="234" rx="42.5"/></g></g></g><g id="Outlined_Mnemonics_Logos" data-name="Outlined Mnemonics Logos"><g id="Ai"><path class="cls-2" d="M116.3,140.43H79.11l-7.57,23.5a1.88,1.88,0,0,1-1.93,1.45H50.77c-1.07,0-1.45-.59-1.12-1.77l32.2-92.73q.48-1.45,1-3.3a34.9,34.9,0,0,0,.65-6.52,1,1,0,0,1,.84-1.13.66.66,0,0,1,.28,0h25.6c.75,0,1.18.27,1.29.8l36.55,103c.32,1.08,0,1.61-1,1.61H126.12a1.49,1.49,0,0,1-1.61-1.12ZM84.91,120.14h25.43c-.64-2.14-1.39-4.56-2.25-7.24s-1.77-5.56-2.74-8.62-1.93-6.11-2.9-9.17-1.85-6-2.65-8.86-1.53-5.44-2.18-7.81h-.16a127,127,0,0,1-3.38,12.88q-2.25,7.25-4.59,14.82t-4.58,14Z"/><path class="cls-2" d="M169.75,77a11.63,11.63,0,0,1-8.85-3.54,12.74,12.74,0,0,1-3.39-9.17,11.84,11.84,0,0,1,3.63-8.94,12.4,12.4,0,0,1,8.93-3.46q5.81,0,9.1,3.46a12.45,12.45,0,0,1,3.3,8.94A12.53,12.53,0,0,1,179,73.45,12.33,12.33,0,0,1,169.75,77Zm-11.11,86.78v-77c0-1,.43-1.45,1.29-1.45h19.8c.86,0,1.29.48,1.29,1.45v77c0,1.08-.43,1.61-1.29,1.61H160.09C159.12,165.38,158.64,164.85,158.64,163.77Z"/></g></g></g></g></g></svg>