<svg id="Layer_1" data-name="Layer 1" xmlns="http://www.w3.org/2000/svg" viewBox="0 0 246.26 222.85"><defs><style>.cls-1{fill:#fdb300;}.cls-2{fill:#ea6c00;}.cls-3{fill:#fdad00;}.cls-4{fill:#fdd231;}.cls-5{fill:#feeeb7;}</style></defs><g id="Page-1"><g id="sketch-symbol"><polygon id="Path" class="cls-1" points="53.14 7.91 122.48 0 191.94 6.77 246.26 78.46 124.3 222.85 0 80.47 53.14 7.91"/><g id="Group"><polygon id="Path-2" data-name="Path" class="cls-2" points="49.87 80.06 124.3 222.85 0 80.47 49.87 80.06"/><polygon id="Path-3" data-name="Path" class="cls-2" points="196.38 78.86 124.3 222.85 246.26 78.46 196.38 78.86"/><polygon id="Path-4" data-name="Path" class="cls-3" points="49.87 80.06 196.38 78.86 124.3 222.85 49.87 80.06"/></g><g id="Group-2" data-name="Group"><polygon id="Path-5" data-name="Path" class="cls-4" points="122.48 0 53.14 7.91 49.87 80.06 122.48 0"/><polygon id="Path-6" data-name="Path" class="cls-4" points="122.48 0 191.94 6.77 196.38 78.86 122.48 0"/><polygon id="Path-7" data-name="Path" class="cls-3" points="246.26 78.46 191.94 6.77 196.38 78.86 246.26 78.46"/><polygon id="Path-8" data-name="Path" class="cls-3" points="0 80.47 53.14 7.91 49.87 80.06 0 80.47"/><polygon id="Path-9" data-name="Path" class="cls-5" points="122.48 0 49.87 80.06 196.38 78.86 122.48 0"/></g></g></g></svg>