<svg xmlns="http://www.w3.org/2000/svg" viewBox="0 0 236.5 233.97"><defs><style>.cls-1{fill:#2489ca;}.cls-2{fill:#1070b3;}.cls-3{fill:#0877b9;}.cls-4{fill:#3c99d4;}</style></defs><g id="Layer_2" data-name="Layer 2"><g id="Capa_1" data-name="Capa 1"><path class="cls-1" d="M2.25,81.59s-5.76-4.15,1.15-9.7l16.11-14.4s4.6-4.85,9.48-.62L177.6,169.38v54s-.07,8.47-10.94,7.53Z"/><path class="cls-2" d="M40.56,116.37,2.25,151.19s-3.94,2.93,0,8.16L20,175.53s4.23,4.53,10.47-.63l40.61-30.79Z"/><path class="cls-3" d="M107.81,116.65,178.06,63,177.6,9.35s-3-11.72-13-5.62L71.11,88.81Z"/><path class="cls-4" d="M166.66,230.94a9.65,9.65,0,0,0,9,2.81l54.75-27c7-4.78,6-10.71,6-10.71V35c0-7.08-7.25-9.53-7.25-9.53L181.75,2.58c-10.37-6.41-17.16,1.15-17.16,1.15s8.74-6.29,13,5.62v213a9.56,9.56,0,0,1-.94,4.2c-1.24,2.52-4,4.87-10.46,3.89Z"/></g></g></svg>