<svg width="178" height="194" viewBox="0 0 178 194" fill="none" xmlns="http://www.w3.org/2000/svg">
<path d="M55.9142 85.1719H68.3993C68.8394 85.1719 69.2616 84.9971 69.5728 84.6859C69.884 84.3746 70.0589 83.9525 70.0589 83.5124V79.2463C70.0589 77.1495 69.2259 75.1386 67.7433 73.6559C66.2606 72.1733 64.2497 71.3403 62.1529 71.3403C60.0561 71.3403 58.0452 72.1733 56.5625 73.6559C55.0799 75.1386 54.2469 77.1495 54.2469 79.2463V83.5124C54.2474 83.9524 54.4224 84.3742 54.7336 84.6853C55.0447 84.9964 55.4665 85.1714 55.9065 85.1719" fill="white"/>
<path d="M62.1606 70.3009C63.2513 70.3009 64.3175 69.9775 65.2243 69.3715C66.1312 68.7656 66.838 67.9043 67.2554 66.8967C67.6728 65.889 67.782 64.7802 67.5692 63.7105C67.3564 62.6408 66.8312 61.6581 66.06 60.8869C65.2888 60.1157 64.3062 59.5905 63.2364 59.3777C62.1667 59.1649 61.0579 59.2741 60.0502 59.6915C59.0426 60.1089 58.1813 60.8157 57.5754 61.7226C56.9694 62.6294 56.646 63.6956 56.646 64.7863C56.6475 66.2484 57.229 67.6502 58.2629 68.684C59.2967 69.7179 60.6985 70.2994 62.1606 70.3009Z" fill="white"/>
<path d="M55.9142 116.314H68.3993C68.8394 116.314 69.2616 116.139 69.5728 115.827C69.884 115.516 70.0589 115.094 70.0589 114.654V110.388C70.0589 108.291 69.2259 106.28 67.7433 104.798C66.2606 103.315 64.2497 102.482 62.1529 102.482C60.0561 102.482 58.0452 103.315 56.5625 104.798C55.0799 106.28 54.2469 108.291 54.2469 110.388V114.654C54.2474 115.094 54.4224 115.516 54.7336 115.827C55.0447 116.138 55.4665 116.313 55.9065 116.314" fill="white"/>
<path d="M62.1606 101.441C63.2513 101.441 64.3175 101.117 65.2243 100.511C66.1312 99.9055 66.838 99.0442 67.2554 98.0366C67.6728 97.0289 67.782 95.9201 67.5692 94.8504C67.3564 93.7806 66.8312 92.798 66.06 92.0268C65.2888 91.2556 64.3062 90.7304 63.2364 90.5176C62.1667 90.3048 61.0579 90.414 60.0502 90.8314C59.0426 91.2488 58.1813 91.9556 57.5754 92.8625C56.9694 93.7693 56.646 94.8355 56.646 95.9262C56.6475 97.3883 57.229 98.7901 58.2629 99.8239C59.2967 100.858 60.6985 101.439 62.1606 101.441Z" fill="white"/>
<path d="M55.9142 147.453H68.3993C68.8394 147.453 69.2616 147.279 69.5728 146.967C69.884 146.656 70.0589 146.234 70.0589 145.794V141.528C70.0589 139.431 69.2259 137.42 67.7433 135.937C66.2606 134.455 64.2497 133.622 62.1529 133.622C60.0561 133.622 58.0452 134.455 56.5625 135.937C55.0799 137.42 54.2469 139.431 54.2469 141.528V145.788C54.2474 146.228 54.4224 146.65 54.7336 146.961C55.0447 147.272 55.4665 147.447 55.9065 147.448" fill="#FFB100"/>
<path d="M62.1606 132.581C63.2514 132.581 64.3176 132.257 65.2245 131.651C66.1314 131.045 66.8383 130.184 67.2556 129.176C67.6729 128.168 67.782 127.059 67.5691 125.99C67.3561 124.92 66.8307 123.937 66.0593 123.166C65.2879 122.395 64.3051 121.87 63.2353 121.657C62.1654 121.445 61.0565 121.554 60.0489 121.972C59.0413 122.39 58.1802 123.097 57.5744 124.004C56.9687 124.911 56.6456 125.977 56.646 127.068C56.648 128.53 57.2297 129.931 58.2635 130.965C59.2973 131.998 60.6988 132.579 62.1606 132.581Z" fill="#FFB100"/>
<path d="M127.383 85.1718H139.868C140.308 85.1718 140.73 84.9969 141.042 84.6857C141.353 84.3745 141.528 83.9523 141.528 83.5122V79.2461C141.495 77.1709 140.648 75.1917 139.169 73.7356C137.69 72.2795 135.698 71.4634 133.623 71.4634C131.547 71.4634 129.555 72.2795 128.076 73.7356C126.597 75.1917 125.75 77.1709 125.718 79.2461V83.5122C125.718 83.9523 125.893 84.3745 126.204 84.6857C126.515 84.9969 126.937 85.1718 127.377 85.1718" fill="white"/>
<path d="M133.627 70.3009C134.718 70.3017 135.785 69.9789 136.692 69.3734C137.6 68.7679 138.307 67.9069 138.725 66.8993C139.143 65.8917 139.253 64.7828 139.04 63.7128C138.828 62.6429 138.303 61.6599 137.532 60.8883C136.761 60.1167 135.778 59.5911 134.709 59.378C133.639 59.1649 132.53 59.2739 131.522 59.6911C130.514 60.1084 129.652 60.8152 129.046 61.7222C128.44 62.6291 128.117 63.6955 128.117 64.7863C128.118 66.2477 128.699 67.6489 129.732 68.6827C130.765 69.7164 132.166 70.2984 133.627 70.3009Z" fill="white"/>
<path d="M127.383 116.313H139.868C140.308 116.313 140.73 116.138 141.042 115.827C141.353 115.516 141.528 115.094 141.528 114.654V110.388C141.544 109.339 141.352 108.298 140.962 107.324C140.572 106.351 139.992 105.465 139.256 104.718C138.521 103.971 137.644 103.377 136.677 102.972C135.709 102.567 134.671 102.358 133.623 102.358C132.574 102.358 131.536 102.567 130.569 102.972C129.602 103.377 128.725 103.971 127.989 104.718C127.253 105.465 126.674 106.351 126.284 107.324C125.894 108.298 125.701 109.339 125.718 110.388V114.654C125.718 115.094 125.892 115.516 126.204 115.827C126.515 116.138 126.937 116.313 127.377 116.313" fill="white"/>
<path d="M133.627 101.441C134.718 101.442 135.785 101.119 136.692 100.513C137.6 99.9078 138.307 99.0468 138.725 98.0392C139.143 97.0316 139.253 95.9227 139.04 94.8527C138.828 93.7827 138.303 92.7998 137.532 92.0282C136.761 91.2566 135.778 90.731 134.709 90.5179C133.639 90.3048 132.53 90.4138 131.522 90.831C130.514 91.2483 129.652 91.9551 129.046 92.8621C128.44 93.769 128.117 94.8354 128.117 95.9262C128.118 97.3883 128.7 98.7901 129.734 99.8239C130.767 100.858 132.169 101.439 133.631 101.441" fill="white"/>
<path d="M127.383 147.453H139.868C140.308 147.453 140.73 147.278 141.042 146.967C141.353 146.656 141.528 146.234 141.528 145.794V141.528C141.544 140.479 141.352 139.438 140.962 138.464C140.572 137.491 139.992 136.605 139.256 135.858C138.521 135.111 137.644 134.517 136.677 134.112C135.709 133.707 134.671 133.498 133.623 133.498C132.574 133.498 131.536 133.707 130.569 134.112C129.602 134.517 128.725 135.111 127.989 135.858C127.253 136.605 126.674 137.491 126.284 138.464C125.894 139.438 125.701 140.479 125.718 141.528V145.788C125.718 146.228 125.892 146.65 126.204 146.961C126.515 147.273 126.937 147.448 127.377 147.448" fill="#FFB100"/>
<path d="M133.627 132.581C134.718 132.582 135.785 132.259 136.692 131.653C137.6 131.048 138.307 130.186 138.725 129.179C139.143 128.171 139.253 127.062 139.04 125.992C138.828 124.922 138.303 123.939 137.531 123.168C136.76 122.396 135.777 121.871 134.707 121.658C133.637 121.445 132.528 121.554 131.52 121.972C130.513 122.389 129.651 123.096 129.045 124.003C128.44 124.911 128.116 125.977 128.117 127.068C128.119 128.53 128.7 129.931 129.734 130.965C130.768 131.998 132.17 132.579 133.631 132.581" fill="#FFB100"/>
<path d="M2.31456 85.1718H14.7997C15.2398 85.1718 15.662 84.9969 15.9732 84.6857C16.2844 84.3745 16.4593 83.9523 16.4593 83.5122V79.2461C16.4269 77.1709 15.5798 75.1917 14.1009 73.7356C12.6219 72.2795 10.6297 71.4634 8.55425 71.4634C6.47879 71.4634 4.48657 72.2795 3.00762 73.7356C1.52866 75.1917 0.68158 77.1709 0.649231 79.2461V83.5122C0.649231 83.9523 0.824077 84.3745 1.13531 84.6857C1.44653 84.9969 1.86865 85.1718 2.30879 85.1718" fill="white"/>
<path d="M8.56092 70.3009C9.6516 70.3009 10.7178 69.9775 11.6247 69.3715C12.5315 68.7656 13.2383 67.9043 13.6557 66.8967C14.0731 65.889 14.1823 64.7802 13.9695 63.7105C13.7568 62.6408 13.2316 61.6581 12.4603 60.8869C11.6891 60.1157 10.7065 59.5905 9.63676 59.3777C8.56703 59.1649 7.45823 59.2741 6.45057 59.6915C5.44291 60.1089 4.58165 60.8157 3.9757 61.7226C3.36975 62.6294 3.04633 63.6956 3.04633 64.7863C3.04785 66.2484 3.62934 67.6502 4.6632 68.684C5.69705 69.7179 7.09882 70.2994 8.56092 70.3009Z" fill="white"/>
<path d="M2.31454 116.313H14.7997C15.2398 116.313 15.6619 116.138 15.9732 115.827C16.2844 115.516 16.4592 115.094 16.4592 114.654V110.388C16.4756 109.339 16.2832 108.298 15.8933 107.324C15.5033 106.351 14.9237 105.465 14.188 104.718C13.4523 103.971 12.5754 103.377 11.6082 102.972C10.6409 102.567 9.60283 102.358 8.55423 102.358C7.50563 102.358 6.46751 102.567 5.5003 102.972C4.5331 103.377 3.65613 103.971 2.92046 104.718C2.18479 105.465 1.60512 106.351 1.21519 107.324C0.825264 108.298 0.632871 109.339 0.649215 110.388V114.654C0.649215 115.094 0.824061 115.516 1.13529 115.827C1.44652 116.138 1.86863 116.313 2.30878 116.313" fill="white"/>
<path d="M8.56092 101.441C9.6516 101.441 10.7178 101.117 11.6247 100.511C12.5315 99.9055 13.2383 99.0442 13.6557 98.0366C14.0731 97.0289 14.1823 95.9201 13.9695 94.8504C13.7568 93.7806 13.2316 92.798 12.4603 92.0268C11.6891 91.2556 10.7065 90.7304 9.63676 90.5176C8.56703 90.3048 7.45823 90.414 6.45057 90.8314C5.44291 91.2488 4.58165 91.9556 3.9757 92.8625C3.36975 93.7693 3.04633 94.8355 3.04633 95.9262C3.04785 97.3883 3.62934 98.7901 4.6632 99.8239C5.69705 100.858 7.09882 101.439 8.56092 101.441Z" fill="white"/>
<path d="M2.31452 147.453H14.7997C15.0186 147.454 15.2355 147.411 15.4378 147.328C15.6402 147.245 15.8241 147.122 15.9789 146.967C16.1337 146.812 16.2563 146.629 16.3398 146.426C16.4232 146.224 16.4657 146.007 16.465 145.788V141.528C16.4813 140.479 16.2889 139.438 15.899 138.464C15.5091 137.491 14.9294 136.605 14.1937 135.858C13.4581 135.111 12.5811 134.517 11.6139 134.112C10.6467 133.707 9.60856 133.498 8.55997 133.498C7.51137 133.498 6.47325 133.707 5.50604 134.112C4.53883 134.517 3.66187 135.111 2.9262 135.858C2.19053 136.605 1.61086 137.491 1.22093 138.464C0.831001 139.438 0.638608 140.479 0.654952 141.528V145.788C0.654952 146.228 0.829798 146.65 1.14103 146.961C1.45226 147.273 1.87437 147.448 2.31452 147.448" fill="#FFB100"/>
<path d="M8.56092 132.581C9.65168 132.581 10.7179 132.257 11.6249 131.651C12.5318 131.045 13.2386 130.184 13.6559 129.176C14.0732 128.168 14.1823 127.059 13.9694 125.99C13.7565 124.92 13.2311 123.937 12.4596 123.166C11.6882 122.395 10.7054 121.87 9.63558 121.657C8.56573 121.445 7.45687 121.554 6.44924 121.972C5.44162 122.39 4.58049 123.097 3.97477 124.004C3.36905 124.911 3.04595 125.977 3.04633 127.068C3.04836 128.53 3.63007 129.931 4.66387 130.965C5.69768 131.998 7.09916 132.579 8.56092 132.581Z" fill="#FFB100"/>
<path d="M73.7814 85.1718H86.2665C86.7066 85.1718 87.1288 84.9969 87.44 84.6857C87.7512 84.3745 87.9261 83.9523 87.9261 83.5122V79.2461C87.8937 77.1709 87.0466 75.1917 85.5677 73.7356C84.0887 72.2795 82.0965 71.4634 80.021 71.4634C77.9456 71.4634 75.9534 72.2795 74.4744 73.7356C72.9954 75.1917 72.1484 77.1709 72.116 79.2461V83.5122C72.116 83.9523 72.2909 84.3745 72.6021 84.6857C72.9133 84.9969 73.3354 85.1718 73.7756 85.1718" fill="white"/>
<path d="M80.0278 70.3009C81.1185 70.3009 82.1846 69.9775 83.0915 69.3715C83.9984 68.7656 84.7052 67.9043 85.1226 66.8967C85.54 65.889 85.6492 64.7802 85.4364 63.7105C85.2236 62.6408 84.6984 61.6581 83.9272 60.8869C83.156 60.1157 82.1733 59.5905 81.1036 59.3777C80.0339 59.1649 78.9251 59.2741 77.9174 59.6915C76.9098 60.1089 76.0485 60.8157 75.4426 61.7226C74.8366 62.6294 74.5132 63.6956 74.5132 64.7863C74.5147 66.2484 75.0962 67.6502 76.1301 68.684C77.1639 69.7179 78.5657 70.2994 80.0278 70.3009Z" fill="white"/>
<path d="M73.7814 116.313H86.2665C86.7067 116.313 87.1288 116.138 87.44 115.827C87.7513 115.516 87.9261 115.094 87.9261 114.654V110.388C87.9424 109.339 87.75 108.298 87.3601 107.324C86.9702 106.351 86.3905 105.465 85.6549 104.718C84.9192 103.971 84.0422 103.377 83.075 102.972C82.1078 102.567 81.0697 102.358 80.0211 102.358C78.9725 102.358 77.9344 102.567 76.9672 102.972C76 103.377 75.123 103.971 74.3873 104.718C73.6516 105.465 73.072 106.351 72.682 107.324C72.2921 108.298 72.0997 109.339 72.1161 110.388V114.654C72.1161 115.094 72.2909 115.516 72.6021 115.827C72.9134 116.138 73.3355 116.313 73.7756 116.313" fill="white"/>
<path d="M80.0278 101.441C81.1185 101.441 82.1846 101.117 83.0915 100.511C83.9984 99.9055 84.7052 99.0442 85.1226 98.0366C85.54 97.0289 85.6492 95.9201 85.4364 94.8504C85.2236 93.7806 84.6984 92.798 83.9272 92.0268C83.156 91.2556 82.1733 90.7304 81.1036 90.5176C80.0339 90.3048 78.9251 90.414 77.9174 90.8314C76.9098 91.2488 76.0485 91.9556 75.4426 92.8625C74.8366 93.7693 74.5132 94.8355 74.5132 95.9262C74.5147 97.3883 75.0962 98.7901 76.1301 99.8239C77.1639 100.858 78.5657 101.439 80.0278 101.441Z" fill="white"/>
<path d="M73.7814 147.453H86.2665C86.7067 147.453 87.1288 147.278 87.44 146.967C87.7513 146.656 87.9261 146.234 87.9261 145.794V141.528C87.9424 140.479 87.75 139.438 87.3601 138.464C86.9702 137.491 86.3905 136.605 85.6549 135.858C84.9192 135.111 84.0422 134.517 83.075 134.112C82.1078 133.707 81.0697 133.498 80.0211 133.498C78.9725 133.498 77.9344 133.707 76.9672 134.112C76 134.517 75.123 135.111 74.3873 135.858C73.6516 136.605 73.072 137.491 72.682 138.464C72.2921 139.438 72.0997 140.479 72.1161 141.528V145.788C72.1161 146.228 72.2909 146.65 72.6021 146.961C72.9134 147.273 73.3355 147.448 73.7756 147.448" fill="#FFB100"/>
<path d="M80.0278 132.581C81.1185 132.581 82.1848 132.257 83.0917 131.651C83.9986 131.045 84.7054 130.184 85.1228 129.176C85.5401 128.168 85.6492 127.059 85.4363 125.99C85.2233 124.92 84.6979 123.937 83.9265 123.166C83.1551 122.395 82.1723 121.87 81.1024 121.657C80.0326 121.445 78.9237 121.554 77.9161 121.972C76.9085 122.39 76.0473 123.097 75.4416 124.004C74.8359 124.911 74.5128 125.977 74.5132 127.068C74.5152 128.53 75.0969 129.931 76.1307 130.965C77.1645 131.998 78.566 132.579 80.0278 132.581Z" fill="#FFB100"/>
<path d="M145.248 85.1719H157.733C158.174 85.1719 158.596 84.9971 158.907 84.6859C159.218 84.3746 159.393 83.9525 159.393 83.5124V79.2463C159.393 77.1495 158.56 75.1386 157.077 73.6559C155.595 72.1733 153.584 71.3403 151.487 71.3403C149.39 71.3403 147.379 72.1733 145.897 73.6559C144.414 75.1386 143.581 77.1495 143.581 79.2463V83.5124C143.581 83.9525 143.756 84.3746 144.067 84.6859C144.378 84.9971 144.8 85.1719 145.241 85.1719" fill="white"/>
<path d="M151.495 70.3009C152.585 70.3009 153.652 69.9775 154.558 69.3715C155.465 68.7656 156.172 67.9043 156.589 66.8967C157.007 65.889 157.116 64.7802 156.903 63.7105C156.691 62.6408 156.165 61.6581 155.394 60.8869C154.623 60.1157 153.64 59.5905 152.571 59.3777C151.501 59.1649 150.392 59.2741 149.384 59.6915C148.377 60.1089 147.515 60.8157 146.909 61.7226C146.303 62.6294 145.98 63.6956 145.98 64.7863C145.982 66.2484 146.563 67.6502 147.597 68.684C148.631 69.7179 150.033 70.2994 151.495 70.3009Z" fill="white"/>
<path d="M145.248 116.314H157.733C158.174 116.314 158.596 116.139 158.907 115.827C159.218 115.516 159.393 115.094 159.393 114.654V110.388C159.393 108.291 158.56 106.28 157.077 104.798C155.595 103.315 153.584 102.482 151.487 102.482C149.39 102.482 147.379 103.315 145.897 104.798C144.414 106.28 143.581 108.291 143.581 110.388V114.654C143.581 115.094 143.756 115.516 144.067 115.827C144.378 116.139 144.8 116.314 145.241 116.314" fill="white"/>
<path d="M151.495 101.441C152.585 101.441 153.652 101.117 154.558 100.511C155.465 99.9055 156.172 99.0442 156.589 98.0366C157.007 97.0289 157.116 95.9201 156.903 94.8504C156.691 93.7806 156.165 92.798 155.394 92.0268C154.623 91.2556 153.64 90.7304 152.571 90.5176C151.501 90.3048 150.392 90.414 149.384 90.8314C148.377 91.2488 147.515 91.9556 146.909 92.8625C146.303 93.7693 145.98 94.8355 145.98 95.9262C145.982 97.3883 146.563 98.7901 147.597 99.8239C148.631 100.858 150.033 101.439 151.495 101.441Z" fill="white"/>
<path d="M145.248 147.453H157.733C158.174 147.453 158.596 147.279 158.907 146.967C159.218 146.656 159.393 146.234 159.393 145.794V141.528C159.393 139.431 158.56 137.42 157.077 135.937C155.595 134.455 153.584 133.622 151.487 133.622C149.39 133.622 147.379 134.455 145.897 135.937C144.414 137.42 143.581 139.431 143.581 141.528V145.788C143.581 146.228 143.756 146.65 144.067 146.962C144.378 147.273 144.8 147.448 145.241 147.448" fill="#FFB100"/>
<path d="M151.495 132.581C152.585 132.581 153.652 132.257 154.559 131.651C155.466 131.045 156.172 130.184 156.59 129.176C157.007 128.168 157.116 127.059 156.903 125.99C156.69 124.92 156.165 123.937 155.393 123.166C154.622 122.395 153.639 121.87 152.569 121.657C151.499 121.445 150.391 121.554 149.383 121.972C148.375 122.39 147.514 123.097 146.909 124.004C146.303 124.911 145.98 125.977 145.98 127.068C145.982 128.53 146.564 129.931 147.598 130.965C148.631 131.998 150.033 132.579 151.495 132.581Z" fill="#FFB100"/>
<path d="M20.1817 85.1718H32.6669C33.107 85.1718 33.5291 84.9969 33.8404 84.6857C34.1516 84.3745 34.3264 83.9523 34.3264 83.5122V79.2461C34.2941 77.1709 33.447 75.1917 31.9681 73.7356C30.4891 72.2795 28.4969 71.4634 26.4214 71.4634C24.346 71.4634 22.3538 72.2795 20.8748 73.7356C19.3958 75.1917 18.5488 77.1709 18.5164 79.2461V83.5122C18.5164 83.9523 18.6913 84.3745 19.0025 84.6857C19.3137 84.9969 19.7358 85.1718 20.176 85.1718" fill="white"/>
<path d="M26.4281 70.3009C27.5188 70.3009 28.585 69.9775 29.4918 69.3715C30.3987 68.7656 31.1055 67.9043 31.5229 66.8967C31.9403 65.889 32.0495 64.7802 31.8367 63.7105C31.624 62.6408 31.0987 61.6581 30.3275 60.8869C29.5563 60.1157 28.5737 59.5905 27.5039 59.3777C26.4342 59.1649 25.3254 59.2741 24.3178 59.6915C23.3101 60.1089 22.4488 60.8157 21.8429 61.7226C21.2369 62.6294 20.9135 63.6956 20.9135 64.7863C20.915 66.2484 21.4965 67.6502 22.5304 68.684C23.5642 69.7179 24.966 70.2994 26.4281 70.3009Z" fill="white"/>
<path d="M20.1817 116.313H32.6668C33.1069 116.313 33.5291 116.138 33.8403 115.827C34.1515 115.516 34.3264 115.094 34.3264 114.654V110.388C34.3427 109.339 34.1503 108.298 33.7604 107.324C33.3705 106.351 32.7908 105.465 32.0551 104.718C31.3195 103.971 30.4425 103.377 29.4753 102.972C28.5081 102.567 27.47 102.358 26.4214 102.358C25.3728 102.358 24.3346 102.567 23.3674 102.972C22.4002 103.377 21.5233 103.971 20.7876 104.718C20.0519 105.465 19.4722 106.351 19.0823 107.324C18.6924 108.298 18.5 109.339 18.5163 110.388V114.654C18.5163 115.094 18.6912 115.516 19.0024 115.827C19.3136 116.138 19.7358 116.313 20.1759 116.313" fill="white"/>
<path d="M26.4281 101.441C27.5188 101.441 28.585 101.117 29.4918 100.511C30.3987 99.9055 31.1055 99.0442 31.5229 98.0366C31.9403 97.0289 32.0495 95.9201 31.8367 94.8504C31.624 93.7806 31.0987 92.798 30.3275 92.0268C29.5563 91.2556 28.5737 90.7304 27.5039 90.5176C26.4342 90.3048 25.3254 90.414 24.3178 90.8314C23.3101 91.2488 22.4488 91.9556 21.8429 92.8625C21.2369 93.7693 20.9135 94.8355 20.9135 95.9262C20.915 97.3883 21.4965 98.7901 22.5304 99.8239C23.5642 100.858 24.966 101.439 26.4281 101.441Z" fill="white"/>
<path d="M20.1817 147.453H32.6668C33.1069 147.453 33.5291 147.278 33.8403 146.967C34.1515 146.656 34.3264 146.234 34.3264 145.794V141.528C34.3427 140.479 34.1503 139.438 33.7604 138.464C33.3705 137.491 32.7908 136.605 32.0551 135.858C31.3195 135.111 30.4425 134.517 29.4753 134.112C28.5081 133.707 27.47 133.498 26.4214 133.498C25.3728 133.498 24.3346 133.707 23.3674 134.112C22.4002 134.517 21.5233 135.111 20.7876 135.858C20.0519 136.605 19.4722 137.491 19.0823 138.464C18.6924 139.438 18.5 140.479 18.5163 141.528V145.788C18.5163 146.228 18.6912 146.65 19.0024 146.961C19.3136 147.273 19.7358 147.448 20.1759 147.448" fill="#FFB100"/>
<path d="M26.4281 132.581C27.5189 132.581 28.5851 132.257 29.492 131.651C30.399 131.045 31.1058 130.184 31.5231 129.176C31.9404 128.168 32.0495 127.059 31.8366 125.99C31.6237 124.92 31.0983 123.937 30.3268 123.166C29.5554 122.395 28.5726 121.87 27.5028 121.657C26.4329 121.445 25.3241 121.554 24.3164 121.972C23.3088 122.39 22.4477 123.097 21.842 124.004C21.2362 124.911 20.9131 125.977 20.9135 127.068C20.9155 128.53 21.4973 129.931 22.5311 130.965C23.5649 131.998 24.9663 132.579 26.4281 132.581Z" fill="#FFB100"/>
<path d="M91.6485 85.1718H104.134C104.574 85.1718 104.996 84.9969 105.307 84.6857C105.618 84.3745 105.793 83.9523 105.793 83.5122V79.2461C105.761 77.1709 104.914 75.1917 103.435 73.7356C101.956 72.2795 99.9637 71.4634 97.8882 71.4634C95.8128 71.4634 93.8206 72.2795 92.3416 73.7356C90.8626 75.1917 90.0156 77.1709 89.9832 79.2461V83.5122C89.9832 83.9523 90.1581 84.3745 90.4693 84.6857C90.7805 84.9969 91.2026 85.1718 91.6428 85.1718" fill="white"/>
<path d="M97.895 70.3009C98.9861 70.3028 100.053 69.981 100.961 69.3762C101.869 68.7714 102.578 67.9108 102.997 66.9033C103.415 65.8958 103.526 64.7867 103.314 63.7164C103.103 62.646 102.578 61.6625 101.807 60.8903C101.037 60.1181 100.054 59.592 98.984 59.3784C97.914 59.1648 96.8047 59.2735 95.7965 59.6906C94.7882 60.1077 93.9264 60.8145 93.32 61.7216C92.7137 62.6286 92.39 63.6952 92.39 64.7863C92.3915 66.2467 92.9717 67.6471 94.0035 68.6806C95.0352 69.7142 96.4345 70.2968 97.895 70.3009Z" fill="white"/>
<path d="M91.6486 116.313H104.134C104.574 116.313 104.996 116.138 105.307 115.827C105.618 115.516 105.793 115.094 105.793 114.654V110.388C105.81 109.339 105.617 108.298 105.227 107.324C104.837 106.351 104.258 105.465 103.522 104.718C102.786 103.971 101.909 103.377 100.942 102.972C99.975 102.567 98.9368 102.358 97.8882 102.358C96.8396 102.358 95.8015 102.567 94.8343 102.972C93.8671 103.377 92.9901 103.971 92.2545 104.718C91.5188 105.465 90.9391 106.351 90.5492 107.324C90.1593 108.298 89.9669 109.339 89.9832 110.388V114.654C89.9832 115.094 90.1581 115.516 90.4693 115.827C90.7805 116.138 91.2026 116.313 91.6428 116.313" fill="white"/>
<path d="M97.895 101.441C98.9861 101.443 100.053 101.121 100.961 100.516C101.869 99.9115 102.578 99.0509 102.997 98.0435C103.415 97.036 103.526 95.9269 103.314 94.8565C103.103 93.7861 102.578 92.8026 101.807 92.0305C101.037 91.2583 100.054 90.7321 98.984 90.5185C97.914 90.305 96.8047 90.4136 95.7965 90.8307C94.7882 91.2478 93.9264 91.9546 93.32 92.8617C92.7137 93.7688 92.39 94.8354 92.39 95.9264C92.3915 97.3885 92.973 98.7903 94.0069 99.8242C95.0407 100.858 96.4425 101.44 97.9046 101.441" fill="white"/>
<path d="M91.6486 147.453H104.134C104.574 147.453 104.996 147.278 105.307 146.967C105.618 146.656 105.793 146.234 105.793 145.794V141.528C105.81 140.479 105.617 139.438 105.227 138.464C104.837 137.491 104.258 136.605 103.522 135.858C102.786 135.111 101.909 134.517 100.942 134.112C99.975 133.707 98.9368 133.498 97.8882 133.498C96.8396 133.498 95.8015 133.707 94.8343 134.112C93.8671 134.517 92.9901 135.111 92.2545 135.858C91.5188 136.605 90.9391 137.491 90.5492 138.464C90.1593 139.438 89.9669 140.479 89.9832 141.528V145.788C89.9832 146.228 90.1581 146.65 90.4693 146.961C90.7805 147.273 91.2026 147.448 91.6428 147.448" fill="#FFB100"/>
<path d="M97.895 132.581C98.9861 132.583 100.053 132.261 100.962 131.656C101.87 131.051 102.578 130.19 102.997 129.183C103.416 128.175 103.526 127.066 103.314 125.996C103.102 124.925 102.578 123.942 101.807 123.17C101.036 122.397 100.053 121.871 98.9828 121.658C97.9127 121.445 96.8033 121.554 95.7951 121.971C94.7869 122.388 93.9252 123.096 93.3191 124.003C92.7129 124.91 92.3896 125.977 92.39 127.068C92.392 128.53 92.9737 129.931 94.0075 130.965C95.0413 131.998 96.4428 132.579 97.9046 132.581" fill="#FFB100"/>
<path d="M163.115 85.1718H175.601C176.041 85.1718 176.463 84.9969 176.774 84.6857C177.085 84.3745 177.26 83.9523 177.26 83.5122V79.2461C177.228 77.1709 176.381 75.1917 174.902 73.7356C173.423 72.2795 171.431 71.4634 169.355 71.4634C167.28 71.4634 165.287 72.2795 163.808 73.7356C162.329 75.1917 161.482 77.1709 161.45 79.2461V83.5122C161.45 83.9523 161.625 84.3745 161.936 84.6857C162.247 84.9969 162.669 85.1718 163.11 85.1718" fill="white"/>
<path d="M169.362 70.3009C170.452 70.3002 171.518 69.9761 172.425 69.3697C173.331 68.7633 174.037 67.9017 174.454 66.894C174.871 65.8863 174.979 64.7776 174.766 63.7081C174.553 62.6387 174.027 61.6564 173.256 60.8856C172.485 60.1147 171.502 59.5899 170.432 59.3774C169.363 59.1649 168.254 59.2744 167.247 59.6919C166.239 60.1094 165.378 60.8162 164.773 61.723C164.167 62.6298 163.843 63.6958 163.843 64.7863C163.845 66.2491 164.427 67.6514 165.462 68.6854C166.496 69.7194 167.899 70.3004 169.362 70.3009Z" fill="white"/>
<path d="M163.115 116.313H175.601C176.041 116.313 176.463 116.138 176.774 115.827C177.085 115.516 177.26 115.094 177.26 114.654V110.388C177.276 109.339 177.084 108.298 176.694 107.324C176.304 106.351 175.725 105.465 174.989 104.718C174.253 103.971 173.376 103.377 172.409 102.972C171.442 102.567 170.404 102.358 169.355 102.358C168.307 102.358 167.268 102.567 166.301 102.972C165.334 103.377 164.457 103.971 163.721 104.718C162.986 105.465 162.406 106.351 162.016 107.324C161.626 108.298 161.434 109.339 161.45 110.388V114.654C161.45 115.094 161.625 115.516 161.936 115.827C162.247 116.138 162.67 116.313 163.11 116.313" fill="white"/>
<path d="M169.362 101.441C170.452 101.44 171.518 101.116 172.425 100.51C173.331 99.9031 174.037 99.0416 174.454 98.0339C174.871 97.0262 174.979 95.9175 174.766 94.848C174.553 93.7785 174.027 92.7963 173.256 92.0254C172.485 91.2546 171.502 90.7298 170.432 90.5173C169.363 90.3048 168.254 90.4143 167.247 90.8318C166.239 91.2493 165.378 91.9561 164.773 92.8629C164.167 93.7697 163.843 94.8357 163.843 95.9262C163.845 97.3883 164.426 98.7901 165.46 99.8239C166.494 100.858 167.896 101.439 169.358 101.441" fill="white"/>
<path d="M163.115 147.453H175.601C176.041 147.453 176.463 147.278 176.774 146.967C177.085 146.656 177.26 146.234 177.26 145.794V141.528C177.276 140.479 177.084 139.438 176.694 138.464C176.304 137.491 175.725 136.605 174.989 135.858C174.253 135.111 173.376 134.517 172.409 134.112C171.442 133.707 170.404 133.498 169.355 133.498C168.307 133.498 167.268 133.707 166.301 134.112C165.334 134.517 164.457 135.111 163.721 135.858C162.986 136.605 162.406 137.491 162.016 138.464C161.626 139.438 161.434 140.479 161.45 141.528V145.788C161.45 146.228 161.625 146.65 161.936 146.961C162.247 147.273 162.67 147.448 163.11 147.448" fill="#FFB100"/>
<path d="M169.362 132.581C170.452 132.58 171.518 132.256 172.425 131.649C173.331 131.043 174.037 130.181 174.454 129.173C174.871 128.166 174.979 127.057 174.766 125.987C174.553 124.918 174.027 123.936 173.255 123.165C172.484 122.394 171.501 121.869 170.431 121.657C169.362 121.445 168.253 121.555 167.245 121.972C166.238 122.39 165.377 123.097 164.772 124.004C164.166 124.911 163.843 125.978 163.843 127.068C163.845 128.53 164.427 129.931 165.461 130.965C166.495 131.998 167.896 132.579 169.358 132.581" fill="#FFB100"/>
<path d="M38.0489 85.1718H50.534C50.9742 85.1718 51.3963 84.9969 51.7075 84.6857C52.0187 84.3745 52.1936 83.9523 52.1936 83.5122V79.2461C52.1612 77.1709 51.3141 75.1917 49.8352 73.7356C48.3562 72.2795 46.364 71.4634 44.2886 71.4634C42.2131 71.4634 40.2209 72.2795 38.7419 73.7356C37.263 75.1917 36.4159 77.1709 36.3835 79.2461V83.5122C36.3835 83.9523 36.5584 84.3745 36.8696 84.6857C37.1808 84.9969 37.603 85.1718 38.0431 85.1718" fill="white"/>
<path d="M44.2934 70.3009C45.3841 70.3013 46.4505 69.9782 47.3576 69.3725C48.2648 68.7668 48.9719 67.9056 49.3896 66.898C49.8072 65.8904 49.9167 64.7815 49.7042 63.7117C49.4916 62.6418 48.9665 61.659 48.1954 60.8876C47.4242 60.1162 46.4416 59.5908 45.3718 59.3778C44.3021 59.1649 43.1932 59.274 42.1854 59.6913C41.1776 60.1087 40.3162 60.8155 39.7102 61.7224C39.1042 62.6293 38.7807 63.6956 38.7807 64.7863C38.7822 66.2481 39.3635 67.6496 40.3969 68.6834C41.4303 69.7172 42.8316 70.2989 44.2934 70.3009Z" fill="white"/>
<path d="M38.0489 116.313H50.534C50.9741 116.313 51.3963 116.138 51.7075 115.827C52.0187 115.516 52.1936 115.094 52.1936 114.654V110.388C52.2099 109.339 52.0175 108.298 51.6276 107.324C51.2377 106.351 50.658 105.465 49.9223 104.718C49.1866 103.971 48.3097 103.377 47.3425 102.972C46.3753 102.567 45.3371 102.358 44.2885 102.358C43.2399 102.358 42.2018 102.567 41.2346 102.972C40.2674 103.377 39.3904 103.971 38.6548 104.718C37.9191 105.465 37.3394 106.351 36.9495 107.324C36.5596 108.298 36.3672 109.339 36.3835 110.388V114.654C36.3835 115.094 36.5584 115.516 36.8696 115.827C37.1808 116.138 37.6029 116.313 38.0431 116.313" fill="white"/>
<path d="M44.2934 101.441C45.3841 101.441 46.4505 101.118 47.3576 100.512C48.2648 99.9066 48.9719 99.0455 49.3896 98.0379C49.8072 97.0303 49.9167 95.9214 49.7042 94.8516C49.4916 93.7817 48.9665 92.7989 48.1954 92.0275C47.4242 91.2561 46.4416 90.7307 45.3718 90.5177C44.3021 90.3048 43.1932 90.4139 42.1854 90.8312C41.1776 91.2485 40.3162 91.9554 39.7102 92.8623C39.1042 93.7692 38.7807 94.8355 38.7807 95.9262C38.7822 97.388 39.3635 98.7895 40.3969 99.8233C41.4303 100.857 42.8316 101.439 44.2934 101.441Z" fill="white"/>
<path d="M38.0489 147.453H50.534C50.9741 147.453 51.3963 147.278 51.7075 146.967C52.0187 146.656 52.1936 146.234 52.1936 145.794V141.528C52.2099 140.479 52.0175 139.438 51.6276 138.464C51.2377 137.491 50.658 136.605 49.9223 135.858C49.1866 135.111 48.3097 134.517 47.3425 134.112C46.3753 133.707 45.3371 133.498 44.2885 133.498C43.2399 133.498 42.2018 133.707 41.2346 134.112C40.2674 134.517 39.3904 135.111 38.6548 135.858C37.9191 136.605 37.3394 137.491 36.9495 138.464C36.5596 139.438 36.3672 140.479 36.3835 141.528V145.788C36.3835 146.228 36.5584 146.65 36.8696 146.961C37.1808 147.273 37.6029 147.448 38.0431 147.448" fill="#FFB100"/>
<path d="M44.2934 132.581C45.3842 132.581 46.4507 132.258 47.3578 131.652C48.265 131.046 48.9721 130.185 49.3897 129.177C49.8074 128.17 49.9167 127.061 49.704 125.991C49.4913 124.921 48.966 123.938 48.1947 123.167C47.4234 122.395 46.4406 121.87 45.3707 121.658C44.3008 121.445 43.1918 121.554 42.1841 121.972C41.1763 122.389 40.3151 123.097 39.7093 124.004C39.1035 124.911 38.7803 125.977 38.7807 127.068C38.7827 128.53 39.3642 129.931 40.3976 130.964C41.431 131.997 42.8319 132.579 44.2934 132.581Z" fill="#FFB100"/>
<path d="M109.516 85.1718H122.001C122.441 85.1718 122.863 84.9969 123.174 84.6857C123.486 84.3745 123.66 83.9523 123.66 83.5122V79.2461C123.628 77.1709 122.781 75.1917 121.302 73.7356C119.823 72.2795 117.831 71.4634 115.755 71.4634C113.68 71.4634 111.688 72.2795 110.209 73.7356C108.73 75.1917 107.883 77.1709 107.85 79.2461V83.5122C107.85 83.9523 108.025 84.3745 108.336 84.6857C108.648 84.9969 109.07 85.1718 109.51 85.1718" fill="white"/>
<path d="M115.76 70.3009C116.851 70.3024 117.918 69.9803 118.826 69.3753C119.734 68.7702 120.442 67.9095 120.861 66.902C121.279 65.8945 121.389 64.7854 121.178 63.7152C120.966 62.645 120.441 61.6616 119.67 60.8896C118.899 60.1176 117.917 59.5917 116.847 59.3783C115.777 59.1648 114.667 59.2736 113.659 59.6908C112.651 60.1079 111.79 60.8147 111.183 61.7218C110.577 62.6288 110.253 63.6953 110.253 64.7863C110.255 66.2471 110.835 67.6477 111.868 68.6813C112.9 69.715 114.3 70.2973 115.76 70.3009Z" fill="white"/>
<path d="M109.516 116.313H122.001C122.441 116.313 122.863 116.138 123.174 115.827C123.486 115.516 123.66 115.094 123.66 114.654V110.388C123.677 109.339 123.484 108.298 123.094 107.324C122.705 106.351 122.125 105.465 121.389 104.718C120.654 103.971 119.777 103.377 118.809 102.972C117.842 102.567 116.804 102.358 115.755 102.358C114.707 102.358 113.669 102.567 112.702 102.972C111.734 103.377 110.857 103.971 110.122 104.718C109.386 105.465 108.806 106.351 108.416 107.324C108.026 108.298 107.834 109.339 107.85 110.388V114.654C107.85 115.094 108.025 115.516 108.336 115.827C108.648 116.138 109.07 116.313 109.51 116.313" fill="white"/>
<path d="M115.76 101.441C116.851 101.442 117.918 101.12 118.826 100.515C119.734 99.9101 120.442 99.0494 120.861 98.0419C121.279 97.0344 121.389 95.9253 121.178 94.8551C120.966 93.7849 120.441 92.8015 119.67 92.0295C118.899 91.2575 117.917 90.7316 116.847 90.5181C115.777 90.3047 114.667 90.4135 113.659 90.8307C112.651 91.2478 111.79 91.9546 111.183 92.8617C110.577 93.7687 110.253 94.8352 110.253 95.9262C110.255 97.388 110.836 98.7894 111.87 99.8233C112.903 100.857 114.304 101.439 115.766 101.441" fill="white"/>
<path d="M109.516 147.453H122.001C122.441 147.453 122.863 147.278 123.174 146.967C123.486 146.656 123.66 146.234 123.66 145.794V141.528C123.677 140.479 123.484 139.438 123.094 138.464C122.705 137.491 122.125 136.605 121.389 135.858C120.654 135.111 119.777 134.517 118.809 134.112C117.842 133.707 116.804 133.498 115.755 133.498C114.707 133.498 113.669 133.707 112.702 134.112C111.734 134.517 110.857 135.111 110.122 135.858C109.386 136.605 108.806 137.491 108.416 138.464C108.026 139.438 107.834 140.479 107.85 141.528V145.788C107.85 146.228 108.025 146.65 108.336 146.961C108.648 147.273 109.07 147.448 109.51 147.448" fill="#FFB100"/>
<path d="M115.76 132.581C116.851 132.581 117.918 132.258 118.825 131.652C119.732 131.046 120.439 130.185 120.857 129.177C121.274 128.17 121.384 127.061 121.171 125.991C120.958 124.921 120.433 123.938 119.662 123.167C118.89 122.395 117.907 121.87 116.838 121.658C115.768 121.445 114.659 121.554 113.651 121.972C112.643 122.389 111.782 123.097 111.176 124.004C110.57 124.911 110.247 125.977 110.248 127.068C110.25 128.53 110.831 129.931 111.864 130.964C112.898 131.997 114.299 132.579 115.76 132.581Z" fill="#FFB100"/>
<path d="M15.2894 0.687744V30.75H5.15342V8.33249H-6.10352e-05V0.687744H15.2894Z" fill="white"/>
<path d="M40.5632 13.9373C42.5531 15.6968 43.5481 18.0088 43.5481 20.8733C43.5603 22.7179 43.0459 24.5278 42.0652 26.0902C41.0792 27.6806 39.5554 28.972 37.4938 29.9644C35.4321 30.9568 32.8711 31.4505 29.8106 31.4454C27.6791 31.4447 25.554 31.2141 23.472 30.7577C21.5418 30.3649 19.6816 29.6844 17.9536 28.739L21.3898 21.2671C22.6387 21.9788 23.9737 22.5274 25.362 22.8997C26.6848 23.2619 28.0493 23.4491 29.4207 23.4568C30.5949 23.4568 31.547 23.2493 32.2769 22.8344C33.0068 22.4196 33.3717 21.8395 33.3717 21.0942C33.381 20.7591 33.2926 20.4285 33.1173 20.1427C32.942 19.8569 32.6874 19.6282 32.3845 19.4846C31.725 19.1273 30.5367 18.9487 28.8195 18.9487H20.0991L21.6031 0.701172H41.5793V8.34592H29.9354L29.7203 11.3097H31.2666C35.4756 11.3007 38.5745 12.1766 40.5632 13.9373Z" fill="white"/>
<path d="M52.1168 29.5687C50.0679 28.324 48.4673 26.5204 47.3148 24.1578C46.1623 21.7952 45.5822 18.9825 45.5746 15.7198C45.5746 12.4544 46.1546 9.64109 47.3148 7.2798C48.4749 4.91851 50.0756 3.11488 52.1168 1.86893C54.163 0.622976 56.5179 0 59.1814 0C61.8449 0 64.1998 0.622976 66.2461 1.86893C68.295 3.1136 69.8956 4.91722 71.0481 7.2798C72.2006 9.64237 72.7838 12.4557 72.7979 15.7198C72.7979 18.9825 72.2178 21.7952 71.0577 24.1578C69.8975 26.5204 68.2969 28.324 66.2557 29.5687C64.2069 30.8159 61.852 31.4389 59.191 31.4376C56.5301 31.4363 54.172 30.8133 52.1168 29.5687ZM62.6177 15.7198C62.6177 10.6514 61.4723 8.11726 59.1814 8.11726C56.8906 8.11726 55.7451 10.6514 55.7451 15.7198C55.7451 20.7868 56.8906 23.3203 59.1814 23.3203C61.4723 23.3203 62.6177 20.7868 62.6177 15.7198Z" fill="white"/>
<path d="M84.6492 15.5889C85.712 16.5928 86.2434 17.9271 86.2434 19.5918C86.2415 20.3465 86.1401 21.0976 85.9419 21.8257C85.7421 22.5684 85.2843 23.6991 84.5685 25.2178L81.5625 31.616H75.5446L77.6921 24.3592C76.8338 23.9561 76.116 23.3052 75.6311 22.4903C75.1303 21.6082 74.8812 20.6057 74.9108 19.5918C74.9108 17.9271 75.4403 16.5954 76.4993 15.5966C77.5583 14.5978 78.9182 14.0971 80.579 14.0945C82.2348 14.0894 83.5915 14.5875 84.6492 15.5889Z" fill="white"/>
<path d="M94.887 29.5687C92.8382 28.324 91.2375 26.5204 90.085 24.1578C88.9325 21.7952 88.3525 18.9825 88.3448 15.7198C88.3448 12.4544 88.9249 9.64109 90.085 7.2798C91.2452 4.91851 92.8458 3.11488 94.887 1.86893C96.9358 0.622976 99.2927 0 101.957 0C104.622 0 106.977 0.622976 109.022 1.86893C111.071 3.1136 112.672 4.91722 113.824 7.2798C114.977 9.64237 115.556 12.4557 115.562 15.7198C115.562 18.9825 114.983 21.7952 113.824 24.1578C112.665 26.5204 111.065 28.324 109.022 29.5687C106.973 30.8159 104.618 31.4389 101.957 31.4376C99.2965 31.4363 96.9397 30.8133 94.887 29.5687ZM105.388 15.7198C105.388 10.6514 104.243 8.11726 101.952 8.11726C99.6608 8.11726 98.5179 10.6514 98.5231 15.7198C98.5231 20.7868 99.6678 23.3203 101.957 23.3203C104.247 23.3203 105.392 20.7868 105.394 15.7198H105.388Z" fill="white"/>
<path d="M124.613 29.5687C122.564 28.324 120.964 26.5204 119.811 24.1578C118.659 21.7952 118.079 18.9825 118.073 15.7198C118.073 12.4544 118.652 9.64109 119.811 7.2798C120.97 4.91851 122.571 3.11488 124.613 1.86893C126.658 0.622976 129.013 0 131.678 0C134.343 0 136.698 0.622976 138.743 1.86893C140.791 3.1136 142.392 4.91722 143.544 7.2798C144.697 9.64237 145.277 12.4557 145.285 15.7198C145.285 18.9825 144.705 21.7952 143.544 24.1578C142.384 26.5204 140.784 28.324 138.743 29.5687C136.694 30.8159 134.339 31.4389 131.678 31.4376C129.017 31.4363 126.662 30.8133 124.613 29.5687ZM135.112 15.7198C135.112 10.6514 133.967 8.11726 131.678 8.11726C129.388 8.11726 128.243 10.6514 128.242 15.7198C128.242 20.7868 129.387 23.3203 131.678 23.3203C133.969 23.3203 135.113 20.7868 135.112 15.7198Z" fill="white"/>
<path d="M154.332 29.5687C152.283 28.324 150.682 26.5204 149.53 24.1578C148.377 21.7952 147.797 18.9825 147.789 15.7198C147.789 12.4544 148.37 9.64109 149.53 7.2798C150.69 4.91851 152.29 3.11488 154.332 1.86893C156.379 0.622976 158.734 0 161.396 0C164.059 0 166.411 0.622976 168.453 1.86893C170.502 3.1136 172.106 4.91722 173.265 7.2798C174.424 9.64237 175 12.4557 174.994 15.7198C174.994 18.9825 174.417 21.7952 173.265 24.1578C172.112 26.5204 170.509 28.324 168.453 29.5687C166.404 30.8159 164.05 31.4389 161.389 31.4376C158.728 31.4363 156.375 30.8133 154.332 29.5687ZM164.833 15.7198C164.833 10.6514 163.687 8.11726 161.396 8.11726C159.105 8.11726 157.96 10.6514 157.96 15.7198C157.96 20.7868 159.105 23.3203 161.396 23.3203C163.687 23.3203 164.833 20.7868 164.833 15.7198Z" fill="white"/>
<path d="M14.5 37.3728L9.60388 48.8092H6.41153L1.53656 37.3728H5.0324L8.1364 44.8216L11.3057 37.3728H14.5Z" fill="white"/>
<path d="M15.1858 37.3728H18.4204V48.8092H15.1858V37.3728Z" fill="white"/>
<path d="M22.0468 48.694C21.2907 48.5157 20.5717 48.2062 19.9224 47.7797L20.9846 45.3941C22.1146 46.111 23.4209 46.5013 24.7589 46.5216C26.0023 46.5216 26.6234 46.2111 26.6221 45.59C26.6211 45.4284 26.5691 45.2713 26.4735 45.1409C26.378 45.0106 26.2438 44.9137 26.0901 44.864C25.5375 44.645 24.9659 44.4778 24.3825 44.3646C23.6513 44.2157 22.9312 44.0167 22.2273 43.7691C21.6536 43.5592 21.1422 43.2077 20.7407 42.7473C20.3258 42.2786 20.1183 41.6466 20.1183 40.8514C20.1126 40.1785 20.3138 39.5201 20.6946 38.9652C21.1244 38.367 21.7171 37.9049 22.4021 37.6341C23.2876 37.2831 24.2352 37.1158 25.1873 37.1424C25.9353 37.1419 26.6809 37.227 27.4096 37.3959C28.0839 37.545 28.7315 37.7956 29.3304 38.1393L28.3335 40.5422C27.3679 39.9865 26.278 39.6827 25.1642 39.6586C24.524 39.6586 24.0553 39.754 23.7582 39.9448C23.6259 40.019 23.5155 40.1268 23.4383 40.2573C23.361 40.3879 23.3196 40.5365 23.3184 40.6882C23.3184 40.9936 23.4912 41.2222 23.8408 41.3739C24.3855 41.5846 24.9489 41.7434 25.5234 41.8483C26.2597 41.9969 26.9843 42.1978 27.692 42.4495C28.263 42.6602 28.7735 43.0078 29.1787 43.4618C29.5974 43.9253 29.8068 44.5541 29.8068 45.348C29.812 46.0137 29.6106 46.6646 29.2305 47.2112C28.7957 47.8077 28.2011 48.2691 27.5153 48.5423C26.6334 48.8973 25.6881 49.0673 24.7378 49.0417C23.8296 49.0416 22.9252 48.9248 22.0468 48.694Z" fill="white"/>
<path d="M31.2935 37.3728H34.53V48.8092H31.2935V37.3728Z" fill="white"/>
<path d="M39.2667 39.9371H35.7536V37.3728H45.9991V39.9371H42.5013V48.8092H39.2667V39.9371Z" fill="white"/>
<path d="M49.5679 48.2694C48.6231 47.7738 47.8319 47.0293 47.2799 46.1163C46.7279 45.2034 46.4361 44.1569 46.4361 43.09C46.4361 42.0232 46.7279 40.9766 47.2799 40.0637C47.8319 39.1508 48.6231 38.4062 49.5679 37.9106C50.5802 37.4053 51.6961 37.1423 52.8275 37.1423C53.9588 37.1423 55.0747 37.4053 56.087 37.9106C57.0318 38.4062 57.823 39.1508 58.375 40.0637C58.927 40.9766 59.2188 42.0232 59.2188 43.09C59.2188 44.1569 58.927 45.2034 58.375 46.1163C57.823 47.0293 57.0318 47.7738 56.087 48.2694C55.0747 48.7747 53.9588 49.0377 52.8275 49.0377C51.6961 49.0377 50.5802 48.7747 49.5679 48.2694ZM54.3967 45.9491C54.8659 45.6746 55.2501 45.2757 55.507 44.7966C55.7759 44.2676 55.916 43.6825 55.916 43.089C55.916 42.4956 55.7759 41.9105 55.507 41.3815C55.2499 40.9025 54.8657 40.5038 54.3967 40.229C53.9176 39.9606 53.3776 39.8197 52.8284 39.8197C52.2792 39.8197 51.7392 39.9606 51.2601 40.229C50.7901 40.5031 50.4051 40.902 50.148 41.3815C49.8791 41.9105 49.7389 42.4956 49.7389 43.089C49.7389 43.6825 49.8791 44.2676 50.148 44.7966C50.4049 45.2763 50.7899 45.6752 51.2601 45.9491C51.7392 46.2175 52.2792 46.3584 52.8284 46.3584C53.3776 46.3584 53.9176 46.2175 54.3967 45.9491Z" fill="white"/>
<path d="M65.8831 45.7704H64.1198V48.8091H60.889V37.3727H66.1155C67.038 37.3522 67.9544 37.527 68.8046 37.8856C69.3284 38.1328 69.7949 38.4867 70.1741 38.9246C70.5533 39.3625 70.837 39.8747 71.0069 40.4284C71.1769 40.9822 71.2294 41.5653 71.161 42.1406C71.0927 42.7158 70.9051 43.2704 70.6101 43.7689C70.2063 44.3984 69.6313 44.8995 68.9525 45.2134L71.4188 48.8091H67.9614L65.8831 45.7704ZM67.4197 40.3615C67.0816 40.0669 66.5803 39.9203 65.9157 39.9216H64.1198V43.2695H65.9157C66.5803 43.2695 67.0816 43.1255 67.4197 42.8374C67.5914 42.6831 67.7262 42.4921 67.814 42.2786C67.9017 42.0652 67.9403 41.8346 67.9268 41.6042C67.9401 41.3724 67.9015 41.1405 67.8138 40.9255C67.726 40.7105 67.5914 40.5178 67.4197 40.3615Z" fill="white"/>
<path d="M74.2961 48.6939C73.54 48.5155 72.821 48.2061 72.1717 47.7796L73.2339 45.394C74.3639 46.1109 75.6702 46.5011 77.0083 46.5215C78.2491 46.5215 78.8702 46.2109 78.8714 45.5899C78.8704 45.4283 78.8184 45.2711 78.7229 45.1408C78.6274 45.0104 78.4932 44.9135 78.3394 44.8638C77.789 44.6476 77.22 44.4824 76.6395 44.3702C75.9078 44.221 75.1871 44.0221 74.4824 43.7747C73.9092 43.5639 73.398 43.2125 72.9957 42.7529C72.5821 42.2842 72.3753 41.6523 72.3753 40.8571C72.3684 40.184 72.5697 39.5252 72.9516 38.9708C73.3806 38.3718 73.9736 37.9096 74.6591 37.6397C75.5446 37.2887 76.4922 37.1214 77.4443 37.148C78.1923 37.1476 78.9379 37.2327 79.6667 37.4016C80.3408 37.5509 80.9884 37.8016 81.5874 38.1449L80.5906 40.5478C79.6242 39.9922 78.5337 39.6883 77.4193 39.6642C76.7791 39.6642 76.311 39.7596 76.0152 39.9504C75.8827 40.0245 75.772 40.1322 75.6944 40.2627C75.6169 40.3933 75.5751 40.542 75.5734 40.6938C75.5734 40.9986 75.7482 41.2271 76.0978 41.3795C76.6425 41.5902 77.2059 41.749 77.7804 41.8539C78.5139 42.0013 79.236 42.2002 79.9413 42.4494C80.5118 42.661 81.0221 43.0084 81.428 43.4616C81.8467 43.9252 82.0561 44.5539 82.0561 45.3479C82.0613 46.0136 81.86 46.6645 81.4799 47.211C81.0447 47.808 80.4493 48.2695 79.7627 48.5421C78.8809 48.8971 77.9355 49.0671 76.9852 49.0415C76.0776 49.0417 75.1738 48.9248 74.2961 48.6939Z" fill="white"/>
<path d="M96.6945 35.0522H99.4565L94.0649 50.4416H91.3028L96.6945 35.0522Z" fill="white"/>
<path d="M119.665 48.8092L119.633 42.7472L116.692 47.6817H115.247L112.33 42.9104V48.8092H109.341V37.3728H112.003L116.016 43.9726L119.936 37.3728H122.6L122.633 48.8092H119.665Z" fill="white"/>
<path d="M127.435 48.2694C126.49 47.7738 125.699 47.0293 125.147 46.1163C124.595 45.2034 124.303 44.1569 124.303 43.09C124.303 42.0232 124.595 40.9766 125.147 40.0637C125.699 39.1508 126.49 38.4062 127.435 37.9106C128.447 37.4053 129.563 37.1423 130.694 37.1423C131.826 37.1423 132.942 37.4053 133.954 37.9106C134.899 38.4062 135.69 39.1508 136.242 40.0637C136.794 40.9766 137.086 42.0232 137.086 43.09C137.086 44.1569 136.794 45.2034 136.242 46.1163C135.69 47.0293 134.899 47.7738 133.954 48.2694C132.942 48.7747 131.826 49.0377 130.694 49.0377C129.563 49.0377 128.447 48.7747 127.435 48.2694ZM132.262 45.9491C132.732 45.6752 133.117 45.2763 133.374 44.7966C133.643 44.2676 133.783 43.6825 133.783 43.089C133.783 42.4956 133.643 41.9105 133.374 41.3815C133.117 40.902 132.732 40.5031 132.262 40.229C131.783 39.9606 131.243 39.8197 130.693 39.8197C130.144 39.8197 129.604 39.9606 129.125 40.229C128.656 40.5032 128.271 40.9021 128.015 41.3815C127.746 41.9105 127.606 42.4956 127.606 43.089C127.606 43.6825 127.746 44.2676 128.015 44.7966C128.271 45.2761 128.655 45.6751 129.125 45.9491C129.604 46.2175 130.144 46.3584 130.693 46.3584C131.243 46.3584 131.783 46.2175 132.262 45.9491Z" fill="white"/>
<path d="M149.63 37.3728V48.8092H146.967L141.918 42.7145V48.8092H138.748V37.3728H141.412L146.46 43.4655V37.3728H149.63Z" fill="white"/>
<path d="M154.351 39.9371H150.84V37.3728H161.083V39.9371H157.587V48.8092H154.351V39.9371Z" fill="white"/>
<path d="M173.173 37.3728V48.8092H169.938V44.3491H165.52V48.8092H162.291V37.3728H165.526V41.6696H169.944V37.3728H173.173Z" fill="white"/>
<path d="M27.4212 175.62C28.8413 177.336 29.5513 179.401 29.5513 181.816C29.558 183.86 28.9707 185.862 27.861 187.579C26.7355 189.359 24.9971 190.804 22.6461 191.914C20.2951 193.024 17.3729 193.579 13.8796 193.579C11.4505 193.577 9.0286 193.314 6.65552 192.796C4.45406 192.346 2.33238 191.569 0.361084 190.491L4.2795 181.968C5.69839 182.789 7.2229 183.412 8.81064 183.82C10.3358 184.232 11.9078 184.447 13.4878 184.457C14.8246 184.457 15.9022 184.229 16.7205 183.772C17.5387 183.315 17.9466 182.661 17.944 181.812C17.944 180.245 16.5892 179.461 13.8796 179.461H9.32349V172.354L14.3694 167.213H2.12437V158.504H27.6901V165.611L21.3208 172.07C23.9676 172.723 26.0011 173.906 27.4212 175.62Z" fill="#FFB100"/>
<path d="M39.6163 191.439C37.2793 190.021 35.4507 187.964 34.1305 185.27C32.8103 182.576 32.1489 179.367 32.1463 175.645C32.1463 171.922 32.8077 168.715 34.1305 166.022C35.4533 163.329 37.2819 161.272 39.6163 159.85C41.9507 158.43 44.6359 157.72 47.6721 157.72C50.7082 157.72 53.3941 158.43 55.7298 159.85C58.0642 161.272 59.8921 163.329 61.2136 166.022C62.5351 168.715 63.1952 171.922 63.194 175.645C63.194 179.367 62.5326 182.576 61.2098 185.27C59.887 187.964 58.059 190.021 55.7259 191.439C53.3902 192.861 50.7043 193.572 47.6682 193.572C44.6321 193.572 41.9481 192.861 39.6163 191.439ZM51.5905 175.645C51.5905 169.866 50.2843 166.976 47.6721 166.976C45.0598 166.976 43.7536 169.866 43.7536 175.645C43.7536 181.424 45.0598 184.313 47.6721 184.313C50.2843 184.313 51.5905 181.424 51.5905 175.645Z" fill="#FFB100"/>
<path d="M67.948 174.567C66.25 172.871 65.401 170.536 65.401 167.564C65.401 165.573 65.7928 163.859 66.5765 162.422C67.3169 161.03 68.4532 159.888 69.8419 159.141C71.2896 158.4 72.8926 158.014 74.519 158.014C76.1453 158.014 77.7484 158.4 79.1961 159.141C80.5846 159.889 81.7208 161.03 82.4615 162.422C83.2451 163.859 83.637 165.573 83.637 167.564C83.637 170.536 82.788 172.871 81.09 174.567C79.392 176.264 77.2049 177.113 74.5286 177.114C71.8382 177.114 69.6447 176.265 67.948 174.567ZM94.647 158.504H102.916L79.5054 192.788H71.2287L94.647 158.504ZM76.0633 170.822C76.4705 170.153 76.6748 169.065 76.676 167.556C76.6773 166.048 76.4731 164.959 76.0633 164.291C75.6548 163.623 75.1426 163.288 74.5267 163.288C73.9107 163.288 73.3985 163.623 72.99 164.291C72.5828 164.962 72.3792 166.05 72.3792 167.556C72.3792 169.062 72.5828 170.151 72.99 170.822C73.3985 171.49 73.9107 171.824 74.5267 171.824C75.1426 171.824 75.6548 171.49 76.0633 170.822ZM93.0719 190.735C91.3739 189.037 90.525 186.702 90.525 183.729C90.525 181.74 90.9168 180.026 91.7005 178.587C92.4408 177.195 93.5771 176.054 94.9658 175.307C96.4135 174.566 98.0166 174.179 99.6429 174.179C101.269 174.179 102.872 174.566 104.32 175.307C105.708 176.054 106.844 177.196 107.585 178.587C108.369 180.024 108.761 181.738 108.761 183.729C108.761 186.702 107.912 189.037 106.214 190.735C104.516 192.433 102.328 193.282 99.6506 193.282C96.9628 193.279 94.7699 192.43 93.0719 190.735ZM101.178 186.987C101.586 186.319 101.79 185.23 101.79 183.722C101.79 182.213 101.586 181.125 101.178 180.456C100.77 179.788 100.258 179.453 99.641 179.452C99.0238 179.451 98.5116 179.785 98.1044 180.456C97.6959 181.125 97.4917 182.213 97.4917 183.722C97.4917 185.23 97.6959 186.319 98.1044 186.987C98.5116 187.658 99.0238 187.993 99.641 187.992C100.258 187.99 100.77 187.654 101.178 186.983V186.987Z" fill="#FFB100"/>
<path d="M118.824 164.767C119.176 165.24 119.359 165.818 119.343 166.408C119.359 166.836 119.264 167.261 119.066 167.64C118.868 168.02 118.575 168.342 118.215 168.574C117.462 169.087 116.374 169.343 114.95 169.343H109.187V158.657H114.648C116.012 158.657 117.049 158.909 117.76 159.412C118.096 159.633 118.371 159.936 118.558 160.292C118.745 160.648 118.837 161.046 118.828 161.448C118.835 161.93 118.706 162.403 118.455 162.814C118.197 163.226 117.83 163.559 117.395 163.774C117.959 163.957 118.456 164.303 118.824 164.767ZM112.174 160.839V162.898H114.249C115.265 162.898 115.774 162.555 115.774 161.861C115.774 161.168 115.265 160.839 114.249 160.839H112.174ZM116.292 166.072C116.292 165.349 115.763 164.988 114.706 164.988H112.174V167.155H114.706C115.765 167.155 116.294 166.794 116.292 166.072Z" fill="#FFB100"/>
<path d="M123.257 168.838C122.375 168.375 121.635 167.68 121.12 166.828C120.604 165.975 120.331 164.998 120.331 164.002C120.331 163.006 120.604 162.028 121.12 161.176C121.635 160.324 122.375 159.629 123.257 159.166C124.202 158.694 125.243 158.448 126.3 158.448C127.356 158.448 128.398 158.694 129.342 159.166C130.224 159.629 130.963 160.324 131.478 161.177C131.993 162.029 132.266 163.006 132.266 164.002C132.266 164.998 131.993 165.975 131.478 166.827C130.963 167.68 130.224 168.375 129.342 168.838C128.397 169.309 127.356 169.554 126.3 169.554C125.244 169.554 124.202 169.309 123.257 168.838ZM127.763 166.671C128.202 166.416 128.562 166.043 128.801 165.595C129.052 165.101 129.183 164.555 129.183 164.001C129.183 163.447 129.052 162.901 128.801 162.407C128.561 161.959 128.202 161.587 127.763 161.331C127.315 161.082 126.811 160.951 126.299 160.951C125.786 160.951 125.282 161.082 124.834 161.331C124.396 161.588 124.037 161.96 123.797 162.407C123.547 162.901 123.417 163.447 123.417 164.001C123.417 164.555 123.547 165.101 123.797 165.595C124.037 166.042 124.396 166.415 124.834 166.671C125.282 166.922 125.786 167.053 126.299 167.053C126.812 167.053 127.316 166.922 127.763 166.671Z" fill="#FFB100"/>
<path d="M135.047 168.261C134.167 167.397 133.727 166.171 133.727 164.585V158.657H136.749V164.483C136.749 166.193 137.425 167.047 138.777 167.047C140.129 167.047 140.802 166.193 140.794 164.485V158.657H143.767V164.575C143.767 166.162 143.327 167.387 142.448 168.252C141.568 169.116 140.335 169.548 138.748 169.548C137.167 169.55 135.933 169.121 135.047 168.261Z" fill="#FFB100"/>
<path d="M155.968 158.657V169.337H153.471L148.769 163.651V169.337H145.809V158.657H148.297L153.01 164.347V158.657H155.968Z" fill="#FFB100"/>
<path d="M160.417 168.838C159.548 168.386 158.821 167.702 158.319 166.861C157.82 165.988 157.557 164.999 157.557 163.993C157.557 162.987 157.82 161.999 158.319 161.126C158.822 160.286 159.548 159.602 160.417 159.151C161.346 158.667 162.381 158.423 163.429 158.44C164.335 158.427 165.234 158.604 166.068 158.959C166.831 159.291 167.502 159.804 168.021 160.455L166.1 162.184C165.409 161.35 164.57 160.933 163.584 160.933C163.043 160.925 162.51 161.057 162.036 161.318C161.588 161.567 161.222 161.94 160.983 162.393C160.737 162.889 160.609 163.434 160.609 163.988C160.609 164.541 160.737 165.086 160.983 165.582C161.222 166.035 161.588 166.409 162.036 166.657C162.51 166.918 163.043 167.05 163.584 167.042C164.57 167.042 165.409 166.624 166.1 165.789L168.021 167.529C167.503 168.182 166.832 168.698 166.068 169.03C165.234 169.386 164.335 169.562 163.429 169.548C162.381 169.565 161.346 169.32 160.417 168.838Z" fill="#FFB100"/>
<path d="M177.936 167.003V169.337H169.362V158.657H177.738V160.991H172.36V162.791H177.097V165.048H172.353V167.001L177.936 167.003Z" fill="#FFB100"/>
<path d="M141.601 179.953H139.953V182.79H136.931V172.113H141.814C142.677 172.093 143.535 172.257 144.33 172.593C145.003 172.879 145.577 173.356 145.98 173.966C146.374 174.593 146.574 175.323 146.556 176.064C146.573 176.775 146.385 177.477 146.015 178.084C145.638 178.671 145.1 179.138 144.466 179.429L146.771 182.784H143.537L141.601 179.953ZM143.034 174.905C142.719 174.63 142.251 174.492 141.629 174.492H139.953V177.619H141.629C142.251 177.619 142.719 177.485 143.034 177.216C143.194 177.072 143.32 176.893 143.401 176.694C143.483 176.494 143.519 176.279 143.506 176.064C143.519 175.848 143.483 175.631 143.401 175.431C143.319 175.231 143.194 175.051 143.034 174.905Z" fill="#FFB100"/>
<path d="M155.375 180.716H150.859L150.014 182.79H146.94L151.654 172.113H154.624L159.353 182.79H156.214L155.375 180.716ZM154.489 178.49L153.116 175.072L151.742 178.49H154.489Z" fill="#FFB100"/>
<path d="M161.95 174.508H158.669V172.113H168.234V174.508H164.969V182.79H161.95V174.508Z" fill="#FFB100"/>
<path d="M177.936 180.456V182.79H169.362V172.113H177.738V174.446H172.36V176.246H177.097V178.505H172.353V180.456H177.936Z" fill="#FFB100"/>
</svg>
